<svg id="Layer_1" data-name="Layer 1" xmlns="http://www.w3.org/2000/svg" viewBox="0 0 500 143"><defs><style>.cls-1,.cls-2{fill:#fff;}.cls-2{opacity:0.5;}</style></defs><title>bubbles-bottom</title><rect class="cls-1" y="99" width="500" height="44"/><circle class="cls-2" cx="260" cy="102" r="30"/><circle class="cls-2" cx="427" cy="88" r="50"/><circle class="cls-2" cx="99.5" cy="76.5" r="14.5"/><circle class="cls-2" cx="28.5" cy="79.5" r="8.5"/><circle class="cls-2" cx="116.03" cy="57.02" r="5"/><circle class="cls-2" cx="107.74" cy="46.41" r="3.33"/><circle class="cls-2" cx="115.67" cy="38.93" r="2.07"/><circle class="cls-2" cx="108.5" cy="31.76" r="1.5"/><circle class="cls-2" cx="35.09" cy="62.72" r="3.33"/><circle class="cls-2" cx="28.98" cy="53.66" r="1.5"/><circle class="cls-2" cx="309.13" cy="60.9" r="7.31"/><circle class="cls-2" cx="300.52" cy="44.4" r="4.51"/><circle class="cls-2" cx="307.25" cy="34.04" r="2.07"/><circle class="cls-2" cx="391.5" cy="14.5" r="14.5"/><path class="cls-1" d="M126.16,143.31a20.76,20.76,0,0,0-11.11,3.23,20.79,20.79,0,0,0-30.26-11.21,20.81,20.81,0,0,0-37,8,20.83,20.83,0,1,0,6.27,19.8,20.74,20.74,0,0,0,24.64,2.62,20.75,20.75,0,0,0,27.74,5.1,20.84,20.84,0,1,0,19.71-27.59Z" transform="translate(0 -57)"/><path class="cls-1" d="M453.74,146.22a16,16,0,0,0-8.61,2.5A16.12,16.12,0,0,0,421.67,140,16.14,16.14,0,0,0,393,146.27a16.16,16.16,0,1,0,4.86,15.35,16.08,16.08,0,0,0,19.1,2,16.1,16.1,0,0,0,21.51,4,16.16,16.16,0,1,0,15.28-21.39Z" transform="translate(0 -57)"/><circle class="cls-1" cx="269.09" cy="106.64" r="26.36"/><circle class="cls-1" cx="294.55" cy="99.36" r="26.36"/><circle class="cls-1" cx="321.64" cy="106.64" r="26.36"/><circle class="cls-1" cx="239.91" cy="114.06" r="26.36"/></svg>