<svg id="Layer_1" data-name="Layer 1" xmlns="http://www.w3.org/2000/svg" viewBox="0 0 500 143"><defs><style>.cls-1,.cls-2{fill:#fff;}.cls-2{opacity:0.5;}</style></defs><title>bubbles-top</title><rect class="cls-1" width="500" height="44" transform="translate(500 44) rotate(-180)"/><circle class="cls-2" cx="240" cy="41" r="30"/><circle class="cls-2" cx="73" cy="55" r="50"/><circle class="cls-2" cx="400.5" cy="66.5" r="14.5"/><circle class="cls-2" cx="471.5" cy="63.5" r="8.5"/><circle class="cls-2" cx="383.97" cy="85.98" r="5"/><circle class="cls-2" cx="392.26" cy="96.59" r="3.33"/><circle class="cls-2" cx="384.33" cy="104.07" r="2.07"/><circle class="cls-2" cx="391.5" cy="111.24" r="1.5"/><circle class="cls-2" cx="464.91" cy="80.28" r="3.33"/><circle class="cls-2" cx="471.02" cy="89.34" r="1.5"/><circle class="cls-2" cx="190.87" cy="82.1" r="7.31"/><circle class="cls-2" cx="199.48" cy="98.6" r="4.51"/><circle class="cls-2" cx="192.75" cy="108.96" r="2.07"/><circle class="cls-2" cx="108.5" cy="128.5" r="14.5"/><path class="cls-1" d="M373.84,56.69A20.76,20.76,0,0,0,385,53.46a20.79,20.79,0,0,0,30.26,11.21,20.81,20.81,0,0,0,37-8.05,20.83,20.83,0,1,0-6.27-19.8,20.74,20.74,0,0,0-24.64-2.62,20.78,20.78,0,0,0-27.74-5.1,20.84,20.84,0,1,0-19.71,27.59Z" transform="translate(0 0)"/><path class="cls-1" d="M46.26,53.78a16,16,0,0,0,8.61-2.5A16.12,16.12,0,0,0,78.33,60,16.14,16.14,0,0,0,107,53.73a16.16,16.16,0,1,0-4.86-15.35,16.08,16.08,0,0,0-19.1-2,16.1,16.1,0,0,0-21.51-4A16.16,16.16,0,1,0,46.26,53.78Z" transform="translate(0 0)"/><circle class="cls-1" cx="230.91" cy="36.36" r="26.36"/><circle class="cls-1" cx="205.45" cy="43.64" r="26.36"/><circle class="cls-1" cx="178.36" cy="36.36" r="26.36"/><circle class="cls-1" cx="260.09" cy="28.94" r="26.36"/></svg>