<svg id="Layer_2" data-name="Layer 2" xmlns="http://www.w3.org/2000/svg" viewBox="0 0 500 95.32"><defs><style>.cls-1{fill:#fff;}</style></defs><title>christmas-trees-top</title><path class="cls-1" d="M386.28,33.33l5,11.14a6.47,6.47,0,0,0-1.33.18c-.78.19-1.78.08-1.78.74s5.44,11.76,5.44,11.76a15.45,15.45,0,0,0-1.67.19c-.44.11-.26.89-.26.89s-1-1.19-1.44-.93.52,1.52.52,1.52l5.14,11.31a5.49,5.49,0,0,0-1.74.15c-.48.22-.15,1.15-.15,1.15a11,11,0,0,0-1.73.26c-.71.18,10.8,22.23,10.8,22.23s.51,1.4.88,1.4,10.84-22.26,10.84-22.26.67-.93.19-.93.25-1.15-.52-1.33-1.45-1.55-1.45-1.55l4.67-12.06s.88-1.26,0-1.44a4.67,4.67,0,0,0-1.67,0l4.18-8.25s-.07-.74-.59-.74,4.7-11,4.7-11,1.55-1.78-.15-2.18a3.14,3.14,0,0,0-2.89.92s.48-1.74-1.25-1.74-4.11,2.52-4.11,2.37,1.85-3.11.67-3.11-3.07,3-3.07,3,.88-2.29-.12-2.29-1.51,0-1.51,0v-7.1H399.59v7.47s0-1.4-.92-1.29-1.37,1.55-1.37,1.55.41-1.4-.56-1.66S395,34.18,395,34.18s-.71-2.88-2.11-2.88-.82,2.66-.82,2.66-1.1-3.07-2.29-2.84-.52,2.51-.52,2.51-2-1.63-2.55-1.63S386.28,33.33,386.28,33.33Z" transform="translate(0)"/><path class="cls-1" d="M354.1,32,356.39,37a2.78,2.78,0,0,0-.61.09c-.35.08-.8,0-.8.33s2.47,5.35,2.47,5.35a7.18,7.18,0,0,0-.76.09c-.2.05-.12.4-.12.4s-.43-.54-.65-.42.23.69.23.69l2.34,5.15a2.24,2.24,0,0,0-.79.07c-.22.1-.07.52-.07.52a4.71,4.71,0,0,0-.79.12c-.32.08,4.92,10.11,4.92,10.11s.23.64.4.64S367.09,50,367.09,50s.3-.42.08-.42.12-.52-.23-.61-.66-.71-.66-.71l2.12-5.48s.41-.57,0-.66a2.13,2.13,0,0,0-.75,0l1.9-3.76s0-.33-.27-.33,2.13-5,2.13-5,.71-.81-.06-1a1.42,1.42,0,0,0-1.32.42s.22-.79-.57-.79-1.87,1.14-1.87,1.08.85-1.42.31-1.42-1.4,1.36-1.4,1.36.41-1-.05-1-.69,0-.69,0V28.45h-5.6v3.4s0-.64-.42-.59-.62.7-.62.7.18-.63-.26-.75-.79,1.12-.79,1.12-.32-1.31-1-1.31-.37,1.21-.37,1.21-.5-1.39-1-1.29-.24,1.14-.24,1.14-.9-.74-1.16-.74S354.1,32,354.1,32Z" transform="translate(0)"/><path class="cls-1" d="M98.34,16.1l2.28,5.06a2.67,2.67,0,0,0-.6.09c-.35.08-.81,0-.81.33s2.47,5.35,2.47,5.35a7.07,7.07,0,0,0-.75.09c-.2.05-.12.4-.12.4s-.44-.54-.66-.42.24.69.24.69l2.34,5.15a2.51,2.51,0,0,0-.79.07c-.22.1-.07.52-.07.52a4.71,4.71,0,0,0-.79.12c-.32.08,4.91,10.11,4.91,10.11s.24.64.41.64,4.93-10.13,4.93-10.13.3-.42.08-.42.12-.52-.24-.61-.65-.7-.65-.7L112.64,27s.4-.57,0-.66a2.18,2.18,0,0,0-.76,0l1.9-3.75s0-.34-.27-.34,2.14-5,2.14-5,.71-.81-.07-1a1.41,1.41,0,0,0-1.31.42s.22-.79-.57-.79-1.87,1.14-1.87,1.08.84-1.42.3-1.42-1.39,1.37-1.39,1.37.4-1,0-1-.69,0-.69,0V12.6h-5.61V16s0-.64-.42-.59-.62.71-.62.71.19-.64-.25-.76-.79,1.13-.79,1.13-.32-1.32-1-1.32-.37,1.21-.37,1.21-.51-1.39-1-1.29-.23,1.14-.23,1.14-.91-.74-1.16-.74S98.34,16.1,98.34,16.1Z" transform="translate(0)"/><path class="cls-1" d="M122.15,17.68l3.08,6.81a3.93,3.93,0,0,0-.81.11c-.48.11-1.09,0-1.09.45s3.33,7.2,3.33,7.2a8.29,8.29,0,0,0-1,.11c-.27.07-.16.54-.16.54s-.59-.72-.88-.56.31.93.31.93l3.15,6.92a3.16,3.16,0,0,0-1.06.09c-.3.13-.09.7-.09.7a6.43,6.43,0,0,0-1.07.16c-.43.11,6.61,13.59,6.61,13.59s.32.86.54.86S139.62,42,139.62,42s.41-.57.11-.57.16-.7-.31-.81-.89-1-.89-1l2.85-7.37s.55-.77,0-.88a2.77,2.77,0,0,0-1,0l2.55-5s0-.45-.36-.45,2.87-6.72,2.87-6.72.95-1.09-.09-1.34a1.9,1.9,0,0,0-1.76.57s.29-1.06-.77-1.06-2.51,1.53-2.51,1.44,1.13-1.9.41-1.9-1.88,1.84-1.88,1.84.54-1.41-.07-1.41-.93,0-.93,0V13H130.3v4.57s0-.86-.57-.79-.83.95-.83.95.25-.86-.34-1-1.07,1.52-1.07,1.52-.43-1.77-1.29-1.77-.49,1.63-.49,1.63-.68-1.88-1.41-1.74-.31,1.54-.31,1.54-1.22-1-1.56-1S122.15,17.68,122.15,17.68Z" transform="translate(0)"/><path class="cls-1" d="M63.47,20l2.29,5.07a3,3,0,0,0-.61.08c-.35.09-.81,0-.81.34s2.48,5.35,2.48,5.35a6.5,6.5,0,0,0-.76.08c-.2,0-.12.41-.12.41s-.44-.54-.65-.42.23.69.23.69l2.34,5.15a2.42,2.42,0,0,0-.79.06c-.22.1-.07.52-.07.52a6.21,6.21,0,0,0-.79.12c-.32.09,4.91,10.11,4.91,10.11s.24.64.41.64,4.93-10.13,4.93-10.13.3-.42.08-.42.12-.52-.23-.6-.66-.71-.66-.71l2.12-5.48s.4-.58,0-.66a2.36,2.36,0,0,0-.76,0l1.9-3.75s0-.34-.27-.34,2.14-5,2.14-5,.71-.81-.07-1a1.41,1.41,0,0,0-1.31.42s.22-.79-.57-.79S77,20.88,77,20.81s.84-1.41.3-1.41-1.39,1.36-1.39,1.36.4-1-.05-1-.69,0-.69,0V16.5h-5.6v3.4s0-.64-.43-.59-.62.71-.62.71.19-.64-.25-.76-.79,1.13-.79,1.13-.32-1.31-1-1.31-.37,1.21-.37,1.21-.5-1.4-1-1.3-.24,1.15-.24,1.15-.91-.74-1.16-.74S63.47,20,63.47,20Z" transform="translate(0)"/><path class="cls-1" d="M30.77,24.55l3.44,7.64a4.56,4.56,0,0,0-.91.12c-.53.13-1.22,0-1.22.51s3.73,8.06,3.73,8.06a9.27,9.27,0,0,0-1.14.13c-.3.08-.18.61-.18.61s-.66-.81-1-.64.36,1,.36,1l3.52,7.76a3.75,3.75,0,0,0-1.19.1c-.33.16-.1.79-.1.79a7.71,7.71,0,0,0-1.19.18c-.48.13,7.4,15.24,7.4,15.24s.36,1,.61,1,7.43-15.26,7.43-15.26.46-.64.13-.64.18-.78-.36-.91-1-1.07-1-1.07l3.2-8.26s.61-.86,0-1a3.22,3.22,0,0,0-1.14,0L54,34.24s0-.51-.4-.51,3.22-7.53,3.22-7.53,1.06-1.22-.1-1.5a2.17,2.17,0,0,0-2,.64s.33-1.19-.86-1.19-2.82,1.72-2.82,1.62,1.27-2.13.46-2.13-2.11,2.05-2.11,2.05.61-1.57-.07-1.57-1,0-1,0V19.28H39.89V24.4s0-1-.63-.89-.94,1.07-.94,1.07.28-1-.38-1.14-1.19,1.7-1.19,1.7-.48-2-1.45-2S34.75,25,34.75,25,34,22.88,33.17,23s-.35,1.73-.35,1.73-1.37-1.12-1.75-1.12S30.77,24.55,30.77,24.55Z" transform="translate(0)"/><path class="cls-1" d="M421.48,23.47,424.42,30a3.71,3.71,0,0,0-.78.11c-.45.11-1,0-1,.43s3.18,6.88,3.18,6.88-.71.05-1,.11-.15.52-.15.52-.56-.69-.85-.54.31.89.31.89l3,6.62a3.06,3.06,0,0,0-1,.08c-.28.13-.09.67-.09.67a8.19,8.19,0,0,0-1,.15c-.41.11,6.32,13,6.32,13s.3.83.52.83,6.34-13,6.34-13,.39-.54.11-.54.15-.67-.31-.78-.84-.9-.84-.9l2.73-7.06s.51-.73,0-.84a2.73,2.73,0,0,0-1,0l2.45-4.83s0-.43-.35-.43,2.75-6.42,2.75-6.42.91-1-.09-1.28a1.84,1.84,0,0,0-1.69.54s.28-1-.73-1-2.4,1.47-2.4,1.38,1.08-1.82.39-1.82-1.8,1.75-1.8,1.75.52-1.34-.06-1.34-.89,0-.89,0V19h-7.2v4.37s0-.82-.55-.76-.8.91-.8.91.24-.82-.32-1-1,1.45-1,1.45-.41-1.69-1.23-1.69-.48,1.56-.48,1.56-.64-1.8-1.34-1.67-.3,1.47-.3,1.47-1.17-.95-1.49-.95S421.48,23.47,421.48,23.47Z" transform="translate(0)"/><path class="cls-1" d="M339.73,32,342,37a2.78,2.78,0,0,0-.61.09c-.35.08-.8,0-.8.33s2.47,5.35,2.47,5.35a7.18,7.18,0,0,0-.76.09c-.2.05-.12.4-.12.4s-.43-.54-.65-.42.23.69.23.69l2.34,5.15a2.24,2.24,0,0,0-.79.07c-.22.1-.07.52-.07.52a4.71,4.71,0,0,0-.79.12c-.32.08,4.92,10.11,4.92,10.11s.23.64.4.64S352.72,50,352.72,50s.3-.42.08-.42.12-.52-.23-.61-.66-.71-.66-.71L354,42.8s.41-.57,0-.66a2.19,2.19,0,0,0-.76,0l1.91-3.76s0-.33-.27-.33S357,33,357,33s.71-.81-.06-1a1.42,1.42,0,0,0-1.32.42s.22-.79-.57-.79-1.87,1.14-1.87,1.08.85-1.42.31-1.42-1.4,1.36-1.4,1.36.4-1-.05-1-.69,0-.69,0V28.45h-5.6v3.4s0-.64-.42-.59-.63.7-.63.7.19-.63-.25-.75-.79,1.12-.79,1.12-.32-1.31-1-1.31-.37,1.21-.37,1.21-.5-1.39-1-1.29-.24,1.14-.24,1.14-.91-.74-1.16-.74S339.73,32,339.73,32Z" transform="translate(0)"/><path class="cls-1" d="M369.61,27.7l2.29,5.07a3.11,3.11,0,0,0-.61.08c-.35.09-.8,0-.8.34S373,38.54,373,38.54a6.5,6.5,0,0,0-.76.08c-.2.05-.11.41-.11.41s-.44-.54-.66-.42.23.68.23.68L374,44.44a2.51,2.51,0,0,0-.79.07c-.22.1-.06.52-.06.52a6.26,6.26,0,0,0-.8.12c-.32.08,4.92,10.11,4.92,10.11s.23.64.4.64,4.93-10.13,4.93-10.13.3-.42.08-.42.12-.52-.23-.6-.66-.71-.66-.71l2.12-5.49s.41-.57,0-.65a2,2,0,0,0-.75,0l1.9-3.75s0-.34-.27-.34,2.13-5,2.13-5,.71-.81-.06-1a1.42,1.42,0,0,0-1.31.42s.21-.79-.58-.79-1.86,1.15-1.86,1.08.84-1.41.3-1.41-1.4,1.36-1.4,1.36.41-1-.05-1h-.69V24.2h-5.6v3.4s0-.64-.42-.59-.62.71-.62.71.18-.64-.26-.76-.79,1.13-.79,1.13-.32-1.31-1-1.31-.37,1.21-.37,1.21-.5-1.4-1-1.3-.24,1.15-.24,1.15-.9-.74-1.16-.74S369.61,27.7,369.61,27.7Z" transform="translate(0)"/><path class="cls-1" d="M304.86,29.44l2.29,5.07a3,3,0,0,0-.61.08c-.35.09-.81,0-.81.34s2.48,5.35,2.48,5.35a6.5,6.5,0,0,0-.76.08c-.2,0-.12.41-.12.41s-.44-.54-.66-.42.24.69.24.69l2.34,5.14a2.51,2.51,0,0,0-.79.07c-.22.1-.07.52-.07.52a6.21,6.21,0,0,0-.79.12C307.28,47,312.51,57,312.51,57s.24.64.41.64,4.93-10.13,4.93-10.13.3-.42.08-.42.12-.52-.24-.6-.65-.71-.65-.71l2.12-5.48s.4-.58,0-.66a2.34,2.34,0,0,0-.76,0l1.9-3.75s0-.34-.27-.34,2.14-5,2.14-5,.71-.81-.07-1a1.44,1.44,0,0,0-1.31.42s.22-.79-.57-.79-1.87,1.15-1.87,1.08.84-1.41.3-1.41-1.39,1.36-1.39,1.36.4-1-.05-1h-.69V25.94h-5.61v3.4s0-.64-.42-.59-.62.71-.62.71.19-.64-.25-.76-.79,1.13-.79,1.13-.32-1.31-1-1.31-.37,1.21-.37,1.21-.51-1.4-1-1.3-.24,1.15-.24,1.15-.91-.74-1.16-.74S304.86,29.44,304.86,29.44Z" transform="translate(0)"/><path class="cls-1" d="M281.94,26.41l2.79,6.18a3.7,3.7,0,0,0-.74.1c-.43.11-1,.05-1,.42s3,6.53,3,6.53a8.49,8.49,0,0,0-.93.1c-.24.07-.14.5-.14.5s-.53-.66-.8-.52.29.85.29.85l2.85,6.28a2.84,2.84,0,0,0-1,.09c-.27.12-.08.63-.08.63a5.93,5.93,0,0,0-1,.15c-.39.1,6,12.35,6,12.35s.29.78.49.78,6-12.37,6-12.37.37-.52.11-.52.14-.63-.29-.74-.8-.86-.8-.86l2.59-6.7s.49-.7,0-.8a2.73,2.73,0,0,0-.93,0l2.32-4.58s0-.41-.32-.41,2.61-6.11,2.61-6.11.86-1-.09-1.21a1.73,1.73,0,0,0-1.6.51s.27-1-.7-1-2.28,1.4-2.28,1.31,1-1.72.37-1.72-1.7,1.66-1.7,1.66.49-1.27-.07-1.27-.84,0-.84,0V22.13h-6.84v4.15s0-.78-.52-.72-.76.87-.76.87.23-.78-.3-.93-1,1.38-1,1.38-.39-1.6-1.17-1.6-.45,1.48-.45,1.48-.62-1.71-1.28-1.59-.29,1.4-.29,1.4-1.11-.9-1.41-.9S281.94,26.41,281.94,26.41Z" transform="translate(0)"/><path class="cls-1" d="M112.73,16.1,115,21.16a2.78,2.78,0,0,0-.61.09c-.35.08-.8,0-.8.33s2.47,5.35,2.47,5.35a7.18,7.18,0,0,0-.76.09c-.2.05-.12.4-.12.4s-.43-.54-.65-.42.23.69.23.69l2.34,5.15a2.51,2.51,0,0,0-.79.07c-.22.1-.07.52-.07.52a4.71,4.71,0,0,0-.79.12c-.32.08,4.92,10.11,4.92,10.11s.23.64.4.64,4.93-10.13,4.93-10.13.3-.42.08-.42.12-.52-.23-.61-.66-.7-.66-.7L127,27s.41-.57,0-.66a2.19,2.19,0,0,0-.76,0l1.91-3.75s0-.34-.27-.34,2.13-5,2.13-5,.71-.81-.06-1a1.42,1.42,0,0,0-1.32.42s.22-.79-.57-.79-1.87,1.14-1.87,1.08.85-1.42.31-1.42-1.4,1.37-1.4,1.37.4-1,0-1-.69,0-.69,0V12.6h-5.6V16s0-.64-.42-.59-.63.71-.63.71.19-.64-.25-.76-.79,1.13-.79,1.13-.32-1.32-1-1.32-.37,1.21-.37,1.21-.5-1.39-1-1.29-.24,1.14-.24,1.14-.91-.74-1.16-.74S112.73,16.1,112.73,16.1Z" transform="translate(0)"/><path class="cls-1" d="M140.65,15,142.94,20a2.78,2.78,0,0,0-.61.09c-.35.08-.8,0-.8.33S144,25.8,144,25.8a7.18,7.18,0,0,0-.76.09c-.2.05-.12.4-.12.4s-.43-.54-.65-.42.23.69.23.69L145,31.71a2.42,2.42,0,0,0-.79.06c-.22.11-.07.53-.07.53a5.47,5.47,0,0,0-.79.11c-.32.09,4.92,10.12,4.92,10.12s.23.64.4.64S153.64,33,153.64,33s.3-.42.08-.42.12-.53-.23-.61-.66-.71-.66-.71L155,25.82s.41-.57,0-.66a2.19,2.19,0,0,0-.76,0l1.91-3.76s0-.33-.27-.33,2.13-5,2.13-5,.71-.81-.06-1a1.42,1.42,0,0,0-1.32.42s.22-.79-.57-.79-1.87,1.14-1.87,1.07.85-1.41.31-1.41-1.4,1.36-1.4,1.36.4-1-.05-1-.69,0-.69,0V11.47h-5.6v3.4s0-.64-.42-.59-.63.7-.63.7.19-.64-.25-.75-.79,1.12-.79,1.12-.32-1.31-1-1.31-.37,1.21-.37,1.21-.5-1.39-1-1.29S142,15.1,142,15.1s-.91-.74-1.16-.74S140.65,15,140.65,15Z" transform="translate(0)"/><path class="cls-1" d="M70.73,20.21l4.73,10.47a6.1,6.1,0,0,0-1.25.17c-.73.18-1.67.07-1.67.7s5.12,11.06,5.12,11.06a14.71,14.71,0,0,0-1.57.17c-.42.11-.24.84-.24.84s-.91-1.11-1.36-.87.49,1.43.49,1.43l4.83,10.64a5,5,0,0,0-1.63.14C77.72,55.17,78,56,78,56a11.44,11.44,0,0,0-1.64.24c-.66.17,10.16,20.91,10.16,20.91s.49,1.32.84,1.32S97.59,57.57,97.59,57.57s.62-.87.17-.87.25-1.08-.49-1.25S95.92,54,95.92,54l4.38-11.35s.84-1.18,0-1.35a4.33,4.33,0,0,0-1.56,0l3.93-7.75s-.07-.7-.56-.7,4.42-10.33,4.42-10.33,1.46-1.67-.14-2a2.92,2.92,0,0,0-2.71.87s.45-1.64-1.19-1.64S98.63,22,98.63,21.88s1.74-2.92.63-2.92-2.89,2.81-2.89,2.81.84-2.15-.1-2.15-1.43,0-1.43,0V13H83.26v7s0-1.32-.87-1.22-1.29,1.46-1.29,1.46.38-1.32-.52-1.56S78.94,21,78.94,21s-.66-2.72-2-2.72-.77,2.51-.77,2.51-1-2.89-2.15-2.68-.49,2.37-.49,2.37S71.67,19,71.15,19,70.73,20.21,70.73,20.21Z" transform="translate(0)"/><path class="cls-1" d="M52.12,19.25l2.8,6.19a3.62,3.62,0,0,0-.74.1c-.43.1-1,0-1,.41s3,6.54,3,6.54a8.14,8.14,0,0,0-.92.1c-.25.06-.15.49-.15.49s-.53-.66-.8-.51.29.84.29.84l2.86,6.29a3.11,3.11,0,0,0-1,.08c-.27.12-.08.64-.08.64a6.72,6.72,0,0,0-1,.14c-.39.1,6,12.35,6,12.35s.29.78.5.78,6-12.37,6-12.37.37-.51.1-.51.14-.64-.29-.74-.8-.86-.8-.86l2.59-6.7s.49-.7,0-.81a2.67,2.67,0,0,0-.92,0L71,27.1s0-.41-.33-.41,2.61-6.1,2.61-6.1.86-1-.08-1.22a1.76,1.76,0,0,0-1.61.52s.27-1-.69-1-2.29,1.4-2.29,1.32,1-1.73.37-1.73-1.7,1.67-1.7,1.67.49-1.28-.06-1.28-.85,0-.85,0V15H59.52v4.15s0-.78-.51-.72-.76.86-.76.86.22-.78-.31-.92-1,1.37-1,1.37-.39-1.6-1.17-1.6-.45,1.48-.45,1.48-.62-1.71-1.27-1.58-.29,1.4-.29,1.4-1.11-.91-1.42-.91S52.12,19.25,52.12,19.25Z" transform="translate(0)"/><path class="cls-1" d="M439.19,25.49l2.29,5.07a3,3,0,0,0-.6.08c-.36.09-.81,0-.81.34s2.47,5.35,2.47,5.35a6.71,6.71,0,0,0-.76.08c-.2.05-.11.41-.11.41s-.44-.54-.66-.42.24.69.24.69l2.33,5.15a2.42,2.42,0,0,0-.79.06c-.22.1-.06.52-.06.52a6,6,0,0,0-.79.12c-.32.09,4.91,10.11,4.91,10.11s.23.64.4.64,4.93-10.13,4.93-10.13.3-.42.09-.42.11-.52-.24-.6-.66-.71-.66-.71l2.12-5.48s.41-.58,0-.66a2.29,2.29,0,0,0-.75,0l1.9-3.75s0-.33-.27-.33,2.14-5,2.14-5,.7-.81-.07-1a1.4,1.4,0,0,0-1.31.42s.21-.79-.58-.79-1.86,1.14-1.86,1.07.84-1.41.3-1.41-1.4,1.36-1.4,1.36.41-1,0-1-.69,0-.69,0V22h-5.6v3.39s0-.64-.42-.58-.62.7-.62.7.18-.64-.26-.76-.79,1.13-.79,1.13-.32-1.31-1-1.31-.37,1.21-.37,1.21-.5-1.4-1-1.29-.23,1.14-.23,1.14-.91-.74-1.17-.74S439.19,25.49,439.19,25.49Z" transform="translate(0)"/><path class="cls-1" d="M463,24.18,466.09,31a4.06,4.06,0,0,0-.82.11c-.47.12-1.08,0-1.08.46s3.32,7.19,3.32,7.19-.74,0-1,.11-.16.55-.16.55-.59-.73-.89-.57.32.93.32.93l3.15,6.92a3.53,3.53,0,0,0-1.07.09c-.29.14-.09.7-.09.7a7.78,7.78,0,0,0-1.06.16c-.43.12,6.6,13.6,6.6,13.6s.32.86.55.86,6.63-13.62,6.63-13.62.4-.57.11-.57.16-.7-.32-.81-.88-1-.88-1l2.85-7.38s.54-.76,0-.88a3,3,0,0,0-1,0l2.56-5s0-.45-.36-.45,2.87-6.72,2.87-6.72.95-1.08-.09-1.33a1.91,1.91,0,0,0-1.76.56s.29-1.06-.77-1.06-2.51,1.54-2.51,1.45,1.13-1.9.4-1.9-1.88,1.83-1.88,1.83.55-1.4-.06-1.4-.93,0-.93,0V19.48h-7.53v4.57s0-.86-.57-.8-.84.95-.84.95.25-.85-.34-1-1.06,1.51-1.06,1.51-.43-1.76-1.29-1.76-.5,1.63-.5,1.63-.68-1.88-1.4-1.75-.32,1.54-.32,1.54-1.22-1-1.56-1S463,24.18,463,24.18Z" transform="translate(0)"/><path class="cls-1" d="M450.61,25.49l2.29,5.07a3.11,3.11,0,0,0-.61.08c-.35.09-.81,0-.81.34S454,36.33,454,36.33a6.5,6.5,0,0,0-.76.08c-.2.05-.12.41-.12.41s-.43-.54-.65-.42.23.69.23.69L455,42.24a2.42,2.42,0,0,0-.79.06c-.22.1-.07.52-.07.52a6.21,6.21,0,0,0-.79.12c-.32.09,4.91,10.11,4.91,10.11s.24.64.41.64,4.93-10.13,4.93-10.13.3-.42.08-.42.12-.52-.23-.6-.66-.71-.66-.71l2.12-5.48s.4-.58,0-.66a2.36,2.36,0,0,0-.76,0l1.9-3.75s0-.33-.26-.33,2.13-5,2.13-5,.71-.81-.07-1a1.41,1.41,0,0,0-1.31.42s.22-.79-.57-.79-1.87,1.14-1.87,1.07.84-1.41.31-1.41-1.4,1.36-1.4,1.36.4-1-.05-1-.69,0-.69,0V22h-5.6v3.39s0-.64-.42-.58-.63.7-.63.7.19-.64-.25-.76-.79,1.13-.79,1.13-.32-1.31-1-1.31-.37,1.21-.37,1.21-.5-1.4-1-1.29-.24,1.14-.24,1.14-.91-.74-1.16-.74S450.61,25.49,450.61,25.49Z" transform="translate(0)"/><path class="cls-1" d="M481.51,21.93,483.8,27a3,3,0,0,0-.61.08c-.35.09-.81,0-.81.34s2.48,5.35,2.48,5.35a6.5,6.5,0,0,0-.76.08c-.2,0-.12.41-.12.41s-.44-.54-.66-.42.24.69.24.69l2.34,5.14a2.51,2.51,0,0,0-.79.07c-.22.1-.07.52-.07.52a6.21,6.21,0,0,0-.79.12c-.32.09,4.91,10.11,4.91,10.11s.24.64.41.64S494.5,40,494.5,40s.3-.42.08-.42.12-.52-.24-.6-.65-.71-.65-.71l2.12-5.48s.4-.58,0-.66a2.34,2.34,0,0,0-.76,0l1.9-3.75s0-.34-.27-.34,2.14-5,2.14-5,.71-.81-.07-1a1.43,1.43,0,0,0-1.31.43s.22-.8-.57-.8S495,22.81,495,22.74s.84-1.41.3-1.41-1.39,1.36-1.39,1.36.4-1-.05-1h-.69V18.43h-5.61v3.4s0-.64-.42-.59-.62.71-.62.71.19-.64-.25-.76-.79,1.13-.79,1.13-.32-1.31-1-1.31-.37,1.21-.37,1.21-.51-1.4-1-1.3-.24,1.15-.24,1.15-.91-.74-1.16-.74S481.51,21.93,481.51,21.93Z" transform="translate(0)"/><path class="cls-1" d="M500,0H0V27.62S71,13.81,151.36,13.81,283.78,31,369.61,31,500,17.66,500,17.66Z" transform="translate(0)"/></svg>