<svg id="Layer_1" data-name="Layer 1" xmlns="http://www.w3.org/2000/svg" viewBox="0 0 500 200"><defs><style>.cls-1,.cls-2{fill:#fff;}.cls-1{stroke:#fff;stroke-miterlimit:10;}.cls-2{opacity:0.11;}</style></defs><title>faded-loops-top</title><path class="cls-1" d="M500.5,57.5c-25.51-14.36-68-33.7-121-34-96.73-.56-140.16,62.86-242,68-30.63,1.55-77.69-1.62-137-29V.5h500Z"/><path class="cls-2" d="M504,55.39c-27.69-11.49-55.28-23-84.5-30.1a232.6,232.6,0,0,0-39.61-6.4,209.06,209.06,0,0,0-22.25-.46,182.67,182.67,0,0,0-33.27,4.29A178.85,178.85,0,0,0,293.32,33.3C274,41.74,255.91,52.85,236.55,61.24A281.44,281.44,0,0,1,154.23,83,310.54,310.54,0,0,1,70.14,80,301.83,301.83,0,0,1,29.3,69.93Q15.95,65.63,3.06,60.06T-22.1,47.7c-.74-.38.19,1.4.11,1.24.39.75,1,2.34,1.84,2.75,8.42,4.25,16.82,8.41,25.5,12.11A280.67,280.67,0,0,0,38.69,75.35,308.68,308.68,0,0,0,101.24,86.4a305.44,305.44,0,0,0,63.61-2.17c9.41-1.31,18.69-3,27.93-5.27A261,261,0,0,0,227,68.53c14.17-5.54,27.7-12.28,41.26-19.14q7-3.62,14.11-7a102.31,102.31,0,0,1,46.75-11.25,91.89,91.89,0,0,1,47.51-8.65c3.66.12,7.31.43,10.95.91,41.22,4.48,79.76,20.27,117.63,36.29.68.29.16-1.15.13-1.24C505.13,57.88,504.7,55.66,504,55.39Z"/><path class="cls-2" d="M502.89,56.22q-9.47-3-18.58-6.9-9.58-4-19.28-7.66a378.35,378.35,0,0,0-39.65-12.94c-20.74-5.31-41.81-8.59-63.25-8.37a171.81,171.81,0,0,0-50,7.57c-13.64,4.3-26.63,10.53-39.33,17-9.41,4.81-18.69,9.89-28.21,14.46A281,281,0,0,1,215,71.61a288.08,288.08,0,0,1-76.2,14.84,287.49,287.49,0,0,1-42.12-.64,290.07,290.07,0,0,1-41.56-6.45A297.66,297.66,0,0,1,15,67.23L2,61.94q-12.85-5.59-25.09-12.43c-.51-.27-.5.72,0,1Q-14,55.68-4.3,60,2,63.08,8.59,65.58A297.53,297.53,0,0,0,41.85,76.94a306.18,306.18,0,0,0,69.51,10.7c46,1.71,92.67-7,134.09-27.37,6.26-3.07,12.43-6.3,18.62-9.52C283,40.91,302.44,30.5,323.44,25.86a211,211,0,0,1,22.06-3.68,180.19,180.19,0,0,1,27.78-.66A252,252,0,0,1,431.9,31.59c11.13,3.2,22.09,6.91,32.92,11l12.89,5.06a211.78,211.78,0,0,0,24.84,9.26C502.94,57,503.37,56.39,502.89,56.22Z"/><path class="cls-2" d="M503.88,56.3c-23.29-10-46.67-19.68-71-26.74-20.72-6-42.28-10.25-63.92-10.52a199.44,199.44,0,0,0-27.64,1.45,172.2,172.2,0,0,0-27.24,5.73c-10.07,3-20.05,7.36-29.5,11.91C276.63,41.94,268.82,46,261,50s-15.4,7.93-23.33,11.36a285,285,0,0,1-33.78,12.16,302.52,302.52,0,0,1-34.67,7.8q-10.5,1.74-21.1,2.47-10.56,1.06-21.18,1.13a327.39,327.39,0,0,1-70.07-7.08q-10.36-2.19-20.46-5.32-10.18-2.82-20.08-6.58L3.25,60.71q-13-5.55-25.33-12.32a2.51,2.51,0,0,0,.53,1.49c.94,1.72,1.91,3.41,2.91,5.09s2,3.36,3.05,5a2.53,2.53,0,0,0,1,1.19c13.09,6.12,26.17,12,40,16.38A333.24,333.24,0,0,0,60.2,86.7,336.87,336.87,0,0,0,95.8,92q10.77,1,21.58,1.12,10.8.39,21.61-.18A339.74,339.74,0,0,0,210,81.6c22.14-6,43-15.25,63.69-25.07,15.08-7.18,30.23-14.34,46.31-19a167.76,167.76,0,0,1,57.31-6.18,273.78,273.78,0,0,1,55.51,9.78,407.45,407.45,0,0,1,39,13.25c12.61,4.9,25,10.31,37.23,16a2.54,2.54,0,0,0-.26-1.57q-.93-2.82-2-5.59t-2.12-5.54A2.54,2.54,0,0,0,503.88,56.3Z"/><path class="cls-2" d="M503.31,57.46C482.17,48.41,461,39.64,439,32.67a272,272,0,0,0-59.61-12,187.08,187.08,0,0,0-55.25,3.67c-19.28,4.18-37.28,13-54.74,21.89-7.78,4-15.51,8.07-23.4,11.83a291.61,291.61,0,0,1-29.51,12.19,289.08,289.08,0,0,1-97.17,15.64,305.72,305.72,0,0,1-69.73-8.63A298.47,298.47,0,0,1,16,67.11L2.93,61.91Q-10,56.41-22.37,49.65c-1.11-.58,1.27,2.7,1,2.29q1.34,1.94,2.74,3.83a10.45,10.45,0,0,0,1.57,1.88q9.52,5,19.48,9,9.81,4.35,20,7.74a295.28,295.28,0,0,0,41.47,11,337.78,337.78,0,0,0,71.26,5.49,298.93,298.93,0,0,0,57.12-7.37,303.1,303.1,0,0,0,34.46-10,341.59,341.59,0,0,0,34-14.33c7.69-3.69,15.32-7.49,23-11.14A243.81,243.81,0,0,1,312,36.31a160.68,160.68,0,0,1,30.75-7.12,192,192,0,0,1,26.8-1.33c20.81.42,41.36,4,61.39,9.6,26.32,7.33,51.73,17.73,76.53,29.09a1.32,1.32,0,0,0-.16-1.07c-.49-1.23-1-2.44-1.57-3.63C505.32,61,504.43,57.94,503.31,57.46Z"/><path class="cls-2" d="M503.94,53.93c-27.7-11.47-55.29-23-84.51-30.08a232.24,232.24,0,0,0-39.64-6.38A204.69,204.69,0,0,0,357.5,17a183.34,183.34,0,0,0-33.33,4.31A179.68,179.68,0,0,0,293,31.93c-19.38,8.46-37.47,19.59-56.87,28a280.73,280.73,0,0,1-82.28,21.69,309.82,309.82,0,0,1-84-3A301.06,301.06,0,0,1,29.09,68.53q-13.33-4.32-26.2-9.88T-22.24,46.28c-.72-.38.12,1.34.06,1.21.35.72.93,2.3,1.71,2.69C-12.08,54.43-3.7,58.59,5,62.29A278.26,278.26,0,0,0,38.17,73.84,307.34,307.34,0,0,0,100.5,84.93a304.22,304.22,0,0,0,63.41-2.1c9.39-1.29,18.64-3,27.86-5.23A260.84,260.84,0,0,0,225.9,67.18c14.2-5.55,27.76-12.31,41.36-19.18q7-3.64,14.19-7a103.06,103.06,0,0,1,47-11.3A92.39,92.39,0,0,1,376.22,21a109.27,109.27,0,0,1,11,.91C428.45,26.37,467,42.16,504.92,58.17c.67.28.2-1.09.17-1.21C505,56.41,504.57,54.2,503.94,53.93Z"/><path class="cls-2" d="M503.45,54.94c-23.3-10-46.7-19.69-71.09-26.74-20.73-6-42.32-10.22-64-10.47a199.92,199.92,0,0,0-27.67,1.51A172.72,172.72,0,0,0,313.44,25c-10.09,3-20.08,7.43-29.53,12C276,40.87,268.18,44.94,260.35,49S245,56.92,237,60.35a280.92,280.92,0,0,1-33.78,12.16,302.41,302.41,0,0,1-34.67,7.77Q158.09,82,147.48,82.72q-10.56,1.05-21.18,1.1a327.08,327.08,0,0,1-70-7.19q-10.35-2.2-20.44-5.35-10.18-2.84-20.06-6.61L2.69,59.42Q-10.25,53.87-22.6,47.07a2.29,2.29,0,0,0,.47,1.43q1.29,2.46,2.69,4.88t2.83,4.8a2.33,2.33,0,0,0,1,1.13c13,6.16,26,12.06,39.73,16.53a330.86,330.86,0,0,0,34.62,9.29,336.91,336.91,0,0,0,35.46,5.44q10.73,1.09,21.5,1.21,10.77.43,21.54-.09a336,336,0,0,0,70.82-11.07c22.19-6,43.1-15.23,63.73-25.15C287,48.16,302.21,40.86,318.4,36.05a168.3,168.3,0,0,1,57.73-6.51c46.29,2.74,90.49,19.55,132.2,38.84a2.41,2.41,0,0,0-.23-1.51c-.59-1.79-1.2-3.57-1.86-5.34s-1.29-3.53-2-5.28A2.37,2.37,0,0,0,503.45,54.94Z"/><path class="cls-2" d="M503.73,58.72c-19-8-38-16-57.62-22.52C424.72,29.11,402.5,23.54,379.94,22a214.84,214.84,0,0,0-27.68-.17,182.46,182.46,0,0,0-27.54,3.81c-19.28,4.17-37.28,13-54.74,21.84-7.78,4-15.51,8.14-23.42,11.83L224.1,69.06a205.94,205.94,0,0,1-20.39,6.71,303.72,303.72,0,0,1-34.61,7.82q-10.47,1.74-21,2.48-10.55,1.08-21.14,1.15a327.29,327.29,0,0,1-69.93-7q-10.35-2.17-20.43-5.29-10.17-2.79-20-6.54L3.44,63.2q-13-5.51-25.31-12.26c-1-.52,1.06,2.3.78,1.91.76,1,1.54,2.06,2.33,3.06a7.11,7.11,0,0,0,1.36,1.48C-4.5,63.66,8.4,69.65,22,74.23A328.85,328.85,0,0,0,56.45,83.8a334.4,334.4,0,0,0,35.3,5.73q10.69,1.17,21.44,1.37,10.73.52,21.48.08a332.69,332.69,0,0,0,35.65-3.36A325,325,0,0,0,205.4,80.3c19-5,37.17-12.49,54.81-21C275.57,51.89,290.7,44,306.68,38a164,164,0,0,1,57.05-10.52,244,244,0,0,1,53.51,6.2,327.9,327.9,0,0,1,39.64,11.79c17.06,6.16,33.75,13.15,50.3,20.57a1,1,0,0,0-.09-.89c-.4-1-.83-2-1.3-2.93S504.72,59.14,503.73,58.72Z"/><path class="cls-2" d="M502.79,53c-21.18-9.09-42.46-17.86-64.46-24.81a270,270,0,0,0-59.75-11.85,187.51,187.51,0,0,0-55.45,3.93c-19.35,4.29-37.4,13.25-54.92,22.26-7.79,4-15.53,8.16-23.43,11.94l-9.36,4.37a165.73,165.73,0,0,1-33.79,11.39,138.43,138.43,0,0,1-27.37,7.17q-10.39,2.06-21,3.09a318,318,0,0,1-35.18,1.57,304.58,304.58,0,0,1-69.58-8.89A297.7,297.7,0,0,1,15,62.87L2,57.62q-12.9-5.57-25.2-12.37c-.94-.49.6,2.17.47,1.91.57,1.07,1.17,2.12,1.79,3.17a6.47,6.47,0,0,0,1.09,1.55Q-10.49,56.94-.68,61,9,65.47,19,68.94A290.66,290.66,0,0,0,59.91,80.3a332,332,0,0,0,70.41,6.17,305,305,0,0,0,42.33-4.09,269.51,269.51,0,0,0,28-6.13,311,311,0,0,0,54.58-20.87c7.81-3.8,15.55-7.72,23.37-11.5a253.94,253.94,0,0,1,28.89-12.32A164.73,164.73,0,0,1,339,23.93a197.82,197.82,0,0,1,27.31-1.59c21.05.24,41.87,3.72,62.16,9.27,26.49,7.26,52.23,17.58,77.09,29.15a1,1,0,0,0,0-.91c-.31-1-.65-2.07-1-3.08C504.27,56,503.73,53.43,502.79,53Z"/><path class="cls-2" d="M504.24,58.15c-23.26-10-46.63-19.7-71-26.77-20.7-6-42.23-10.3-63.86-10.63a200.74,200.74,0,0,0-27.62,1.38,172.44,172.44,0,0,0-27.24,5.64A197.68,197.68,0,0,0,285,39.56c-7.93,3.78-15.75,7.81-23.59,11.8S246,59.27,238.1,62.69a287.59,287.59,0,0,1-33.78,12.18,304.91,304.91,0,0,1-34.65,7.83q-10.48,1.76-21.08,2.5Q138,86.28,127.42,86.36a327.72,327.72,0,0,1-70.05-7Q47,77.25,36.9,74.13,26.72,71.34,16.82,67.6L3.73,62.4q-13-5.51-25.36-12.26a2,2,0,0,0,.5,1.32q1.32,2.24,2.75,4.42c.94,1.46,1.9,2.9,2.9,4.33a2,2,0,0,0,1,1c13.09,6.11,26.16,12,40,16.36A333.85,333.85,0,0,0,60.26,86.7,341.89,341.89,0,0,0,95.85,92q10.77,1,21.58,1.11,10.8.39,21.6-.19a338.93,338.93,0,0,0,71-11.35c22.15-6,43-15.27,63.7-25.09,15.09-7.18,30.24-14.33,46.33-19a168.07,168.07,0,0,1,57.32-6.14c46.16,2.94,90.19,19.8,131.78,39.07a2,2,0,0,0-.24-1.39Q508,66.55,507,64.14c-.64-1.62-1.3-3.23-2-4.82A2.14,2.14,0,0,0,504.24,58.15Z"/><path class="cls-2" d="M502.83,54.92c-39.81-16.79-80.46-33.41-124-36.59a200.64,200.64,0,0,0-27.74-.1,159.32,159.32,0,0,0-27.59,3.91,181.31,181.31,0,0,0-25.89,8.47c-8.23,3.38-16.24,7.19-24.17,11.21C256.69,50.3,240.21,59.48,222.56,66q-13.42,4.94-27.25,8.66a173.34,173.34,0,0,1-41.75,6.26,149.61,149.61,0,0,1-35,3,305.37,305.37,0,0,1-69.68-8.77A300.41,300.41,0,0,1,15.33,64.82l-13-5.23Q-10.64,54-23,47.26c-1.06-.55,1,2.61.81,2.27.78,1.29,1.59,2.57,2.41,3.83a10.11,10.11,0,0,0,1.41,1.89q12.66,6.57,25.9,11.9l13.35,5A305.78,305.78,0,0,0,62.15,83.32a313.92,313.92,0,0,0,57,5.93,312.8,312.8,0,0,0,42.72-2.38,289.25,289.25,0,0,0,42-8.3,283.73,283.73,0,0,0,40.63-14.38C263.3,55.82,281.28,45.54,300.44,38a170,170,0,0,1,30-9.18,175.78,175.78,0,0,1,32.27-3.33,242,242,0,0,1,60.42,7.83c28.79,7.3,56.41,18.44,83.41,30.68a1.27,1.27,0,0,0-.11-1.07c-.43-1.22-.89-2.43-1.39-3.63s-1-2.39-1.54-3.56A1.29,1.29,0,0,0,502.83,54.92Z"/><path class="cls-2" d="M503.28,52.29c-21.2-8.9-42.42-17.71-64.37-24.65a257,257,0,0,0-65.34-12.1,179.62,179.62,0,0,0-55.41,5.66C299,26.4,281.4,35.39,263.84,44.44l-9.39,4.84a210.59,210.59,0,0,1-20.62,9.57A178.25,178.25,0,0,1,209,68.44l-13.69,4a298.94,298.94,0,0,1-69.81,9.22Q115,81.82,104.45,81q-10.55-.47-21-1.88A325.56,325.56,0,0,1,49,72.63,281.62,281.62,0,0,1,15.5,62.31l-13-5.26q-12.88-5.56-25.17-12.37c-.87-.45.4,1.93.3,1.72.47,1,1,1.91,1.49,2.84a4.74,4.74,0,0,0,.94,1.39C-7.28,57,5.38,63,18.77,67.69a323.94,323.94,0,0,0,33.85,9.8,309,309,0,0,0,77,7.85,297.34,297.34,0,0,0,76.8-12.07A286.68,286.68,0,0,0,240.19,61c6.37-2.8,12.66-5.87,18.89-9,15.74-7.78,31.36-15.78,47.91-21.72a120.1,120.1,0,0,1,15.41-4.48,119.93,119.93,0,0,1,16.29-3.19,188.94,188.94,0,0,1,32.94-1.53,269.14,269.14,0,0,1,56.86,9.23,387.1,387.1,0,0,1,39.4,13.13c12.67,4.89,25.15,10.16,37.55,15.69.25.11-.75-3.66-.72-3.56C504.51,55,504.12,52.65,503.28,52.29Z"/><path class="cls-2" d="M503.68,58.68c-29.58-12.76-59.62-25.24-91.22-32.06-25.11-5.43-51.38-7.33-76.85-3.34a170.74,170.74,0,0,0-31.85,8.38c-13.3,4.81-25.92,11.43-38.49,17.83C256,54.21,246.74,59,237.21,63.23a267.12,267.12,0,0,1-26.92,10.19,281.6,281.6,0,0,1-27.54,7.24l.35-.07-14.29,2.64.35-.06q-14,2.22-28.09,3.11t-28.21.47a325.77,325.77,0,0,1-42-4.16,303.92,303.92,0,0,1-41-9.88Q16.37,68.48,3.4,63T-21.94,50.75c-1.18-.6,1.47,2.9,1.16,2.47q1.5,2.1,3.07,4.14a12.12,12.12,0,0,0,1.73,2q9.59,4.94,19.6,8.93,9.87,4.3,20.11,7.65A297.73,297.73,0,0,0,65.38,86.82,327.55,327.55,0,0,0,144,91.54a315.75,315.75,0,0,0,36-4.26,316.21,316.21,0,0,0,78-25c16.84-7.87,33.33-16.54,50.83-22.89a175.75,175.75,0,0,1,24.74-6.95,168.83,168.83,0,0,1,31.81-3,204.54,204.54,0,0,1,32,2.41,263.69,263.69,0,0,1,34.41,7.49c26.32,7.58,51.66,17.79,76.52,29.2a1.5,1.5,0,0,0-.22-1.16c-.56-1.33-1.15-2.64-1.78-3.93s-1.24-2.6-1.91-3.87A1.49,1.49,0,0,0,503.68,58.68Z"/></svg>