<svg id="Layer_1" data-name="Layer 1" xmlns="http://www.w3.org/2000/svg" viewBox="0 0 500 200"><defs><style>.cls-1,.cls-2{fill:#fff;}.cls-1{stroke:#fff;stroke-miterlimit:10;}.cls-2{opacity:0.11;}</style></defs><title>faded-loops-bottom</title><path class="cls-1" d="M.5,142.5c25.51,14.36,68,33.7,121,34,96.73.56,140.16-62.86,242-68,30.63-1.55,77.69,1.62,137,29v62H.5Z"/><path class="cls-2" d="M-1.5,144.63c25.42,10.63,51,21.6,77.71,28.49a262,262,0,0,0,46.6,8,207.19,207.19,0,0,0,22,.44,165,165,0,0,0,22.44-2.17,169.59,169.59,0,0,0,27-6.89,253.2,253.2,0,0,0,29.47-12.72c11-5.44,21.73-11.27,32.73-16.63a255.13,255.13,0,0,1,36.26-14.57,294,294,0,0,1,76.55-12.94,304.38,304.38,0,0,1,76.84,7,284.46,284.46,0,0,1,40.34,12l13,5.25q12.9,5.56,25.2,12.37c.83.44-.54-1.7-.37-1.44-.58-.91-1.45-2.68-2.47-3.2q-9.36-5.1-19.16-9.27-6.42-3-13.09-5.45A302.63,302.63,0,0,0,455.82,122,309.35,309.35,0,0,0,421,115.26a288.85,288.85,0,0,0-35.37-2.93A314,314,0,0,0,322,117.6a281.3,281.3,0,0,0-66.13,21.14c-14.2,6.59-28,14.07-42.14,20.7-16.17,7.56-33,13.32-50.7,16l-54.35,0q-8.13-1-16.14-2.72a293.06,293.06,0,0,1-32.1-8.31c-21.74-7-42.83-15.66-63.78-24.69-.77-.33.09,1.48.08,1.45.34.8.7,1.58,1.08,2.36A3.47,3.47,0,0,0-1.5,144.63Z"/><path class="cls-2" d="M-1.49,148.72c12.68,5.3,25.34,10.68,38.2,15.54a380.47,380.47,0,0,0,39.63,13c20.74,5.33,41.81,8.63,63.26,8.44a181.64,181.64,0,0,0,28.14-2.28A165.58,165.58,0,0,0,200,174.57a300.52,300.52,0,0,0,29.28-13.52c9.34-4.79,18.56-9.85,28-14.38a280.13,280.13,0,0,1,29.51-12.21,297.31,297.31,0,0,1,159.81-7.79,298.93,298.93,0,0,1,40.17,12.08L499.78,144q12.84,5.59,25.08,12.41c.68.35-.05-1.21,0-1.12-.31-.66-.83-2-1.54-2.4q-9.21-5.11-18.87-9.3-6.31-3-12.9-5.47a298.53,298.53,0,0,0-33.22-11A308.42,308.42,0,0,0,389.1,117c-46-1.45-92.43,7.6-133.91,27.75-15.86,7.7-31.24,16.53-47.52,23.34-6.59,2.76-13.28,5.27-20.11,7.39a103.12,103.12,0,0,1-33.15,4.83A97.14,97.14,0,0,1,126.7,182c-19.9-1.08-39.38-4.93-58.49-10.52C44,164.38,20.73,154.73-2.47,144.89c-.64-.28-.19,1-.17,1.12C-2.48,146.55-2.1,148.46-1.49,148.72Z"/><path class="cls-2" d="M-3,141.41C29.91,155.55,63.47,169.46,99,175.54c30.86,5.3,63,4.78,92.81-5.37,27.26-9.26,51.63-25.06,78.2-35.94a276.93,276.93,0,0,1,54.76-16c9.3-1.72,18.62-3,28-3.79q7-.76,14.1-.88,10.58-.58,21.16-.18l-.39,0,14.48.76-.39,0,14.42,1.42-.38,0,14.33,2.08-.38-.06,14.22,2.73-.38-.08,14.07,3.38-.38-.09,13.9,4-.37-.11L484.45,132l-.36-.12,13.45,5.31-.35-.14,13.17,6-.34-.16,12.87,6.6a2,2,0,0,0-.53-1.28Q521,146,519.51,144c-1-1.41-2-2.79-3-4.14a2,2,0,0,0-1-.94c-10.27-4.8-15.7-7.57-26.37-11.55a329.45,329.45,0,0,0-34.32-10.74,317.52,317.52,0,0,0-156.75.15,337.7,337.7,0,0,0-34.32,10.76c-10.82,4-21.35,9-31.78,14-15.14,7.18-30.23,14.51-46.16,19.8-19.81,6.58-41.34,8.84-62.12,7.52-46.19-2.95-90.21-19.83-131.83-39.09A2,2,0,0,0-7.88,131q.93,2.35,2,4.67t2.11,4.61A2,2,0,0,0-3,141.41Z"/><path class="cls-2" d="M-3,143.8c33,14.08,66.46,28,102,34,29.15,4.93,59.52,4.78,88-4,27-8.29,50.86-23.85,76.55-35.21a272.4,272.4,0,0,1,54.47-17.42c64.23-13.4,130.63-4.24,192.5,24l-.3-.15,12.8,6.62a1.51,1.51,0,0,0-.32-1.13c-.67-1.27-1.38-2.52-2.11-3.75s-1.46-2.46-2.24-3.66a1.49,1.49,0,0,0-.84-.83c-10.22-4.91-15.18-7.52-25.77-11.61-4.43-1.71-9.23-3.52-13.73-5A312.12,312.12,0,0,0,401,110.13a324.15,324.15,0,0,0-78.45,3.79,292.74,292.74,0,0,0-41.73,10.45,316.46,316.46,0,0,0-36.19,14.5c-17,8-33.55,16.77-51.17,23.23a177,177,0,0,1-25,7.12,170.42,170.42,0,0,1-32,3.09A204.56,204.56,0,0,1,104.28,170a262.21,262.21,0,0,1-34.54-7.45C43.45,155,18.11,144.84-6.7,133.43a1.53,1.53,0,0,0,.1,1.18c.43,1.39.88,2.77,1.37,4.13s1,2.73,1.53,4.07A1.5,1.5,0,0,0-3,143.8Z"/><path class="cls-2" d="M-1.1,144.43c21.2,8.75,42.34,17.73,64.28,24.5,19.47,6,39.48,10.39,59.84,11.83a202.23,202.23,0,0,0,27.85,0,159.87,159.87,0,0,0,27.71-4,183.16,183.16,0,0,0,26-8.59c8.26-3.43,16.3-7.29,24.26-11.36,16.74-8.55,33.21-17.8,50.89-24.31a284.61,284.61,0,0,1,62-15.28A298.89,298.89,0,0,1,412,116.5a303.17,303.17,0,0,1,34.65,5.65c27.59,6.21,53,16.47,78.42,29.8.66.35-.22-1.17-.12-1a5.67,5.67,0,0,0-1.74-1.93c-10-5.16-14.76-7.84-25.18-12.18-8.79-3.67-17.74-7.14-26.84-9.94a327.72,327.72,0,0,0-69.44-13.37,306.86,306.86,0,0,0-42.56-.25q-10.65.6-21.2,2.2-10.59,1.27-21,3.56a296.36,296.36,0,0,0-34.35,9.69,293.17,293.17,0,0,0-34,14.54c-7.78,3.88-15.47,7.92-23.23,11.83a264.28,264.28,0,0,1-28.78,13A161.74,161.74,0,0,1,165,176.36a195.57,195.57,0,0,1-27.46,2c-21.16.06-42.14-3.2-62.56-8.66-26.51-7.1-51.82-17.81-77.13-28.28-.6-.25-.13.92-.12,1C-2.12,142.91-1.67,144.19-1.1,144.43Z"/><path class="cls-2" d="M-3.15,140.82c27.51,11.88,55.24,23.28,84.41,30.41,23.67,5.78,48.23,8.58,72.57,6.36a166.2,166.2,0,0,0,32.79-6.3,224.49,224.49,0,0,0,29.58-11.8c9.58-4.45,18.89-9.45,28.31-14.2q9.24-4.72,18.69-9a263.84,263.84,0,0,1,26.92-10.19l-.32.09,14-4.08-.33.1q13.74-3.61,27.78-5.86t28.1-3.12a306.64,306.64,0,0,1,111.31,13.55q13.44,4.23,26.41,9.73t25.35,12.22c1.12.58-1.27-2.68-1-2.27-.9-1.27-1.81-2.53-2.75-3.77a10,10,0,0,0-1.57-1.86c-13-6.19-26-12.12-39.66-16.62a332.51,332.51,0,0,0-34.59-9.37,317.47,317.47,0,0,0-78.45-6.74,312.82,312.82,0,0,0-71,11c-9.29,2.57-18.46,5.64-27.49,9-10.85,4-21.39,9.05-31.81,14.07-15.24,7.33-30.39,14.84-46.42,20.33-19.92,6.81-41.64,9.26-62.61,8C78.74,167.88,34.66,151-7.2,131.81A1.25,1.25,0,0,0-7,132.87c.48,1.22,1,2.41,1.53,3.6C-5.13,137.34-4.26,140.34-3.15,140.82Z"/><path class="cls-2" d="M-2.5,145.55c23.3,9.93,46.68,19.65,71,26.69,20.75,6,42.34,10.23,64,10.47a200.12,200.12,0,0,0,27.69-1.51,173.11,173.11,0,0,0,27.32-5.8c10.1-3,20.1-7.44,29.57-12,7.94-3.84,15.76-7.91,23.6-11.94,7.69-4,15.41-8,23.34-11.41a283.34,283.34,0,0,1,33.78-12.17,304.33,304.33,0,0,1,34.66-7.76q10.49-1.72,21.07-2.43,10.56-1,21.17-1.1a326.72,326.72,0,0,1,70,7.22q10.33,2.2,20.42,5.36,10.17,2.83,20,6.61L498.27,141q12.94,5.56,25.28,12.36a1.92,1.92,0,0,0-.38-1.29q-1.12-2.21-2.35-4.36c-.8-1.44-1.62-2.87-2.48-4.28a1.92,1.92,0,0,0-.9-1c-12.94-6.2-25.87-12.12-39.52-16.63a331.18,331.18,0,0,0-34.47-9.4,339.72,339.72,0,0,0-35.31-5.55q-10.68-1.12-21.42-1.27-10.74-.48-21.47,0a331.73,331.73,0,0,0-70.65,10.88,280.73,280.73,0,0,0-40.67,14.41c-7.79,3.45-15.46,7.14-23.13,10.85-15.29,7.41-30.64,14.83-47,19.74a169.3,169.3,0,0,1-58.11,6.72c-46.36-2.63-90.64-19.39-132.41-38.7a2,2,0,0,0,.16,1.36q.73,2.41,1.57,4.79t1.73,4.73A2,2,0,0,0-2.5,145.55Z"/><path class="cls-2" d="M-2.19,143.2c21.26,8.51,42.32,17.57,64.23,24.33,19.47,6,39.49,10.39,59.86,11.82a202.23,202.23,0,0,0,27.85,0,161,161,0,0,0,27.72-4,182.91,182.91,0,0,0,26-8.62c8.25-3.44,16.28-7.31,24.23-11.39,16.71-8.56,33.17-17.81,50.84-24.32q13.43-4.94,27.24-8.64a171.19,171.19,0,0,1,41.73-6.16,147.8,147.8,0,0,1,34.94-2.85,304,304,0,0,1,69.58,9,296.88,296.88,0,0,1,33.5,10.38l13,5.28q12.87,5.6,25.15,12.41c.43.23.45,0,.47-.36s-1-1.58-1.35-1.76q-9.25-5.18-19-9.42-9.57-4.56-19.55-8.18a289.87,289.87,0,0,0-40.71-11.95,328.65,328.65,0,0,0-70.42-7.1,280.34,280.34,0,0,0-28.37,1.75A268.9,268.9,0,0,0,316.35,118,294.84,294.84,0,0,0,282,127.6a289.47,289.47,0,0,0-34,14.54c-7.76,3.88-15.43,7.94-23.17,11.87-9.31,4.73-18.9,9.47-28.72,13.07a160.31,160.31,0,0,1-31.58,8.42,193.12,193.12,0,0,1-27.5,2.09c-21.19.09-42.2-3.15-62.66-8.61a396.53,396.53,0,0,1-39.5-13c-12.59-4.83-25-10.07-37.59-14.88C-3.42,140.85-2.69,143-2.19,143.2Z"/><path class="cls-2" d="M-2.61,143.19c23.28,10,46.66,19.68,71,26.76,20.72,6,42.28,10.27,63.93,10.57A201,201,0,0,0,160,179.09a172.49,172.49,0,0,0,27.27-5.7c10.08-2.95,20.07-7.34,29.53-11.88,7.93-3.8,15.75-7.84,23.58-11.85s15.41-7.93,23.34-11.35a285.74,285.74,0,0,1,33.78-12.17,304.48,304.48,0,0,1,34.66-7.8q10.49-1.74,21.09-2.48,10.54-1.06,21.16-1.13a327.08,327.08,0,0,1,70,7q10.35,2.18,20.45,5.3,10.19,2.8,20.06,6.56L498,138.86q13,5.52,25.33,12.29a2.46,2.46,0,0,0-.57-1.45q-1.47-2.49-3-4.92c-1-1.63-2.08-3.24-3.17-4.83a2.47,2.47,0,0,0-1.07-1.14c-13.09-6.11-26.16-12-39.95-16.37a333.9,333.9,0,0,0-34.79-9.15,339.46,339.46,0,0,0-35.6-5.28q-10.77-1-21.58-1.11-10.8-.41-21.61.18a339.65,339.65,0,0,0-71,11.33c-22.15,6-43,15.26-63.69,25.09-15.09,7.18-30.24,14.34-46.32,19a168.08,168.08,0,0,1-57.32,6.16,246.2,246.2,0,0,1-26.52-3.14c-9.78-1.69-19.41-4-29-6.65a406.52,406.52,0,0,1-39-13.25c-12.62-4.91-25-10.32-37.27-16a2.62,2.62,0,0,0,.3,1.54q1,2.72,2.11,5.4t2.25,5.34A2.46,2.46,0,0,0-2.61,143.19Z"/><path class="cls-2" d="M-3.17,142.54c21.21,9,42.46,18,64.48,24.76A293.5,293.5,0,0,0,110,178.14a214.18,214.18,0,0,0,33.2,1.57,134,134,0,0,0,16.63-1.4,126.57,126.57,0,0,0,16.51-2.83,181.27,181.27,0,0,0,25.9-8.43c9.87-4,19.41-8.75,28.9-13.61,19.33-9.9,38.61-19.89,59.45-26.33A295.81,295.81,0,0,1,367.15,114a305.09,305.09,0,0,1,76.94,6.87,288.2,288.2,0,0,1,40.42,11.91l13,5.23q12.93,5.53,25.26,12.31c.88.46-.6-1.89-.43-1.6-.53-.85-1.09-1.69-1.67-2.52a4.52,4.52,0,0,0-1-1.2c-12.79-6.33-25.56-12.39-39.08-17q-13.46-4.63-27.24-8.2-10.33-2.69-20.89-4.41-10.49-2-21.13-3.12a335.59,335.59,0,0,0-35.58-1.77,303.45,303.45,0,0,0-70.7,8.61,308.2,308.2,0,0,0-34.23,10.55c-10.92,4-21.45,9.16-31.88,14.31-12.43,6.14-24.75,12.59-37.59,17.86A177.3,177.3,0,0,1,176.59,170a174.37,174.37,0,0,1-26.86,4.33,143.22,143.22,0,0,1-16.31.43,155.8,155.8,0,0,1-16.31-.76l-10.82-1.24A165.25,165.25,0,0,1,77,166.28a173,173,0,0,1-25.08-6.92q-9.86-3.21-19.51-7c-12.66-4.89-25.13-10.2-37.53-15.71-.81-.36.08,1.66.08,1.66.35.95.72,1.88,1.12,2.81A4.41,4.41,0,0,0-3.17,142.54Z"/><path class="cls-2" d="M-1.5,143C19.85,151.6,41,160.56,63,167.48a268.88,268.88,0,0,0,59.91,11.77,186.59,186.59,0,0,0,55.61-4.09c19.33-4.37,37.34-13.41,54.81-22.48,7.78-4,15.51-8.21,23.41-12a277.74,277.74,0,0,1,29.48-12.24,134.43,134.43,0,0,1,27.35-7.15,175.86,175.86,0,0,1,34.6-6.6,316.65,316.65,0,0,1,35.25-1.49,303.35,303.35,0,0,1,69.69,9.12,299.74,299.74,0,0,1,33.49,10.44l13,5.28q12.86,5.59,25.1,12.43c.37.2.45-.07.47-.36s-.81-1.29-1.1-1.45c-12.56-6.53-25.1-12.78-38.42-17.66a323.9,323.9,0,0,0-33.8-10.37,307.22,307.22,0,0,0-77.58-9,296.27,296.27,0,0,0-63.82,7.88,291.9,291.9,0,0,0-34.22,10.38,295.45,295.45,0,0,0-31.85,14.5c-15.47,7.94-30.76,16.24-47,22.61-20.33,8-42.69,11.4-64.49,10.77a259.18,259.18,0,0,1-57.27-8.5C48.83,162.4,23.61,151.09-2.07,141.2-2.7,141-2,142.85-1.5,143Z"/><path class="cls-2" d="M-3,144.24c23.28,10,46.68,19.7,71.05,26.75,20.72,6,42.29,10.23,63.94,10.49A199.46,199.46,0,0,0,159.59,180a173.38,173.38,0,0,0,27.26-5.75,200,200,0,0,0,29.51-11.95c7.92-3.82,15.73-7.87,23.56-11.89s15.4-7.94,23.32-11.37A283.43,283.43,0,0,1,297,126.88a299.91,299.91,0,0,1,34.67-7.79q10.49-1.74,21.09-2.46,10.56-1.06,21.18-1.12A326.64,326.64,0,0,1,444,122.64q10.37,2.19,20.46,5.33,10.18,2.84,20.07,6.6l13.07,5.23q13,5.55,25.33,12.34a2.16,2.16,0,0,0-.42-1.37c-.8-1.57-1.64-3.13-2.5-4.66s-1.73-3.08-2.64-4.59a2.13,2.13,0,0,0-.94-1.08c-13-6.16-26-12-39.75-16.5a329.37,329.37,0,0,0-34.64-9.28,340.08,340.08,0,0,0-35.47-5.42q-10.74-1.08-21.51-1.2-10.77-.44-21.55.1a336.06,336.06,0,0,0-70.83,11.1c-22.19,6-43.1,15.23-63.74,25.15-15.17,7.28-30.4,14.57-46.58,19.37a168.28,168.28,0,0,1-57.68,6.46c-46.28-2.76-90.43-19.58-132.13-38.84a2.19,2.19,0,0,0,.17,1.44q.78,2.58,1.66,5.11T-3.78,143A2.12,2.12,0,0,0-3,144.24Z"/></svg>