<svg xmlns="http://www.w3.org/2000/svg" viewBox="0 0 500 138.97"><defs><style>.cls-1,.cls-2{fill:#fff;}.cls-2{opacity:0.5;}</style></defs><title>leaves-bottom</title><g id="Layer_3" data-name="Layer 3"><path class="cls-1" d="M0,158.87s61.62-36.53,139.21-36.53,116.22,40.45,219.17,40.45S500,150.42,500,150.42V200H0Z" transform="translate(0 -61.03)"/><path class="cls-2" d="M315.33,94.8c-.45,1-.76,1.73-1.13,2.45a17.55,17.55,0,0,0-1.74,9c.09,1.67,0,3.34,0,5,0,.44,0,.89-.07,1.34a6.35,6.35,0,0,1-.55,2.49,5.06,5.06,0,0,0-.38,1.41c-.38,2-.73,4-1.11,6a58.82,58.82,0,0,1-1.64,6.53,19.85,19.85,0,0,1-2.67,5.35,35.23,35.23,0,0,1-9.59,9.34,22.65,22.65,0,0,1-5.65,2.61,39,39,0,0,1-11.77,2,24.57,24.57,0,0,1-6.55-.78c-2.39-.62-2.13-.72-4.85.27a4.29,4.29,0,0,0-1.43.92l-4.27,4-.94.85-.88-.62,7.14-7.22c-.15-.3-.25-.56-.39-.79-2.11-3.58-2.15-3.82-2.83-8.12a13.2,13.2,0,0,1,0-3.66,14.89,14.89,0,0,0,.07-4.27,4.81,4.81,0,0,1,.16-2.06,54.1,54.1,0,0,1,2-6.18c.4-1,.73-2,1.08-3a7.34,7.34,0,0,1,1.12-2,40.11,40.11,0,0,1,8.22-8.34,23.52,23.52,0,0,1,6.49-3.87c1.23-.56,2.45-1.12,3.66-1.7a6.81,6.81,0,0,1,2.83-.72,6.24,6.24,0,0,0,1.2-.19c.52-.12,1-.25,1.54-.41a38.52,38.52,0,0,1,7.7-1.24c3.13-.28,6.24-.75,9.35-1.15a6.34,6.34,0,0,0,2.91-1.2c.73-.52,1.45-1.06,2.18-1.59Z" transform="translate(0 -61.03)"/><path class="cls-1" d="M182.85,61c.59.91,1.05,1.58,1.46,2.27A17.32,17.32,0,0,0,191,69.63c1.45.83,2.81,1.8,4.21,2.72.38.24.74.51,1.1.78a6.21,6.21,0,0,1,1.8,1.81,5,5,0,0,0,1,1.07l4.46,4.19a57.81,57.81,0,0,1,4.62,4.9,19.74,19.74,0,0,1,3.07,5.12,35.41,35.41,0,0,1,2.7,13.12,23,23,0,0,1-.85,6.17,39.22,39.22,0,0,1-4.64,11,25.31,25.31,0,0,1-4.19,5.1c-1.81,1.67-1.76,1.4-2.39,4.23a4.06,4.06,0,0,0,0,1.7c.36,1.93.73,3.85,1.1,5.78.07.39.13.79.21,1.24l-1,.41c-.75-3.34-1.49-6.6-2.24-9.91-.33,0-.6-.09-.87-.1-4.15-.15-4.37-.25-8.37-2a13,13,0,0,1-3.07-2,14.87,14.87,0,0,0-3.55-2.37,4.76,4.76,0,0,1-1.65-1.24,56.57,56.57,0,0,1-4.15-5c-.61-.87-1.28-1.69-1.93-2.52a7.63,7.63,0,0,1-1.11-2,40.32,40.32,0,0,1-2.6-11.42,23.65,23.65,0,0,1,.25-7.55c.19-1.34.37-2.67.53-4a6.75,6.75,0,0,1,.93-2.76,7.4,7.4,0,0,0,.48-1.12c.18-.5.34-1,.49-1.51a37.56,37.56,0,0,1,3.11-7.16c1.44-2.79,2.72-5.66,4.06-8.49a6.39,6.39,0,0,0,.57-3.11c-.05-.89-.12-1.79-.17-2.68C182.87,61.78,182.87,61.55,182.85,61Z" transform="translate(0 -61.03)"/><path class="cls-1" d="M278.54,120.77a2,2,0,0,0,1.18,1.46,1.22,1.22,0,0,0,1.16,0l1.06-.61,1.19-.74a2.3,2.3,0,0,1,.36.54c.12.34.18.71.29,1.13a3.75,3.75,0,0,0,.75,0,39.13,39.13,0,0,1,5.18-.6c.41,0,.81-.09,1.22-.12a4.48,4.48,0,0,1,1.27,0,2.76,2.76,0,0,1-.25.66,20.58,20.58,0,0,1-1.26,1.69A50.92,50.92,0,0,0,287,128.9c-.13.19-.24.38-.36.57a3.22,3.22,0,0,0-.56,2.54c-.29.2-.57.38-.84.58a8.64,8.64,0,0,0-.95.77,1.13,1.13,0,0,0-.2,1.68,11.19,11.19,0,0,0,.91,1.26c.19.26.42.5.66.78a8.84,8.84,0,0,1-1.41,1,8.25,8.25,0,0,0-2.37,2,2,2,0,0,1-.92.58,7.83,7.83,0,0,0-2.08,1.28,4.18,4.18,0,0,0-1,1.3,1.4,1.4,0,0,0,.12,1.58,7.78,7.78,0,0,0,1.26,1.24,14.67,14.67,0,0,0,3.2,1.77,2.43,2.43,0,0,1,1,.66c.32.4.68.78.58,1.35l1.46.75c-1.92.27-3.64.5-5.35.75-2.5.36-5,.74-7.48,1.11a1.91,1.91,0,0,0-.33.06c-.38.11-.57.43-.38.76.31.55.69,1.05,1,1.57.2.3.56.48.66.93-1.14-.19-2.23-.39-3.33-.55-.88-.13-1.76-.23-2.65-.32a5,5,0,0,0-.77,0,.85.85,0,0,0-.87.71c0,.18,0,.37-.08.65a3.22,3.22,0,0,1-.46-.35q-1.81-1.87-3.62-3.77A14,14,0,0,1,261,151c-1.65-2.15-3.31-4.29-4.91-6.47a2.31,2.31,0,0,0-1.65-1l-1.53-.23a2,2,0,0,0-.67.88q-4.09,6.94-8.18,13.91c-.56,1-1.12,1.92-1.72,2.85a1.9,1.9,0,0,0-.36,1.57,2.08,2.08,0,0,1,0,.56.89.89,0,0,1-.85.39c-.06-.05-.14-.09-.15-.15a6.55,6.55,0,0,1-.2-1c-.11-1.43-.09-1.42,1-2.4a4.56,4.56,0,0,0,.8-1.05q3.69-6.15,7.35-12.33l1.65-2.77c.12-.22.23-.45.37-.72-.3-.18-.56-.31-.79-.48a6.4,6.4,0,0,1-.93-.78,1.45,1.45,0,0,0-1.18-.52c-1.33.09-2.67.11-4,.3a15.6,15.6,0,0,0-4.35,1.31,5.19,5.19,0,0,1-2.81.47,10.72,10.72,0,0,0-2.54.2c-.33,0-.66.12-1,.19a3.43,3.43,0,0,1-2.88-.38.3.3,0,0,1,.24-.42c.9-.18,1.08-.8,1-1.58l0-.23a1.44,1.44,0,0,0-.87-.63,13.45,13.45,0,0,0-1.44-.57,1,1,0,0,1-.77-1.06c0-.34,0-.67,0-1-.23-.18-.45-.38-.7-.54-.46-.3-.92-.61-1.41-.88a37.53,37.53,0,0,1-6.18-4.52,1.89,1.89,0,0,1-.24-.33,7.93,7.93,0,0,1,1.23-.13c.36-.06.73-.08,1.1-.15a6.83,6.83,0,0,0,1.49-.4,15.42,15.42,0,0,1,2.72-1,14.79,14.79,0,0,0,3.75-1.66,4.73,4.73,0,0,0,.86-.69.78.78,0,0,0,.13-1,4.87,4.87,0,0,0-.64-.9,13.84,13.84,0,0,1-2.58-4.38,1.72,1.72,0,0,1-.07-.21c-.14-.49.06-.75.54-.65s.78.21,1.18.3a2.11,2.11,0,0,0,.66,0,.49.49,0,0,0,.42-.56,5.1,5.1,0,0,0-.39-.9c-.18-.36-.52-.64-.52-1s.5-.35.76-.46a1.1,1.1,0,0,0,.8-1.29,5.69,5.69,0,0,0-.27-1.08c-.08-.28-.22-.55-.32-.83-.19-.55-.17-1,.57-1.17a1.2,1.2,0,0,0,.31-.13.52.52,0,0,0,.27-.66,5.83,5.83,0,0,0-.23-.66,48.84,48.84,0,0,0,1-5.42c.3-1.57.62-3.13.94-4.69a1.92,1.92,0,0,1,.25-.44c.12.66.21,1.2.31,1.74,0,.22.11.43.17.65a2.33,2.33,0,0,0,2,1.93l.19.65a2.35,2.35,0,0,0,1.48,1.56,1.49,1.49,0,0,0,1.74-.32c.18-.18.33-.38.51-.58.39.23.42.64.52,1a2.29,2.29,0,0,0,.9,1.23c.48.34,1,.69,1.48,1s.64.27,1.14-.22c.07-.07.16-.13.27-.22,1,2.25,1.79,4.59,3.22,6.61a2.33,2.33,0,0,0,.43.38,1.43,1.43,0,0,0,1.15-1.22c.17-.83.28-1.68.42-2.52s.3-1.68.47-2.51a5.79,5.79,0,0,1,.3-.82c.13.34.19.56.29.75a.71.71,0,0,0,1.1.33,2.83,2.83,0,0,0,1.39-1.66c.22-.79.43-1.58.65-2.36.09-.36.2-.71.33-1.15a2.33,2.33,0,0,1,.48.32c.21.21.37.47.58.67a1,1,0,0,0,1.58,0,3.14,3.14,0,0,0,.87-1.28c.18-.44.37-.87.53-1.27.42-.14.62.15.87.28a1,1,0,0,0,1.39-.21,2.22,2.22,0,0,0,.28-.33,2.29,2.29,0,0,1,1.41-1.17c.25-.06.47-.36.63-.6.62-.92,1.2-1.87,1.84-2.78s1.18-1.52,1.78-2.27a3.59,3.59,0,0,1,.5-.42c.46,2.29.75,4.48,1.14,6.66s.7,4.38,1.21,6.48c.48.38.89-.19,1.34.08s.71-.44,1.2-.06c-.06.24-.1.53-.19.79-.2.56-.45,1.1-.64,1.66a4,4,0,0,0-.23,1c-.08.81.28,1.16,1.11,1.12.33,0,.65-.07.94-.1a.44.44,0,0,1,.12.63c-.24.5-.51,1-.76,1.49s-.41.87-.6,1.31a1.37,1.37,0,0,0,.4,1.7l.53.46c-.32.33-.62.6-.89.91-.75.87-1.52,1.73-2.22,2.64a3.91,3.91,0,0,0-.6,1.29.65.65,0,0,0,.72.86,2.45,2.45,0,0,0,.85-.19,10.29,10.29,0,0,0,1.78-.91c1.32-.9,2.59-1.86,3.88-2.79C277.66,121.38,278,121.13,278.54,120.77Z" transform="translate(0 -61.03)"/><path class="cls-1" d="M388.25,137.37a1.24,1.24,0,0,0,1.06.43.75.75,0,0,0,.62-.35c.12-.22.25-.43.38-.64l.4-.75a1.34,1.34,0,0,1,.36.18,6.07,6.07,0,0,1,.49.51,2.11,2.11,0,0,0,.39-.23,23.39,23.39,0,0,1,2.57-1.87l.61-.43a2.88,2.88,0,0,1,.67-.39,1.91,1.91,0,0,1,.07.43c0,.42-.08.85-.16,1.27a29.51,29.51,0,0,0-.53,3.62l0,.41a2,2,0,0,0,.47,1.51c-.1.2-.19.38-.27.56a4.48,4.48,0,0,0-.27.69.69.69,0,0,0,.39,1,7.34,7.34,0,0,0,.86.39c.18.08.37.14.59.22a4.83,4.83,0,0,1-.46.94,5.11,5.11,0,0,0-.65,1.77,1.27,1.27,0,0,1-.32.59,4.8,4.8,0,0,0-.72,1.29,2.65,2.65,0,0,0-.15,1,.85.85,0,0,0,.54.8,4.56,4.56,0,0,0,1,.28,8.68,8.68,0,0,0,2.22,0,1.43,1.43,0,0,1,.74.05c.29.12.59.21.71.54l1,0-2.61,2-3.64,2.83a.93.93,0,0,0-.15.13.31.31,0,0,0,0,.52c.33.2.68.35,1,.52s.45.08.63.29c-.66.25-1.3.47-1.92.71s-1,.41-1.51.62a3.3,3.3,0,0,0-.41.23.51.51,0,0,0-.24.64,2.16,2.16,0,0,0,.15.36,1.61,1.61,0,0,1-.35,0c-1-.3-2-.6-3.05-.92a6.39,6.39,0,0,1-.83-.31c-1.52-.64-3-1.28-4.54-1.95a1.41,1.41,0,0,0-1.17,0l-.88.34a1.3,1.3,0,0,0-.09.67c-.05,3.27-.11,6.55-.16,9.82,0,.68,0,1.36-.06,2a1.14,1.14,0,0,0,.28.94,1.69,1.69,0,0,1,.17.3.55.55,0,0,1-.33.46c-.05,0-.11,0-.13,0a2.88,2.88,0,0,1-.39-.46c-.49-.72-.48-.72-.22-1.56a2.65,2.65,0,0,0,.11-.79c.08-2.92.14-5.83.21-8.74,0-.66,0-1.31,0-2,0-.15,0-.3,0-.49a3.45,3.45,0,0,1-.57,0,4.34,4.34,0,0,1-.72-.13.86.86,0,0,0-.78.08c-.68.44-1.38.86-2,1.35a9.54,9.54,0,0,0-1.91,2,3.17,3.17,0,0,1-1.35,1.09,6.78,6.78,0,0,0-1.29.87c-.16.12-.31.26-.46.39a2.07,2.07,0,0,1-1.64.66.18.18,0,0,1,0-.29c.42-.37.33-.75.06-1.14l-.08-.12a1,1,0,0,0-.65-.07c-.32,0-.63.07-.94.13a.59.59,0,0,1-.73-.33c-.08-.18-.19-.35-.3-.55l-.53-.08c-.34,0-.68,0-1,0a22.53,22.53,0,0,1-4.63-.55,1.21,1.21,0,0,1-.23-.1,3.85,3.85,0,0,1,.62-.43c.17-.15.36-.27.53-.42a3.45,3.45,0,0,0,.67-.65,9.79,9.79,0,0,1,1.16-1.33,9.14,9.14,0,0,0,1.49-2,2.78,2.78,0,0,0,.25-.62.46.46,0,0,0-.24-.58,2.63,2.63,0,0,0-.61-.29,8.31,8.31,0,0,1-2.67-1.55l-.11-.09c-.22-.22-.19-.41.09-.51l.72-.19a1.56,1.56,0,0,0,.37-.17.29.29,0,0,0,.05-.42,2.92,2.92,0,0,0-.48-.37c-.2-.13-.46-.18-.58-.39s.16-.33.26-.47a.66.66,0,0,0,0-.92,3.56,3.56,0,0,0-.46-.49c-.13-.13-.29-.23-.42-.35s-.39-.48-.05-.79a.48.48,0,0,0,.12-.16.31.31,0,0,0-.05-.43,3,3,0,0,0-.32-.28,29.12,29.12,0,0,0-1.09-3.18q-.46-1.38-.9-2.76a1,1,0,0,1,0-.31l.69.83.29.29a1.42,1.42,0,0,0,1.65.42l.29.29a1.47,1.47,0,0,0,1.25.38.91.91,0,0,0,.83-.69c0-.15.06-.31.09-.46.28,0,.42.21.57.36a1.44,1.44,0,0,0,.85.38c.36,0,.72.07,1.08.08s.41-.05.53-.46c0-.06.05-.12.08-.2a24.19,24.19,0,0,0,3.69,2.54,1.14,1.14,0,0,0,.34.07.88.88,0,0,0,.25-1c-.16-.49-.36-1-.53-1.46s-.35-1-.51-1.48a4.83,4.83,0,0,1-.09-.52,4.41,4.41,0,0,0,.38.31.44.44,0,0,0,.69-.15,1.74,1.74,0,0,0,.23-1.3c-.11-.48-.24-1-.36-1.44-.06-.22-.1-.44-.17-.72a1.62,1.62,0,0,1,.35,0c.18.05.34.14.51.18a.64.64,0,0,0,.85-.46,2,2,0,0,0,.07-.94c0-.28-.07-.57-.1-.83.18-.2.37-.11.54-.11a.61.61,0,0,0,.68-.53,1.09,1.09,0,0,0,.05-.26,1.41,1.41,0,0,1,.4-1,.83.83,0,0,0,.15-.51c.06-.67.07-1.35.14-2s.17-1.16.27-1.74a1.85,1.85,0,0,1,.13-.37c.94,1.07,1.75,2.15,2.61,3.18s1.68,2.12,2.58,3.08c.37.05.41-.37.73-.36s.25-.45.62-.39c0,.14.11.31.14.47.06.36.09.72.16,1.08a2.51,2.51,0,0,0,.16.58c.2.45.5.53.93.26l.47-.33c.21,0,.24.16.25.29,0,.34,0,.68.05,1s0,.58.07.87a.83.83,0,0,0,.72.79l.42.08c-.07.27-.15.51-.2.75-.14.69-.29,1.37-.39,2.06a2.34,2.34,0,0,0,.07.87.39.39,0,0,0,.64.24,1.72,1.72,0,0,0,.4-.36,6.8,6.8,0,0,0,.67-1c.43-.87.81-1.76,1.22-2.65Z" transform="translate(0 -61.03)"/><path class="cls-2" d="M335.77,113.84c.41.62.73,1.07,1,1.54a11.94,11.94,0,0,0,4.62,4.27c1,.55,1.95,1.21,2.91,1.82.26.16.51.35.76.53a4.24,4.24,0,0,1,1.25,1.21,3.4,3.4,0,0,0,.69.73l3.1,2.83a40.15,40.15,0,0,1,3.21,3.31,13.57,13.57,0,0,1,2.15,3.48,24.21,24.21,0,0,1,2,9,15.52,15.52,0,0,1-.52,4.23,26.89,26.89,0,0,1-3.07,7.58,16.83,16.83,0,0,1-2.82,3.53c-1.22,1.17-1.19,1-1.59,2.92a2.71,2.71,0,0,0,0,1.17c.27,1.31.54,2.63.8,3.94.06.27.11.54.16.85l-.68.29-1.63-6.76c-.22,0-.41-.06-.6-.06a10.85,10.85,0,0,1-5.74-1.29,8.86,8.86,0,0,1-2.13-1.33A10.37,10.37,0,0,0,337.2,156a3.35,3.35,0,0,1-1.15-.83,38.63,38.63,0,0,1-2.88-3.38c-.43-.59-.9-1.15-1.35-1.71a5.39,5.39,0,0,1-.78-1.38,27.64,27.64,0,0,1-1.89-7.8,16.1,16.1,0,0,1,.1-5.18c.11-.91.22-1.83.32-2.75a4.77,4.77,0,0,1,.61-1.9,4,4,0,0,0,.32-.77c.12-.34.22-.69.32-1a26,26,0,0,1,2.06-4.93c1-1.92,1.81-3.9,2.7-5.86a4.31,4.31,0,0,0,.36-2.13c-.05-.61-.1-1.22-.14-1.84C335.78,114.35,335.78,114.19,335.77,113.84Z" transform="translate(0 -61.03)"/><path class="cls-1" d="M411.4,135.74c.07.37.12.64.16.92a6.07,6.07,0,0,0,1.28,2.91c.35.46.65,1,1,1.43l.24.4a2.12,2.12,0,0,1,.33.82,1.66,1.66,0,0,0,.17.47c.29.65.58,1.29.86,1.94a18.41,18.41,0,0,1,.82,2.18,6.71,6.71,0,0,1,.29,2,12.22,12.22,0,0,1-.9,4.55,7.87,7.87,0,0,1-1.1,1.85,13.53,13.53,0,0,1-3,2.89,8.64,8.64,0,0,1-2,1.06c-.79.29-.74.21-1.32,1a1.42,1.42,0,0,0-.23.54l-.42,2c0,.14-.07.27-.1.43h-.38l.62-3.46-.27-.15a5.46,5.46,0,0,1-2.4-1.75,5,5,0,0,1-.71-1,5.08,5.08,0,0,0-.82-1.23,1.74,1.74,0,0,1-.36-.62,19.57,19.57,0,0,1-.65-2.14c-.08-.36-.18-.71-.28-1.07a2.68,2.68,0,0,1-.07-.8,13.6,13.6,0,0,1,.7-4,8.09,8.09,0,0,1,1.09-2.37c.24-.4.48-.8.71-1.21a2.27,2.27,0,0,1,.66-.75,2.2,2.2,0,0,0,.31-.3l.36-.41a12.79,12.79,0,0,1,1.95-1.87c.83-.69,1.63-1.44,2.44-2.16a2.21,2.21,0,0,0,.59-.91c.11-.3.21-.59.31-.88Z" transform="translate(0 -61.03)"/><path class="cls-1" d="M139.38,88.82a1.69,1.69,0,0,0,1.34.74,1,1,0,0,0,.88-.37c.21-.26.42-.52.61-.79s.43-.59.67-.93a2,2,0,0,1,.44.3c.2.23.36.48.57.77a3.15,3.15,0,0,0,.56-.24,33.21,33.21,0,0,1,3.74-2.07c.29-.14.58-.31.88-.47a3.85,3.85,0,0,1,1-.4,3.85,3.85,0,0,1,0,.58,15.72,15.72,0,0,1-.43,1.67,40.36,40.36,0,0,0-1.31,4.73c0,.17-.07.35-.09.53a2.65,2.65,0,0,0,.36,2.1c-.16.24-.31.46-.45.69a8.4,8.4,0,0,0-.48.88.94.94,0,0,0,.37,1.34,9.79,9.79,0,0,0,1.08.67c.23.13.47.25.74.38a7.49,7.49,0,0,1-.76,1.18,6.86,6.86,0,0,0-1.17,2.24,1.59,1.59,0,0,1-.52.73,6.38,6.38,0,0,0-1.17,1.61,3.29,3.29,0,0,0-.37,1.3,1.12,1.12,0,0,0,.58,1.15,6.43,6.43,0,0,0,1.33.55,11.89,11.89,0,0,0,3,.35,1.92,1.92,0,0,1,1,.19c.37.2.76.37.86.84l1.33.1-3.81,2.23-5.3,3.16a1.82,1.82,0,0,0-.23.15.42.42,0,0,0,0,.7c.4.31.84.58,1.27.86.24.16.57.18.79.49-.93.21-1.81.4-2.69.62-.7.17-1.4.38-2.1.58a3.32,3.32,0,0,0-.59.24.67.67,0,0,0-.43.8,4.6,4.6,0,0,0,.14.51,3.13,3.13,0,0,1-.46-.11l-3.91-1.73a10.33,10.33,0,0,1-1-.55c-1.91-1.12-3.83-2.21-5.72-3.37a1.86,1.86,0,0,0-1.55-.22l-1.23.3a1.63,1.63,0,0,0-.23.88l-1.86,13c-.13.9-.26,1.8-.42,2.69a1.57,1.57,0,0,0,.22,1.3,1.77,1.77,0,0,1,.18.42.73.73,0,0,1-.52.56c-.06,0-.14,0-.17-.07a6.07,6.07,0,0,1-.44-.68c-.53-1-.52-1,0-2.11a4.12,4.12,0,0,0,.29-1q.87-5.8,1.72-11.6c.13-.87.26-1.73.38-2.6,0-.21,0-.41.07-.66-.29,0-.53-.06-.75-.12a6.17,6.17,0,0,1-1-.3,1.18,1.18,0,0,0-1,0c-1,.48-2,.92-2.92,1.47a12.47,12.47,0,0,0-2.88,2.34,4.31,4.31,0,0,1-2,1.23,8.74,8.74,0,0,0-1.86.93c-.23.14-.45.3-.68.45a2.77,2.77,0,0,1-2.3.6.25.25,0,0,1,.06-.39c.62-.41.56-.93.27-1.5l-.09-.17a1.24,1.24,0,0,0-.86-.2c-.42,0-.84,0-1.26,0a.77.77,0,0,1-.91-.56c-.09-.26-.21-.5-.32-.78a6.06,6.06,0,0,0-.7-.19c-.44-.09-.89-.18-1.34-.23a31.05,31.05,0,0,1-6.08-1.5,3.17,3.17,0,0,1-.27-.17,5.12,5.12,0,0,1,.88-.48c.26-.16.54-.29.78-.46a5.5,5.5,0,0,0,1-.77,12.43,12.43,0,0,1,1.76-1.56,11.78,11.78,0,0,0,2.31-2.42,3.4,3.4,0,0,0,.44-.79.63.63,0,0,0-.22-.81,4,4,0,0,0-.76-.48,11.29,11.29,0,0,1-3.31-2.51l-.12-.14c-.25-.33-.18-.58.21-.66s.66-.08,1-.14a1.89,1.89,0,0,0,.51-.16.4.4,0,0,0,.14-.56,4.31,4.31,0,0,0-.57-.56c-.25-.21-.59-.32-.72-.61s.28-.42.44-.59a.9.9,0,0,0,.2-1.22,4.68,4.68,0,0,0-.53-.73c-.16-.19-.34-.35-.5-.53-.32-.36-.44-.71.06-1.06a.69.69,0,0,0,.19-.19.43.43,0,0,0,0-.58,4.88,4.88,0,0,0-.38-.43,40.19,40.19,0,0,0-.92-4.41c-.26-1.28-.5-2.56-.74-3.84a1.77,1.77,0,0,1,0-.41l.78,1.22c.1.15.22.29.33.43a1.89,1.89,0,0,0,2.13.84l.34.44a1.93,1.93,0,0,0,1.6.71,1.19,1.19,0,0,0,1.21-.78,5.89,5.89,0,0,0,.21-.59c.37,0,.52.35.7.57a1.91,1.91,0,0,0,1.06.65c.47.11.94.21,1.42.28s.56,0,.79-.52c0-.08.09-.15.14-.25a33.9,33.9,0,0,0,4.48,4,3,3,0,0,0,.45.15,1.2,1.2,0,0,0,.49-1.28c-.13-.68-.31-1.36-.46-2s-.3-1.36-.43-2a4.67,4.67,0,0,1,0-.71c.21.22.31.36.45.48a.59.59,0,0,0,.94-.09,2.31,2.31,0,0,0,.53-1.69c-.07-.67-.16-1.33-.24-2,0-.29-.07-.59-.11-1a3,3,0,0,1,.47.09c.22.1.42.24.64.33a.85.85,0,0,0,1.2-.48,2.6,2.6,0,0,0,.26-1.23c0-.39,0-.78,0-1.13.27-.24.51-.08.74-.06a.8.8,0,0,0,1-.58,2.24,2.24,0,0,0,.11-.34,1.91,1.91,0,0,1,.7-1.33,1.09,1.09,0,0,0,.29-.64c.19-.89.32-1.79.53-2.67s.41-1.52.64-2.27a3,3,0,0,1,.24-.47c1.06,1.58,2,3.15,2.93,4.67s1.89,3.1,2.93,4.52c.47.14.61-.42,1-.35s.4-.55.89-.41a5.92,5.92,0,0,1,.1.65c0,.48,0,1,0,1.45a3.7,3.7,0,0,0,.13.81c.19.63.57.79,1.19.5.24-.11.47-.26.68-.37.27.07.29.26.28.44,0,.45-.08.91-.11,1.36s0,.79,0,1.18A1.1,1.1,0,0,0,135,89.4l.54.18c-.14.35-.29.65-.39,1-.3.88-.61,1.77-.86,2.68a3.22,3.22,0,0,0-.06,1.16.53.53,0,0,0,.81.42,2,2,0,0,0,.6-.4,9.64,9.64,0,0,0,1.06-1.24c.71-1.09,1.37-2.21,2.06-3.31C138.91,89.55,139.1,89.25,139.38,88.82Z" transform="translate(0 -61.03)"/><path class="cls-2" d="M45.43,84.47a2.17,2.17,0,0,0,2-.3,1.32,1.32,0,0,0,.63-1.1c0-.44,0-.88,0-1.32s0-1,0-1.52a2.87,2.87,0,0,1,.7,0c.39.08.77.21,1.22.35a3.88,3.88,0,0,0,.4-.71,41.19,41.19,0,0,1,2.27-5.19c.2-.39.36-.81.55-1.21a5.44,5.44,0,0,1,.69-1.19,3.78,3.78,0,0,1,.48.59,21.47,21.47,0,0,1,.89,2.11,56.47,56.47,0,0,0,2.44,6c.1.22.22.43.33.65a3.51,3.51,0,0,0,2.08,1.91c0,.39,0,.75.08,1.1A9.41,9.41,0,0,0,60.38,86a1.24,1.24,0,0,0,1.46,1.12,15.67,15.67,0,0,0,1.68-.17c.35,0,.7-.12,1.09-.19a9.36,9.36,0,0,1,.16,1.86,9,9,0,0,0,.57,3.31,2.06,2.06,0,0,1,0,1.18,8.73,8.73,0,0,0,.06,2.65,4.44,4.44,0,0,0,.67,1.66,1.48,1.48,0,0,0,1.54.75,8.59,8.59,0,0,0,1.85-.5,15.29,15.29,0,0,0,3.41-2A2.69,2.69,0,0,1,74.08,95a1.8,1.8,0,0,1,1.58.19l1.5-1c-.8,2-1.52,3.68-2.22,5.43-1,2.53-2,5.07-3,7.61,0,.11-.09.23-.12.34-.1.42.09.77.51.78.68,0,1.36-.07,2-.12.38,0,.75-.27,1.23-.11-.81,1-1.59,1.88-2.34,2.82-.6.75-1.17,1.53-1.75,2.3A6.65,6.65,0,0,0,71,114a.9.9,0,0,0,.2,1.2,6.19,6.19,0,0,0,.56.42,3.26,3.26,0,0,1-.58.25c-1.84.45-3.68.9-5.52,1.33a13.75,13.75,0,0,1-1.54.26c-2.92.37-5.83.77-8.75,1.07a2.5,2.5,0,0,0-1.81,1l-1.06,1.31A2.21,2.21,0,0,0,53,122q4.29,7.63,8.57,15.27c.59,1.05,1.19,2.1,1.74,3.18a2.05,2.05,0,0,0,1.27,1.19,2.17,2.17,0,0,1,.53.3,1,1,0,0,1-.1,1c-.08,0-.17.09-.23.07a7.13,7.13,0,0,1-1-.36c-1.41-.67-1.39-.68-1.74-2.21a5.24,5.24,0,0,0-.54-1.32q-3.75-6.82-7.54-13.63c-.56-1-1.13-2-1.7-3.06-.13-.23-.29-.46-.47-.74-.33.18-.6.36-.88.48a8.11,8.11,0,0,1-1.25.45,1.54,1.54,0,0,0-1.12.82c-.65,1.29-1.36,2.56-1.9,3.9a16.77,16.77,0,0,0-1.15,4.79,5.72,5.72,0,0,1-1.1,2.9,11.34,11.34,0,0,0-1.2,2.48c-.14.33-.24.68-.36,1A3.74,3.74,0,0,1,40.88,141a.34.34,0,0,1-.26-.46c.32-.94-.16-1.44-.93-1.81l-.23-.1a1.63,1.63,0,0,0-1.07.48,16.29,16.29,0,0,0-1.32,1,1.05,1.05,0,0,1-1.42.14c-.3-.2-.62-.37-1-.57-.3.12-.61.22-.89.36-.54.27-1.08.53-1.6.84a40.61,40.61,0,0,1-7.62,3.32,1.86,1.86,0,0,1-.43.05,7.7,7.7,0,0,1,.54-1.22c.14-.38.33-.74.46-1.12a7.28,7.28,0,0,0,.44-1.61,16.92,16.92,0,0,1,.59-3.08,16,16,0,0,0,.5-4.42,5.35,5.35,0,0,0-.18-1.19.84.84,0,0,0-.89-.67,4.8,4.8,0,0,0-1.19.11,15.23,15.23,0,0,1-5.51,0l-.24-.05c-.54-.14-.67-.47-.31-.86s.63-.62.92-1a2.23,2.23,0,0,0,.41-.59.52.52,0,0,0-.29-.69,5.5,5.5,0,0,0-1.06-.14c-.44,0-.88.14-1.26-.07s0-.66,0-1a1.18,1.18,0,0,0-.77-1.45,6,6,0,0,0-1.16-.35c-.31-.07-.63-.09-1-.15-.62-.12-1-.39-.79-1.17a1.12,1.12,0,0,0,0-.36.55.55,0,0,0-.47-.61,6.9,6.9,0,0,0-.74-.15,52.94,52.94,0,0,0-4.53-3.91Q5.76,117,3.83,115.21c-.11-.09-.15-.25-.28-.47l1.8.66c.23.08.47.13.7.19A2.53,2.53,0,0,0,9,114.76l.71.18A2.59,2.59,0,0,0,12,114.4a1.61,1.61,0,0,0,.65-1.8c-.07-.27-.17-.53-.26-.79.43-.25.82,0,1.19,0a2.53,2.53,0,0,0,1.65-.16c.58-.27,1.17-.54,1.72-.86s.6-.45.42-1.19a3,3,0,0,1-.05-.37c2.66.26,5.28.83,8,.6a3.43,3.43,0,0,0,.59-.2,1.55,1.55,0,0,0-.52-1.74c-.69-.62-1.42-1.19-2.13-1.78s-1.41-1.2-2.1-1.81a8.75,8.75,0,0,1-.6-.73,7.08,7.08,0,0,0,.86.14.78.78,0,0,0,.92-.85,3.09,3.09,0,0,0-.81-2.21c-.61-.64-1.24-1.27-1.85-1.9-.28-.28-.55-.58-.9-.94a4.13,4.13,0,0,1,.56-.28c.31-.08.64-.08,1-.18a1.12,1.12,0,0,0,.88-1.46,3.62,3.62,0,0,0-.72-1.52l-.9-1.19c.09-.47.47-.49.73-.66a1.07,1.07,0,0,0,.57-1.41,2.51,2.51,0,0,0-.16-.46,2.49,2.49,0,0,1-.33-2,1.49,1.49,0,0,0-.21-.91c-.52-1.09-1.11-2.14-1.6-3.24-.43-.95-.79-1.94-1.16-2.92a3.52,3.52,0,0,1-.12-.69c2.4.82,4.61,1.75,6.86,2.57s4.49,1.74,6.74,2.41c.62-.24.31-.94.81-1.21s0-.91.6-1.16c.19.19.44.38.63.61.41.49.79,1,1.21,1.51a4.56,4.56,0,0,0,.78.74c.72.52,1.25.38,1.66-.43.17-.31.29-.65.42-.93a.48.48,0,0,1,.66.23c.33.5.64,1,1,1.52s.59.86.9,1.28a1.48,1.48,0,0,0,1.81.56l.72-.24c.13.48.23.91.37,1.32.4,1.18.79,2.37,1.26,3.52a4.12,4.12,0,0,0,.88,1.28.7.7,0,0,0,1.19-.21,2.46,2.46,0,0,0,.3-.9,12.09,12.09,0,0,0,.12-2.16c-.13-1.73-.33-3.45-.5-5.17C45.52,85.63,45.49,85.15,45.43,84.47Z" transform="translate(0 -61.03)"/><path class="cls-1" d="M318.5,127.68c.08.5.15.87.19,1.24a8.13,8.13,0,0,0,1.64,4c.46.63.86,1.3,1.28,2,.11.18.22.36.32.54a2.78,2.78,0,0,1,.42,1.11,2.63,2.63,0,0,0,.22.65l1.11,2.63a28.22,28.22,0,0,1,1,3,9.2,9.2,0,0,1,.33,2.76,16.63,16.63,0,0,1-1.33,6.11,10.75,10.75,0,0,1-1.54,2.47,18.37,18.37,0,0,1-4.06,3.81,11.47,11.47,0,0,1-2.76,1.37c-1.08.38-1,.27-1.82,1.36a2.12,2.12,0,0,0-.32.72c-.21.89-.41,1.78-.62,2.67q-.08.27-.15.57H312l.92-4.65-.35-.21a7.32,7.32,0,0,1-3.19-2.44,5.8,5.8,0,0,1-.93-1.42,7.1,7.1,0,0,0-1.07-1.69,2.17,2.17,0,0,1-.47-.84,26.74,26.74,0,0,1-.82-2.91c-.09-.49-.22-1-.34-1.45a3.5,3.5,0,0,1-.09-1.07,18.82,18.82,0,0,1,1.06-5.36,11.15,11.15,0,0,1,1.54-3.18c.33-.53.67-1.07,1-1.61a3.25,3.25,0,0,1,.92-1,5,5,0,0,0,.42-.38c.17-.18.33-.37.49-.56a17.87,17.87,0,0,1,2.68-2.46c1.15-.91,2.24-1.89,3.35-2.85a3,3,0,0,0,.83-1.21c.15-.39.29-.79.44-1.18C318.36,128,318.41,127.9,318.5,127.68Z" transform="translate(0 -61.03)"/><path class="cls-1" d="M452.44,119.09a1.66,1.66,0,0,0,1.51.29,1,1,0,0,0,.72-.63c.11-.31.23-.62.33-.94s.22-.69.35-1.09a2.83,2.83,0,0,1,.51.15c.26.15.49.34.78.55a3.67,3.67,0,0,0,.46-.4,30.71,30.71,0,0,1,2.9-3.13c.24-.23.45-.49.69-.72a3.74,3.74,0,0,1,.78-.68,2.07,2.07,0,0,1,.19.54,14.06,14.06,0,0,1,.12,1.72,40.1,40.1,0,0,0,.24,4.9c0,.18,0,.36.07.54a2.61,2.61,0,0,0,1,1.87c-.08.28-.16.54-.22.81a8.05,8.05,0,0,0-.18,1,.94.94,0,0,0,.77,1.16,10.46,10.46,0,0,0,1.23.29c.26.06.53.09.83.14a6.66,6.66,0,0,1-.36,1.35,7.09,7.09,0,0,0-.41,2.5,1.6,1.6,0,0,1-.26.85,6.4,6.4,0,0,0-.61,1.9,3.24,3.24,0,0,0,.06,1.35,1.14,1.14,0,0,0,.91.91,6.32,6.32,0,0,0,1.44.11,11.68,11.68,0,0,0,2.92-.61,2,2,0,0,1,1-.12c.42.08.84.12,1.08.53l1.3-.31-2.92,3.3c-1.36,1.55-2.7,3.11-4.05,4.66a1.92,1.92,0,0,0-.18.22c-.17.27-.12.57.17.67.48.18,1,.29,1.48.43.28.07.6,0,.9.22-.81.49-1.59.94-2.35,1.42s-1.22.8-1.82,1.21a3.72,3.72,0,0,0-.48.41.67.67,0,0,0-.16.9,3.59,3.59,0,0,0,.29.44,2.88,2.88,0,0,1-.47,0l-4.25-.43c-.39,0-.78-.11-1.17-.19-2.16-.46-4.33-.9-6.48-1.41a1.89,1.89,0,0,0-1.54.27l-1.07.67a1.65,1.65,0,0,0,0,.91l2.31,13c.16.89.32,1.79.45,2.69a1.51,1.51,0,0,0,.61,1.16,1.66,1.66,0,0,1,.3.34.74.74,0,0,1-.32.7c-.06,0-.14,0-.18,0a5.2,5.2,0,0,1-.63-.51c-.84-.83-.82-.83-.69-2a4,4,0,0,0-.06-1.08c-.65-3.85-1.32-7.7-2-11.55l-.45-2.6c0-.2-.09-.4-.15-.64a6.38,6.38,0,0,1-.75.12,5.47,5.47,0,0,1-1,0,1.19,1.19,0,0,0-1,.31c-.78.76-1.59,1.48-2.31,2.3a12.8,12.8,0,0,0-2,3.12,4.22,4.22,0,0,1-1.49,1.79,9,9,0,0,0-1.48,1.47c-.18.2-.34.42-.51.64a2.78,2.78,0,0,1-2,1.29.24.24,0,0,1-.07-.39c.46-.59.24-1.06-.22-1.51a1.79,1.79,0,0,0-.14-.13,1.19,1.19,0,0,0-.87.07c-.41.13-.81.25-1.2.41a.78.78,0,0,1-1-.25c-.17-.21-.35-.41-.55-.64-.24,0-.48,0-.72,0-.45.06-.9.11-1.35.21a31,31,0,0,1-6.24.47,2.82,2.82,0,0,1-.32-.07,5.56,5.56,0,0,1,.7-.74c.19-.23.41-.44.6-.68a5.17,5.17,0,0,0,.71-1,12.79,12.79,0,0,1,1.18-2,12.24,12.24,0,0,0,1.45-3,4.28,4.28,0,0,0,.17-.88.63.63,0,0,0-.46-.7A3.91,3.91,0,0,0,426,147a11.47,11.47,0,0,1-3.93-1.35l-.15-.1c-.35-.23-.36-.49,0-.68s.6-.29.89-.45a1.71,1.71,0,0,0,.44-.32.4.4,0,0,0,0-.57,4.36,4.36,0,0,0-.72-.35c-.3-.12-.66-.12-.87-.36s.12-.48.22-.69a.9.9,0,0,0-.19-1.23,4.36,4.36,0,0,0-.73-.52c-.2-.13-.43-.22-.64-.35-.41-.24-.64-.54-.27-1a.77.77,0,0,0,.12-.24.41.41,0,0,0-.18-.55,3.73,3.73,0,0,0-.49-.29,40.26,40.26,0,0,0-2.25-3.91c-.65-1.13-1.28-2.26-1.91-3.4a2.1,2.1,0,0,1-.08-.41l1.12.92c.14.11.3.2.45.31a1.91,1.91,0,0,0,2.28.12l.46.31a2,2,0,0,0,1.75.18,1.23,1.23,0,0,0,.91-1.12c0-.21,0-.42,0-.63.37-.07.59.17.83.32a1.9,1.9,0,0,0,1.22.29,14.16,14.16,0,0,0,1.44-.18c.49-.09.53-.17.58-.74,0-.09,0-.17.06-.28a33.45,33.45,0,0,0,5.5,2.4,2.56,2.56,0,0,0,.48,0,1.17,1.17,0,0,0,.06-1.37c-.34-.6-.72-1.19-1.07-1.79s-.71-1.2-1.05-1.81a6,6,0,0,1-.25-.66,6,6,0,0,0,.58.31.58.58,0,0,0,.86-.38,2.31,2.31,0,0,0,0-1.77c-.28-.6-.57-1.2-.85-1.81-.13-.27-.25-.54-.41-.89a1.74,1.74,0,0,1,.47,0c.24,0,.48.09.72.1a.84.84,0,0,0,1-.82,2.7,2.7,0,0,0-.14-1.26c-.12-.37-.24-.74-.34-1.07.18-.31.45-.23.68-.29a.79.79,0,0,0,.75-.86,1.45,1.45,0,0,0,0-.36,1.94,1.94,0,0,1,.26-1.48,1.14,1.14,0,0,0,.07-.7c-.1-.9-.25-1.8-.33-2.7s-.08-1.57-.11-2.36a4.06,4.06,0,0,1,.09-.52c1.5,1.17,2.85,2.38,4.24,3.52s2.77,2.35,4.2,3.38c.49,0,.45-.59.87-.65s.2-.66.72-.68a6.49,6.49,0,0,1,.29.59c.18.45.31.92.49,1.37a4.17,4.17,0,0,0,.37.73c.38.54.79.57,1.29.1.19-.18.37-.39.52-.56a.35.35,0,0,1,.41.33c.12.44.21.88.33,1.32s.21.76.32,1.14a1.11,1.11,0,0,0,1.15.84H449c0,.37-.06.7-.07,1,0,.94,0,1.88,0,2.81a3.17,3.17,0,0,0,.31,1.13.52.52,0,0,0,.9.15,2,2,0,0,0,.43-.57,8.57,8.57,0,0,0,.62-1.51c.34-1.25.62-2.53.93-3.79C452.22,119.94,452.31,119.59,452.44,119.09Z" transform="translate(0 -61.03)"/><path class="cls-1" d="M67.6,85.06c.35.55.62.94.86,1.35a10.35,10.35,0,0,0,4,3.77c.86.5,1.68,1.08,2.51,1.62l.65.47a3.76,3.76,0,0,1,1.07,1.07,3.25,3.25,0,0,0,.59.64c.88.84,1.78,1.66,2.66,2.5a36,36,0,0,1,2.75,2.91,11.72,11.72,0,0,1,1.83,3.06,20.92,20.92,0,0,1,1.6,7.81,13.42,13.42,0,0,1-.5,3.67,23.5,23.5,0,0,1-2.76,6.55,14.83,14.83,0,0,1-2.5,3c-1.07,1-1,.84-1.42,2.53a2.46,2.46,0,0,0,0,1l.66,3.44c0,.23.08.47.12.74l-.59.24-1.33-5.9-.52-.06a9.48,9.48,0,0,1-5-1.18,7.68,7.68,0,0,1-1.83-1.19,9.06,9.06,0,0,0-2.12-1.4,3,3,0,0,1-1-.74,35,35,0,0,1-2.47-3c-.36-.52-.76-1-1.15-1.51a4.43,4.43,0,0,1-.66-1.21,24,24,0,0,1-1.55-6.8,13.89,13.89,0,0,1,.15-4.5c.11-.79.22-1.59.32-2.38a4,4,0,0,1,.55-1.65,4.39,4.39,0,0,0,.29-.66c.1-.3.2-.6.28-.9A22.81,22.81,0,0,1,65,94.15c.86-1.66,1.62-3.36,2.42-5.05a3.81,3.81,0,0,0,.33-1.85c0-.53-.07-1.07-.1-1.6C67.6,85.51,67.61,85.37,67.6,85.06Z" transform="translate(0 -61.03)"/><path class="cls-2" d="M462.08,79.68c.62.89,1.11,1.53,1.54,2.21A17.61,17.61,0,0,0,470.53,88c1.48.76,2.88,1.68,4.32,2.54.38.23.75.49,1.12.74A6.33,6.33,0,0,1,477.84,93a5.34,5.34,0,0,0,1,1c1.53,1.34,3.09,2.66,4.63,4a57.66,57.66,0,0,1,4.8,4.71,20,20,0,0,1,3.27,5,35.51,35.51,0,0,1,3.2,13,22.71,22.71,0,0,1-.6,6.2A39.57,39.57,0,0,1,490,138.12a25.1,25.1,0,0,1-4,5.25c-1.74,1.75-1.7,1.47-2.22,4.32a4.23,4.23,0,0,0,.07,1.7c.44,1.91.89,3.82,1.32,5.73.09.39.17.79.27,1.23l-1,.45L481.8,147c-.33,0-.6-.06-.88-.06-4.15,0-4.37-.08-8.43-1.67a13,13,0,0,1-3.15-1.86,15.27,15.27,0,0,0-3.64-2.23A4.84,4.84,0,0,1,464,140a56.54,56.54,0,0,1-4.33-4.83c-.65-.84-1.35-1.64-2-2.44a7.86,7.86,0,0,1-1.18-2,40.4,40.4,0,0,1-3-11.31,23.38,23.38,0,0,1-.05-7.56c.13-1.34.26-2.68.38-4a6.82,6.82,0,0,1,.81-2.79,6.55,6.55,0,0,0,.44-1.14c.16-.5.3-1,.43-1.53a37.72,37.72,0,0,1,2.83-7.28c1.33-2.83,2.5-5.75,3.73-8.64a6.37,6.37,0,0,0,.44-3.12l-.27-2.68C462.13,80.43,462.12,80.19,462.08,79.68Z" transform="translate(0 -61.03)"/></g></svg>