<svg id="Layer_1" data-name="Layer 1" xmlns="http://www.w3.org/2000/svg" viewBox="0 0 500 144.36"><defs><style>.cls-1{fill:#fff;}.cls-2{opacity:0.5;}</style></defs><title>fire-top</title><g id="Layer_3" data-name="Layer 3"><path class="cls-1" d="M2.49,18.17c2,7.8,3.5,8.17,3.82,13.39.27,4.54-.66,7.94,0,8.11s2-2.36,2.67-5c1.12-4.09-.27-5.33.49-9.74.35-2,1-5.32,3.65-7.7,1.81-1.61,5-3.18,6.09-2.19s0,3.53-3.57,14.52a14.24,14.24,0,0,0-.73,4.14,10.25,10.25,0,0,0,.24,2.92c.53,2.11,1.63,2.7,2.51,4.22,1.1,1.88.38,2.68.65,9.16.12,2.87.41,6.08.73,6.09s-.05-2.5,1.3-5.36,2.84-2.78,3.25-4.86c.45-2.33-1.28-3-1.06-5.93.15-2,1.2-4.49,2.6-4.62s3.17,2.24,3.24,4.38c.05,1.43-.68,1.73-.65,3.16.06,2.38,2.14,4.63,3,4.39s-.65-6.58,1.13-7.39c1.08-.49,3.31,1.11,4.14,3.17.94,2.34-.38,4.2-1.22,7.54a26,26,0,0,0-.08,11c.87,5.46,2.61,5.56,4.46,12.49,1.57,5.88,1.37,9.72,2,9.74s1.71-3.94,1.71-8.12c0-8.79-4.59-11.1-3-16.06,1.28-4,4.6-3.62,6.66-9.17.78-2.12.87-3.76,1-7.06.49-8.94-1.72-11.17.16-14.68,1.56-2.91,5.26-5.46,8.6-4.71,4,.9,5.55,6,5.68,9.09.11,2.55-.71,5.48-1.62,5.52-1.53.06-2.66-8.16-3.57-8-.58.08-.67,3.49-.49,6.17.28,4.17,1.05,4.08,3,12.17.56,2.32,1,4.4,2.27,4.7s2-1.07,3-.73,1.31,1.9,1.54,4.3c.37,3.87.64,6.59-.24,10.88-.82,4-2,6.28-1.38,6.65.2.12.74.14,2.92-2.11,4.22-4.36,7.73-8,7.54-12.58-.12-3.12-1.86-3.92-1.38-7.46a15.59,15.59,0,0,1,1.47-4.46c1.75-3.94,3.74-5.91,3.4-6.25-.56-.58-6,5.17-7.7,4.06-1.39-.92.3-6.06,1.37-8.68,2.67-6.52,6.79-10.26,5.6-11.85-.45-.6-1.14-.18-1.86-.89-1.64-1.6-.61-6.18,1.94-9,.7-.76,3.24-3.58,6.41-2.92a5.66,5.66,0,0,1,4.22,3.9c.87,3.37-3,5.22-3.73,10.3-.45,2.94.38,5.24,1.3,7.79,2.22,6.15,5.47,6.89,9.73,14.44,1.77,3.13,4,7.93,3,8.68-1.25.94-6.88-4.93-7.55-4.3-.41.39,1.89,2.44,3.08,5.84,1.91,5.46-1.45,7.52-.08,13.23,1.15,4.77,3.83,4.74,4.71,9.73s-1.13,8.8-.73,8.93,3.11-4.39,3.89-10.39c.84-6.42-1.39-7.71-.81-13,.88-7.93,6.19-7.43,7.3-14.93,1.08-7.28-3.44-11.12-.57-18.09.3-.72,1.51-3.64,2.93-3.57,1.69.08,2.73,4.36,3.08,5.76,2,8.25-.29,14.85.32,15,.45.12,2.57-3.14,2.6-7.3,0-4.43-2.34-6-1.62-9.9.35-2,1.51-4.68,3-4.79,2.12-.15,5,5.05,5.76,10.15,1.25,7.82-3,10.68-2,19.63.5,4.69,2.19,8.78,2.92,8.68s-.46-5.93,1.38-13.14c2.24-8.76,6.29-8.37,7.3-14.77,1.41-8.9-5.88-12.9-3.32-20.77,1.31-4,4.76-7.67,6.81-7.14,2.47.64,1.38,6.91,4,16.39,2.78,10.16,8.12,17.93,9.16,17.53s-3.19-7.07-2.1-16.56c.94-8.29,5-11.13,5.67-17.1.05.21.1.4.15.62,1.5,5.87,2.64,6.15,2.87,10.08.21,3.42-.49,6,0,6.11s1.48-1.78,2-3.73c.84-3.08-.21-4,.37-7.33A9.42,9.42,0,0,1,162,12.83c1.36-1.21,3.75-2.38,4.58-1.65s0,2.67-2.69,10.94a11.06,11.06,0,0,0-.55,3.12,8.12,8.12,0,0,0,.18,2.2c.4,1.59,1.24,2,1.9,3.18.82,1.42.28,2,.49,6.9.09,2.16.3,4.58.55,4.59s0-1.89,1-4,2.13-2.1,2.44-3.66c.34-1.75-1-2.3-.79-4.46.11-1.5.9-3.39,2-3.49s2.39,1.69,2.45,3.3c0,1.08-.52,1.3-.49,2.39,0,1.79,1.61,3.48,2.26,3.3s-.49-5,.85-5.57c.82-.37,2.5.84,3.12,2.39.71,1.76-.28,3.17-.92,5.68a19.73,19.73,0,0,0-.06,8.31c.66,4.12,2,4.19,3.36,9.41,1.19,4.43,1,7.33,1.53,7.34s1.29-3,1.28-6.11c0-6.63-3.45-8.37-2.26-12.1,1-3,3.46-2.73,5-6.91a16.28,16.28,0,0,0,.8-5.32c.37-6.73-1.29-8.41.12-11.06,1.17-2.19,4-4.11,6.48-3.54,3,.67,4.18,4.53,4.28,6.84.08,1.93-.54,4.13-1.23,4.16-1.15,0-2-6.14-2.68-6.05-.44.06-.51,2.62-.37,4.64.21,3.15.78,3.08,2.26,9.17.42,1.75.75,3.32,1.71,3.54s1.5-.8,2.26-.55,1,1.43,1.16,3.24a24,24,0,0,1-.18,8.19c-.62,3-1.51,4.73-1,5,.15.09.56.11,2.2-1.59,3.18-3.28,5.82-6,5.68-9.47-.09-2.35-1.4-3-1-5.62a11.43,11.43,0,0,1,1.1-3.36c1.32-3,2.81-4.45,2.56-4.71-.42-.43-4.53,3.9-5.8,3.06-1-.69.23-4.56,1-6.54,2-4.91,5.1-7.73,4.21-8.92-.34-.46-.86-.14-1.4-.68-1.24-1.2-.46-4.65,1.46-6.78.52-.58,2.44-2.7,4.83-2.2a4.28,4.28,0,0,1,3.18,2.93c.65,2.55-2.22,3.94-2.81,7.77a11.16,11.16,0,0,0,1,5.86c1.67,4.64,4.11,5.2,7.33,10.88,1.33,2.36,3,6,2.26,6.54-.94.71-5.18-3.72-5.68-3.24-.31.29,1.42,1.83,2.32,4.4,1.44,4.11-1.09,5.66-.06,10,.86,3.6,2.88,3.57,3.54,7.34s-.85,6.62-.55,6.72,2.35-3.31,2.94-7.82c.63-4.85-1.05-5.81-.62-9.78.66-6,4.67-5.6,5.5-11.25.82-5.49-2.59-8.37-.42-13.63.22-.54,1.13-2.74,2.2-2.68,1.27.06,2.06,3.28,2.32,4.33,1.52,6.22-.22,11.19.24,11.31s1.94-2.37,2-5.5c0-3.33-1.76-4.51-1.22-7.46.27-1.47,1.14-3.52,2.26-3.6,1.6-.12,3.72,3.8,4.34,7.64.94,5.89-2.25,8-1.53,14.79.38,3.53,1.65,6.61,2.2,6.54s-.35-4.47,1-9.9c1.69-6.6,4.73-6.3,5.5-11.13,1.06-6.7-4.44-9.71-2.51-15.64,1-3.05,3.59-5.78,5.14-5.38,1.85.48,1,5.21,3,12.35,2.09,7.65,6.12,13.5,6.91,13.2S263,29.65,263.84,22.5a23.09,23.09,0,0,1,2.85-8.38,11.54,11.54,0,0,1,1.47,4.05c.91,5.69-2.59,9.7-1.78,9.92s5.38-4.41,7.72-10.5c2.18-5.68,1.27-9.44,3.34-9.83,1.73-.31,4.63,1.86,5.74,4.28,2.16,4.72-4,7.12-2.8,12.45.86,3.84,4.26,3.6,6.15,8.85,1.55,4.33.43,7.81,1.16,7.88s2-2.39,2.46-5.2c.81-5.37-2.76-7.08-1.71-11.77.69-3.06,3.06-6.17,4.85-6.08,1.25.07,2.23,1.7,2.53,2.87.6,2.35-1.39,3.28-1.37,5.93s1.81,4.45,2.19,4.38-1.43-4.05.27-9c.29-.84,1.17-3.4,2.6-3.45,1.19,0,2.2,1.71,2.45,2.14,2.43,4.18-1.38,6.48-.47,10.85s5.41,4.19,6.14,8.94c.49,3.16-1.38,3.93-.68,7.79.66,3.59,2.91,6.3,3.28,6.22s-1.35-2.36-.62-5.35,3-3,4-5.84c1.15-3.42-1.68-4.65-.07-7.92,1-2,2.94-3.27,2.59-3.5-.56-.39-5.3,3.14-6.35,2.57-.84-.45,1-3.32,2.53-5.2,3.59-4.52,6.32-5,8.19-8.66.78-1.52,1.48-2.9,1.1-4.67-.66-3-3.87-4.15-3.14-6.17.42-1.18,2-2.1,3.55-2.34a7.35,7.35,0,0,1,5.39,1.75c2.15,1.7,3,4.44,1.64,5.4-.61.43-1.19.18-1.57.54-1,.95,2.47,3.19,4.71,7.1.91,1.57,2.33,4.66,1.17,5.2-1.43.67-6-2.78-6.49-2.43-.28.21,1.39,1.39,2.87,3.75A7.54,7.54,0,0,1,331,31.74c.41,2.12-1.05,2.6-1.16,4.47-.15,2.76,2.8,4.93,6.36,7.54,1.83,1.35,2.29,1.34,2.45,1.27.53-.23-.47-1.6-1.16-4a13.7,13.7,0,0,1-.2-6.52c.19-1.44.49-2.38,1.3-2.58s1.58.6,2.52.44,1.44-1.43,1.92-2.82c1.64-4.85,2.29-4.79,2.52-7.29.15-1.61.08-3.65-.41-3.7-.76-.07-1.71,4.85-3,4.81-.76,0-1.46-1.77-1.37-3.3a5.88,5.88,0,0,1,4.78-5.45,8.24,8.24,0,0,1,7.24,2.82c1.58,2.11-.27,3.45.14,8.8a9.7,9.7,0,0,0,.89,4.24c1.73,3.32,4.53,3.1,5.6,5.49,1.33,3-2.53,4.36-2.53,9.63,0,2.51.87,4.87,1.43,4.86s.39-2.31,1.71-5.83c1.56-4.16,3-4.22,3.76-7.49a11.23,11.23,0,0,0-.07-6.62c-.71-2-1.82-3.11-1-4.52.69-1.23,2.57-2.19,3.48-1.9,1.5.49.07,4.25,1,4.43.72.15,2.47-1.2,2.52-2.63,0-.86-.58-1-.54-1.89a3,3,0,0,1,2.73-2.63c1.18.08,2.06,1.58,2.18,2.77.19,1.73-1.26,2.16-.88,3.55s1.59,1.21,2.73,2.92.85,3.21,1.09,3.21.51-1.93.62-3.65c.23-3.88-.38-4.36.54-5.49.74-.91,1.68-1.27,2.12-2.53a4.5,4.5,0,0,0,.2-1.75,6.65,6.65,0,0,0-.61-2.48c-3-6.59-3.83-8.18-3-8.71s3.6.35,5.13,1.32a6.82,6.82,0,0,1,3.07,4.62c.64,2.64-.53,3.38.41,5.83.6,1.55,1.76,3.06,2.25,3s-.22-2.14,0-4.86c.27-3.13,1.54-3.35,3.21-8,.26-.71.45-1.32.6-1.86a59.76,59.76,0,0,0,1.17,6.22c1.5,5.88,2.64,6.15,2.87,10.08.21,3.43-.49,6,0,6.11s1.49-1.77,2-3.72c.85-3.09-.21-4,.37-7.34a9.39,9.39,0,0,1,2.75-5.8c1.36-1.21,3.76-2.39,4.58-1.65s0,2.66-2.69,10.94a11.35,11.35,0,0,0-.55,3.11,8.12,8.12,0,0,0,.19,2.2c.39,1.59,1.23,2,1.89,3.18.82,1.42.28,2,.49,6.91.09,2.15.3,4.58.55,4.58s0-1.88,1-4,2.14-2.1,2.44-3.67c.34-1.75-1-2.3-.79-4.46.11-1.5.9-3.39,2-3.49S412,30,412,31.63c0,1.08-.52,1.31-.49,2.39,0,1.79,1.61,3.49,2.26,3.3s-.48-5,.85-5.56c.82-.37,2.5.83,3.12,2.38.71,1.77-.28,3.17-.92,5.68a19.73,19.73,0,0,0-.06,8.31c.66,4.12,2,4.19,3.36,9.42,1.19,4.42,1,7.32,1.53,7.33s1.29-3,1.29-6.11c0-6.62-3.46-8.37-2.27-12.1,1-3,3.47-2.73,5-6.91a16.21,16.21,0,0,0,.79-5.31c.37-6.74-1.29-8.42.12-11.07,1.18-2.19,4-4.11,6.48-3.54,3,.68,4.18,4.53,4.28,6.84.08,1.93-.54,4.13-1.22,4.16-1.16,0-2-6.14-2.69-6.05-.44.06-.51,2.63-.37,4.64.21,3.15.79,3.08,2.26,9.17.43,1.75.76,3.32,1.71,3.55s1.5-.81,2.26-.55,1,1.43,1.17,3.23a24.22,24.22,0,0,1-.19,8.19c-.62,3-1.5,4.74-1,5,.15.09.56.11,2.2-1.58,3.18-3.29,5.82-6,5.69-9.48-.1-2.35-1.41-3-1-5.62a11.73,11.73,0,0,1,1.1-3.36c1.32-3,2.82-4.45,2.56-4.71-.42-.43-4.53,3.9-5.8,3.06-1-.69.23-4.56,1-6.54,2-4.91,5.11-7.73,4.21-8.92-.34-.46-.86-.14-1.4-.67-1.23-1.21-.46-4.66,1.47-6.79.52-.57,2.44-2.7,4.82-2.2a4.29,4.29,0,0,1,3.18,2.94c.65,2.54-2.22,3.93-2.81,7.76a11.16,11.16,0,0,0,1,5.86c1.67,4.64,4.12,5.2,7.33,10.88,1.33,2.36,3,6,2.26,6.54-.94.71-5.18-3.72-5.68-3.24-.31.3,1.42,1.84,2.32,4.4,1.44,4.11-1.09,5.66-.06,10,.86,3.6,2.88,3.58,3.54,7.34s-.85,6.63-.55,6.72,2.35-3.31,2.94-7.82c.63-4.84-1-5.81-.61-9.78.65-6,4.66-5.6,5.5-11.25.81-5.48-2.6-8.37-.43-13.62.22-.55,1.13-2.74,2.2-2.69,1.27.06,2.06,3.28,2.32,4.34,1.52,6.21-.22,11.18.25,11.3s1.93-2.36,1.95-5.5c0-3.33-1.76-4.51-1.22-7.45.27-1.48,1.14-3.53,2.26-3.61,1.6-.11,3.73,3.8,4.34,7.64.94,5.89-2.25,8.05-1.53,14.79.38,3.53,1.65,6.61,2.2,6.54s-.35-4.47,1-9.9c1.69-6.6,4.73-6.3,5.5-11.12,1.06-6.71-4.43-9.72-2.51-15.65,1-3,3.59-5.78,5.14-5.38,1.86.48,1,5.21,3,12.35a42.36,42.36,0,0,0,3,7.85V0H0V6.66C1.37,10,.86,11.75,2.49,18.17Z" transform="translate(0)"/></g><g class="cls-2"><path class="cls-1" d="M1,40.31a1.58,1.58,0,0,0-1-.58v5.2C1.21,42.83,1.78,41.3,1,40.31Z" transform="translate(0)"/><path class="cls-1" d="M2.19,66.38C2,66.13,1.12,66.64,0,67.46v2.89C1.48,68,2.52,66.71,2.19,66.38Z" transform="translate(0)"/><path class="cls-1" d="M11.31,20A9,9,0,0,1,18,26.21c1.38,5.34-4.67,8.26-5.91,16.3-.71,4.66.61,8.3,2.06,12.33,3.52,9.74,8.66,10.91,15.4,22.86,2.8,5,6.33,12.55,4.75,13.74-2,1.49-10.89-7.8-11.95-6.81-.65.62,3,3.87,4.88,9.25,3,8.64-2.3,11.9-.13,20.94,1.82,7.55,6.06,7.5,7.45,15.4s-1.78,13.93-1.15,14.13,4.92-6.94,6.16-16.44c1.33-10.16-2.2-12.21-1.29-20.58,1.4-12.55,9.8-11.76,11.56-23.63,1.71-11.52-5.45-17.6-.9-28.63.47-1.14,2.39-5.77,4.63-5.65,2.68.12,4.33,6.9,4.88,9.11C61.59,71.59,58,82,58.94,82.28c.71.19,4.06-5,4.11-11.56,0-7-3.7-9.5-2.56-15.67.55-3.17,2.39-7.41,4.75-7.58,3.35-.24,7.83,8,9.11,16.06,2,12.38-4.75,16.91-3.16,31.08.79,7.42,3.46,13.89,4.62,13.73S75.08,99,78,87.55C81.54,73.68,88,74.3,89.55,64.17c2.23-14.09-9.31-20.42-5.26-32.88C86.37,25,91.83,19.15,95.07,20c3.91,1,2.19,10.94,6.33,25.94,4.4,16.09,12.86,28.38,14.5,27.75s-5.05-11.19-3.32-26.21c1.49-13.12,7.91-17.62,9-27.07.08.33.16.64.24,1,2.37,9.3,4.18,9.74,4.54,16,.33,5.41-.77,9.5,0,9.67s2.35-2.82,3.17-5.9c1.33-4.88-.33-6.34.58-11.61a14.89,14.89,0,0,1,4.36-9.19c2.15-1.92,5.93-3.77,7.25-2.61s0,4.22-4.26,17.31a17.33,17.33,0,0,0-.87,4.94,12.7,12.7,0,0,0,.28,3.48c.64,2.52,2,3.17,3,5,1.3,2.24.44,3.16.78,10.92.14,3.42.47,7.25.87,7.26s0-3,1.58-6.33,3.37-3.32,3.86-5.79c.54-2.77-1.58-3.64-1.25-7.06.17-2.38,1.42-5.37,3.09-5.53s3.78,2.68,3.87,5.23c0,1.71-.82,2.06-.77,3.78,0,2.83,2.55,5.51,3.58,5.22s-.78-7.91,1.34-8.81c1.3-.59,4,1.33,4.94,3.78,1.12,2.79-.44,5-1.46,9a31,31,0,0,0-.09,13.15c1,6.53,3.16,6.64,5.32,14.9,1.88,7,1.58,11.6,2.42,11.62s2-4.75,2-9.67c0-10.5-5.47-13.25-3.58-19.16,1.58-4.74,5.47-4.32,7.91-10.93a25.92,25.92,0,0,0,1.27-8.42c.58-10.66-2-13.32.19-17.51,1.85-3.47,6.33-6.51,10.25-5.6,4.75,1.06,6.62,7.17,6.78,10.82.13,3.06-.86,6.54-1.95,6.59-1.82,0-3.16-9.72-4.24-9.58-.7.1-.81,4.15-.59,7.35.34,5,1.24,4.87,3.58,14.51.67,2.77,1.19,5.26,2.71,5.6s2.37-1.26,3.58-.87,1.58,2.27,1.83,5.13a38.11,38.11,0,0,1-.28,13c-1,4.75-2.39,7.49-1.59,7.92.24.14.89.17,3.49-2.52,5-5.19,9.21-9.49,9-15-.15-3.72-2.22-4.75-1.59-8.89a18.17,18.17,0,0,1,1.75-5.32c2.08-4.75,4.44-7,4.05-7.46-.67-.68-7.17,6.18-9.18,4.85-1.59-1.09.36-7.22,1.58-10.35,3.17-7.78,8.07-12.24,6.66-14.12-.53-.73-1.36-.22-2.21-1.08-2-1.9-.73-7.36,2.31-10.73.82-.92,3.86-4.27,7.64-3.48a6.77,6.77,0,0,1,5,4.63c1,4-3.52,6.24-4.45,12.3a17.65,17.65,0,0,0,1.58,9.28c2.65,7.34,6.51,8.23,11.6,17.22,2.11,3.74,4.75,9.5,3.58,10.35-1.49,1.13-8.2-5.89-9-5.13-.49.46,2.25,2.9,3.67,7,2.28,6.5-1.72,9-.09,15.83,1.36,5.69,4.56,5.65,5.6,11.61s-1.34,10.48-.87,10.64,3.72-5.24,4.65-12.38c1-7.67-1.66-9.19-1-15.48,1.05-9.49,7.39-8.86,8.71-17.8,1.3-8.69-4.1-13.25-.67-21.58.35-.85,1.79-4.34,3.49-4.24,2,.09,3.26,5.19,3.67,6.85,2.4,9.85-.35,17.72.38,17.91s3.07-3.76,3.16-8.71c0-5.27-2.78-7.14-1.93-11.81.43-2.33,1.81-5.57,3.58-5.7,2.53-.19,5.89,6,6.87,12.1,1.49,9.32-3.56,12.66-2.42,23.41.6,5.58,2.61,10.46,3.48,10.35s-.55-7.08,1.58-15.67c2.68-10.45,7.49-10,8.71-17.62,1.68-10.6-7-15.37-4-24.75,1.58-4.83,5.68-9.15,8.13-8.52,2.93.76,1.58,8.25,4.75,19.55,3.31,12.11,9.69,21.37,10.94,20.89s-3.82-8.42-2.52-19.74a36.74,36.74,0,0,1,4.51-13.26,18.38,18.38,0,0,1,2.33,6.41c1.44,9-4.1,15.35-2.82,15.7s8.52-7,12.22-16.62c3.45-9,2-14.94,5.29-15.56,2.73-.49,7.32,3,9.08,6.78,3.42,7.47-6.33,11.27-4.43,19.7,1.36,6.08,6.74,5.7,9.73,14,2.46,6.85.68,12.36,1.84,12.47s3.17-3.78,3.89-8.23c1.29-8.5-4.36-11.2-2.7-18.63,1.09-4.84,4.84-9.76,7.67-9.62,2,.11,3.53,2.69,4,4.54.95,3.72-2.2,5.19-2.17,9.39s2.87,7,3.47,6.93-2.27-6.41.42-14.24c.46-1.33,1.86-5.39,4.12-5.46,1.88,0,3.48,2.7,3.88,3.38,3.84,6.62-2.19,10.26-.75,17.18s8.57,6.63,9.72,14.15c.78,5-2.18,6.22-1.07,12.33,1,5.68,4.6,10,5.19,9.84s-2.14-3.73-1-8.47,4.74-4.74,6.33-9.24c1.82-5.41-2.66-7.36-.11-12.54,1.58-3.16,4.65-5.17,4.1-5.54-.89-.61-8.39,5-10.06,4.07-1.32-.71,1.59-5.25,4-8.23,5.68-7.15,10-7.91,13-13.71,1.24-2.4,2.35-4.59,1.74-7.39-1-4.75-6.12-6.57-5-9.76.67-1.87,3.17-3.33,5.62-3.71a11.58,11.58,0,0,1,8.53,2.77c3.41,2.69,4.75,7,2.6,8.55-1,.68-1.88.28-2.48.85-1.59,1.51,3.9,5.05,7.45,11.24,1.44,2.49,3.69,7.38,1.85,8.23-2.26,1.06-9.49-4.4-10.27-3.84-.44.33,2.2,2.2,4.54,5.93a11.7,11.7,0,0,1,1.93,4.23c.65,3.35-1.66,4.11-1.83,7.07-.24,4.37,4.43,7.81,10.06,11.94,2.9,2.14,3.63,2.12,3.88,2,.84-.37-.74-2.53-1.83-6.33a21.59,21.59,0,0,1-.32-10.32c.3-2.28.77-3.77,2.06-4.09s2.5.95,4,.7,2.27-2.26,3-4.46c2.6-7.68,3.63-7.59,4-11.54.24-2.55.13-5.78-.65-5.86-1.2-.11-2.7,7.68-4.74,7.61-1.21,0-2.31-2.8-2.17-5.22a9.32,9.32,0,0,1,7.56-8.63,13,13,0,0,1,11.46,4.47c2.5,3.34-.42,5.46.22,13.93a15.38,15.38,0,0,0,1.41,6.71c2.74,5.25,7.17,4.91,8.87,8.69,2.1,4.75-4,6.9-4,15.24,0,4,1.38,7.71,2.27,7.69s.61-3.65,2.7-9.22c2.47-6.59,4.75-6.68,6-11.86a17.67,17.67,0,0,0-.11-10.48c-1.12-3.16-2.88-4.92-1.58-7.15,1.09-2,4.07-3.47,5.51-3,2.37.78.11,6.73,1.58,7,1.14.24,3.91-1.9,4-4.16,0-1.36-.92-1.58-.85-3a4.75,4.75,0,0,1,4.32-4.17c1.86.13,3.26,2.51,3.45,4.39.3,2.74-2,3.42-1.4,5.62s2.52,1.91,4.33,4.62,1.34,5.08,1.72,5.08.81-3.05,1-5.78c.37-6.14-.6-6.9.86-8.69,1.17-1.44,2.66-2,3.35-4a7,7,0,0,0,.32-2.77,10.34,10.34,0,0,0-1-3.93c-4.74-10.43-6.06-12.94-4.74-13.78s5.69.55,8.11,2.09A10.76,10.76,0,0,1,487.45,24c1,4.18-.83,5.35.65,9.23.95,2.45,2.79,4.84,3.56,4.75s-.34-3.39,0-7.7c.43-5,2.44-5.3,5.09-12.66.41-1.12.71-2.09.95-2.94a94.18,94.18,0,0,0,1.85,9.84c.15.6.3,1.17.45,1.7V0H0V26.13a16.66,16.66,0,0,1,1.16-1.47C2.27,23.46,6.29,19,11.31,20Z" transform="translate(0)"/></g></svg>