<svg xmlns="http://www.w3.org/2000/svg" viewBox="0 0 500 126.04"><defs><style>.cls-1,.cls-2{fill:#fff;}.cls-2{opacity:0.5;}</style></defs><title>iceberg-top</title><g id="Layer_2" data-name="Layer 2"><path class="cls-1" d="M500,50.13h-2.78a7.31,7.31,0,0,0-2.78-.68c-1.38,0-4.16-.68-4.16-1.35s-1.39,0-2.78-.68l-1.39-.68s0,2-1.39,2a4.89,4.89,0,0,0-2.78,1.36l-2.77,1.36h-6.95a4.89,4.89,0,0,1-2.78-1.36,7,7,0,0,1-2.77-.68,10,10,0,0,0-4.17-1.35h-4.17a7,7,0,0,1-2.77-.68l-2.78-1.36L450,44.71C448.61,44,441.67,42,441.67,42l-4.17-.67h-5.56L426.39,40s-4.17,2-5.56,2-5.55,0-5.55.68-5.56,2-5.56,2a32.46,32.46,0,0,1-5.55,2c-2.78.68-9.73,2-12.5,2.71s-8.34,4.07-11.11,5.43-2.78,2.71-4.17,2.71-1.39.68-2.78,1.35-5.55.68-6.94,1.36-5.56,4.07-6.95,4.07-2.78,1.35-4.16,1.35-1.39,1.36-2.78,1.36-4.17,0-4.17,1.35,1.39,2-1.39,3.39-4.16,1.36-4.16,2.72a1.19,1.19,0,0,1-.48,1,6.07,6.07,0,0,1-2.3,1c-3.47,1-4,.74-5.56,1.36s-1.37,1-2.78,1.35a14.38,14.38,0,0,1-4.16,0,32.8,32.8,0,0,0-6.95,0c-3.13.5-2.77,1.7-6.94,2.71a37.13,37.13,0,0,1-4.17.68c-3.27.44-4.62.41-6.94.68a52.88,52.88,0,0,0-6.95,1.36c-7,1.53-14.87.83-16.66.67-8.24-.73-12.65-3-16.67-2a21.67,21.67,0,0,0-4.17,1.36c-1.41.71-1.62,1.2-2.77,1.35-1.36.18-2.2-.33-4.17-.68a23.43,23.43,0,0,0-6.95,0c-2.47.34-3.12,1-6.94,2.72-7.46,3.42-8.83,2.81-11.11,4.74-1.36,1.15-1.88,2.23-4.17,2.71-1.59.34-2.67.11-4.16.68s-1.41,1.15-2.78,1.36c-1.05.16-1.37-.14-2.78,0a22.66,22.66,0,0,0-2.78.67c-1.06.21-1.49.08-4.16,0-4.08-.11-3.87.17-6.95,0a13.55,13.55,0,0,0-2.78,0c-1.25.19-1.49.51-2.77.68a19.8,19.8,0,0,1-2.78,0,8.66,8.66,0,0,0-4.17,1.36c-4.62,2.51-12.84,3.29-13.89,3.39-3,.27-4.88.44-6.94,0-2.83-.61-3.75-1.88-6.95-2h-6.94c-2.32,0-4.63,0-6.95,0a25.37,25.37,0,0,0-4.16,0c-2,.35-2.18,1-4.17,1.36a18.76,18.76,0,0,1-4.17,0c-4.37-.26-4.54-.74-6.94-.68-2.7.07-2.66.68-5.56.68a23.07,23.07,0,0,0-4.16,0c-1.64.26-1.61.66-2.78.68-1.59,0-2.13-.7-4.17-.68a5.78,5.78,0,0,1-1.39,0,1.78,1.78,0,0,1-1.38-1.36c-.63-1.52-3.1-1.45-5.56-3.39s-1.82-3.62-4.17-4.06a13.94,13.94,0,0,1-2.77-.68c-.75-.29-.7-.39-1.39-.68-1.51-.63-3.68-1-4.17-.68s.18.64,0,.68-.52-.46-1.39-.68c-1.12-.28-2,.21-2.78,0-1.21-.3.07-1.53-1.39-2.71-.9-.73-1.73-.53-2.77-1.35s-.45-1.3-1.39-2-1.5-.51-4.17-1.35c-3.16-1-3-1.44-5.55-2-1.56-.36-1.55-.19-4.17-.68a30.83,30.83,0,0,1-5.56-1.35C56,79.72,57,79.33,54.17,77.93a18.65,18.65,0,0,0-5.56-2c-1.39-.25-2.3-.26-2.78-.68-.83-.72.78-1.67,0-2-.58-.27-1.57.23-2.77,0-1.55-.29-1-1.31-2.78-2-1.19-.49-1.73-.15-4.17-.68a34.54,34.54,0,0,1-4.17-1.36c-1.7-.58-3-1-4.16-1.35-5.07-1.59-4.92-1.21-7-2-1.87-.76-2.56-1.3-4.16-1.35a12.75,12.75,0,0,1-2.78,0c-1-.29-.43-.82-1.39-1.36a10.74,10.74,0,0,0-4.17-.68,19.55,19.55,0,0,0-2.77,0,10.44,10.44,0,0,0-5.56,2V0H500Z" transform="translate(0 0.04)"/></g><g id="Layer_3" data-name="Layer 3"><path class="cls-2" d="M475,35c-.15,1.17-3,1.36-5,5-.66,1.23-.48,1.48-2,6-1.29,3.83-1.74,4.59-2,5a15.46,15.46,0,0,1-4,4,63.39,63.39,0,0,1-7,5c-6.17,3.75-9.22,4.27-10,7a14.53,14.53,0,0,1-1,3,8.85,8.85,0,0,1-2,3c-1.77,1.61-4,1.82-6,2-1.38.13-2.2-.56-3,0-.5.35-.43.71-1,2-1,2.22-1.73,2.44-2,4-.18,1.08.17,1,0,2a5.79,5.79,0,0,1-3,4c-1.59.81-2.6.26-3,1-.5.91,1,1.76,1,4a5.29,5.29,0,0,1-1,3,10.31,10.31,0,0,1-1,1c-1.33,1.56.65,4,0,5s-3.69.91-17-5c-9.41-4.18-11.28-5.66-12-8-.59-1.9-.36-4.21,0-8,.39-4,1.09-5.62,0-7-.79-1-1.77-.92-5-2-3.81-1.27-4.54-1.19-5-2-.72-1.27.44-2.24,0-5a15.31,15.31,0,0,0-1-3,13.33,13.33,0,0,1,0-7c1.2-6.88-3.12-10.2-2-16,1-5,5.2-8,8-10C410,13,475.72,29.28,475,35Z" transform="translate(0 0.04)"/><path class="cls-2" d="M329,58c.81,1.82.2,3.18,2,10a50.29,50.29,0,0,1,2,10,12.81,12.81,0,0,1,0,4c-.68,2.63-2.8,4.46-7,8-2.68,2.26-3.43,2.59-4,4-.92,2.28.15,3.68-1,5-1.5,1.73-4.53.7-5,2-.35,1,1.22,1.7,1,3s-1.95,1.23-4,3c-2.32,2-1.83,3.65-4,5-1.39.87-2.38.69-4,1-4.21.82-5.42,3.66-8,5-3.95,2.05-10.09,1.11-13-2s-1.48-7-4-8c-2.13-.82-3.93,1.71-7,1a7.44,7.44,0,0,1-4-3c-2.86-3.5-1.59-6.06-4-10-1.6-2.62-2.44-1.94-5-5-1.07-1.28-4.86-6.1-5-11-.17-6,5.12-10.57,8-13C282.73,50.33,324.19,47.12,329,58Z" transform="translate(0 0.04)"/><path class="cls-2" d="M104,73c-.33,1.6-8.14.16-13,6-.91,1.09-2,3.74-4,9-3.41,8.74-3.67,10.78-6,12-2.92,1.52-5.76,0-7,2-1,1.53.28,3.13-1,5-.27.39-.65.8-3,2-4.41,2.25-5.16,1.89-6,3-1.62,2.15.49,4.47-1,6s-3.77-.39-8,1c-1.69.56-1.33.86-4,2a19.82,19.82,0,0,1-7,2c-3.42.2-4.39-1-6,0s-1.52,2.69-3,3c-1,.22-1.39-.52-3-1-3-.9-4.28,1-6,0s-.8-3-3-5c-1.52-1.36-2.65-1-3-2-.57-1.59,2.23-2.78,3-6a8.62,8.62,0,0,0-1-6c-2-3.32-5.22-2.3-7-5-1.33-2-.69-4.35,1-11,1.9-7.44,2.84-11.17,3-12C21.35,65.53,5.15,56.76,7,52,11.27,40.89,105.17,67.35,104,73Z" transform="translate(0 0.04)"/></g></svg>