<svg id="Layer_1" data-name="Layer 1" xmlns="http://www.w3.org/2000/svg" viewBox="0 0 500 78.26"><defs><style>.cls-1{fill:#fff;}</style></defs><title>paint-drip-top</title><path class="cls-1" d="M500,18.64c-35.21,0-8.49,59.62-32.49,59.62S465.09,26,445.92,26s-2.41,44.68-22.79,44.68-1.29-63.8-23.63-64c-16.67-.15-5.8,58.86-26.33,58.86-23.25,0-.6-36.83-21.43-36.83s-9.82,48.91-27.32,48.91,9.2-56.75-17.51-56.75,2.86,51.47-23.1,51.47-.9-33.25-23.39-33.25c-17.59,0-11.25,16.34-24.23,16.34-22.27,0,.07-45.43-23.62-45.43S216.16,70,190.2,70s-1.95-49.66-22-49.66-4.92,41.21-22.62,41.21c-22,0,1.28-48.76-21.85-48.76C99.9,12.75,124.58,67,96.57,67,73,67,92.62,13.6,69.19,13.37c-28-.29-.77,58.35-27.64,58.35S33.89,9.06,11.91,9.06C.72,9.06,0,23.17,0,23.17V0H500Z"/></svg>