<svg xmlns="http://www.w3.org/2000/svg" viewBox="0 0 500 133.46"><defs><style>.cls-1{fill:#fff;}.cls-2{opacity:0.5;}</style></defs><title>snowflakes-bottom</title><g id="Layer_3" data-name="Layer 3"><path class="cls-1" d="M0,158.87s61.62-36.53,139.21-36.53,116.22,40.45,219.17,40.45S500,150.42,500,150.42V200H0Z" transform="translate(0 -66.54)"/><path class="cls-1" d="M310.1,166.42c-.05-1.25-.11-2.5-.16-3.85,1.86-.23,3.65.11,5.54-.06a22.06,22.06,0,0,0-1.87-3.28c-.61-1-1.26-2.07-1.95-3.21l3.65-2.81c.24.37.46.67.64,1,1.33,2.36,2.67,4.7,3.94,7.09a1.39,1.39,0,0,0,1.57.89,17.16,17.16,0,0,0,3.27-.27L322.11,158l3.55-2.35c.24.32.46.58.64.86q1.6,2.53,3.2,5.08a1.22,1.22,0,0,0,1.09.74c3.41,0,6.83,0,10.24,0l.07-.26a3.57,3.57,0,0,0-.55-.41q-12-6.3-24.09-12.59a1.4,1.4,0,0,0-1.51,0c-2,1.13-4.07,2.21-6.11,3.3-.34.18-.69.34-1.12.56l-1.75-3.22,6-3.58c-1.05-.52-1.94-.88-2.75-1.38a2.89,2.89,0,0,0-3.27-.06,23.52,23.52,0,0,1-2.62,1.1L301.7,143l2.39-1.72-5-2.79c.78-1.27,1.54-2.49,2.35-3.79l5.78,2.45v-3.41l3.4-.2c.05.39.11.72.13,1,.08,1.45.17,2.9.2,4.36a1.22,1.22,0,0,0,.76,1.18c.81.39,1.57.85,2.57,1.4,0-1,0-1.85.05-2.68v-5.42l4.14.29c.09,1.36.19,2.68.27,4,.1,1.8.23,3.6.25,5.41a1.72,1.72,0,0,0,1.06,1.72c6.19,3.31,12.36,6.67,18.53,10l3.73,2a1.88,1.88,0,0,0,1,.25c-1.42-2.94-2.83-5.88-4.29-8.92h-9.59c-.08-1.43-.15-2.74-.23-4.17h6.24c-.73-1.29-1.32-2.43-2-3.49-.16-.24-.7-.29-1.06-.3-2.9-.09-5.81-.15-8.71-.22-.39,0-.77,0-1.31-.08v-3.75c3-.28,5.85-.08,8.94-.34-1-1.79-1.9-3.38-2.86-5.11l5-2.28,2.72,4.54c1.27-2.32,2.44-4.48,3.69-6.77L344,128c-2,3.48-3.87,6.85-5.78,10.25l2.39,3.38,2.93-5.18,3.53,1.65c-1.47,2.57-2.88,5-4.35,7.64l6.19,8.78a1.59,1.59,0,0,0,.25-1.28q-.09-9.76-.21-19.54c0-2.2-.06-4.4,0-6.6a1.36,1.36,0,0,0-.91-1.43c-2.18-1-4.32-2.05-6.48-3.08-.39-.18-.77-.38-1.25-.63.53-1.2,1-2.36,1.59-3.59l7.37,3.21c0-1.36.05-2.52,0-3.67,0-.26-.37-.56-.65-.72-1.63-.93-3.29-1.83-4.94-2.74-.34-.18-.67-.39-1.12-.65.57-1.15,1.13-2.25,1.76-3.52l5,2.86a32.6,32.6,0,0,0,.11-3.63c0-1.13,0-2.26,0-3.48h4.72v7.23l4.14-2.38c.51,1.15,1,2.2,1.47,3.32-1.57,1-3,1.88-4.52,2.72a1.78,1.78,0,0,0-1.12,1.94,21.06,21.06,0,0,1,0,2.41l7.43-2.69c.53,1.18,1,2.29,1.55,3.5-.31.17-.59.36-.89.5-2.42,1.12-4.84,2.25-7.27,3.35a1.26,1.26,0,0,0-.9,1.3q0,13.19-.14,26.38a.86.86,0,0,0,.27.62c1.94-2.77,3.87-5.55,5.86-8.4l-4.31-7.73,3.34-1.52c1.08,1.56,2.13,3.1,3.3,4.78l2.17-3.57c-1.87-3.19-3.74-6.36-5.66-9.62l4.41-2.36c1.18,2.55,2.33,5,3.58,7.73,1-1.67,1.69-3.27,2.62-4.91,1.74.72,3.39,1.56,5.15,2.39l-3.14,5.15,9,.32c.09,1.18.18,2.29.28,3.5l-11.63.51c-.48,1.05-1,2.1-1.53,3.31l5.89.55c.08,1.24,0,2.47-.05,3.79a10.45,10.45,0,0,1-1.07.07c-2.32,0-4.63,0-7-.15a1.65,1.65,0,0,0-1.76,1c-1.22,2.33-2.52,4.61-3.79,6.92-.16.29-.29.6-.54,1.14.52-.25.83-.37,1.12-.53,7.37-4.1,14.73-8.22,22.11-12.29a1.58,1.58,0,0,0,.91-1.58c0-2.55.15-5.1.24-7.65,0-.38.06-.76.1-1.14h4.47v6.86a5.56,5.56,0,0,0,2.53-.94c.17-.1.2-.56.21-.85,0-1.34,0-2.67,0-4v-1.22h4.63v3.1c1.9-.6,3.5-1.51,5.34-2.19l2.43,4.38-5.64,2.83,2.55,1.93c-.44.81-.87,1.59-1.36,2.46a15.27,15.27,0,0,1-2.21-1.18,3.3,3.3,0,0,0-4.18-.16,22,22,0,0,1-2.3,1.07l6.15,4.41c-.61.9-1.2,1.75-1.83,2.66l-2.13-1.15c-1.58-.87-3.18-1.71-4.73-2.63a1.65,1.65,0,0,0-1.84,0c-6.79,3.69-13.6,7.34-20.4,11a15.07,15.07,0,0,0-2.69,1.72c.33,0,.66.11,1,.12,2.51.09,5,.14,7.53.28a1.51,1.51,0,0,0,1.58-.9c.93-1.64,1.93-3.24,2.91-4.84l.67-1.06,4.06,2.17-2.84,4.6c1.44,0,2.68,0,3.92,0,.55,0,.68-.47.87-.84l3.65-7c.18-.34.38-.68.62-1.11l3.85,2.74c-1.08,2.09-2.14,4.12-3.28,6.31,1.65.28,3.17.07,4.76.27a16.5,16.5,0,0,1,0,3.65Z" transform="translate(0 -66.54)"/><path class="cls-1" d="M435.63,166.77c-.17-.85-.34-1.7-.53-2.62,1.26-.36,2.53-.32,3.81-.63a14.84,14.84,0,0,0-1.64-2.06c-.53-.66-1.08-1.29-1.68-2l2.21-2.32c.2.22.39.41.55.61,1.16,1.48,2.33,3,3.46,4.46a1,1,0,0,0,1.18.44,12.37,12.37,0,0,0,2.21-.53L443,159.71l2.19-2c.2.19.38.35.53.52.92,1,1.84,2.1,2.74,3.15a.83.83,0,0,0,.83.39l7-1.09,0-.19a2.82,2.82,0,0,0-.42-.22q-9-3-17.9-6.09a1,1,0,0,0-1,.18c-1.27,1-2.56,1.95-3.85,2.91l-.7.51-1.54-2,3.72-3.1a21.31,21.31,0,0,1-2-.65,2,2,0,0,0-2.26.31,17.67,17.67,0,0,1-1.68,1l-1.27-1.75,1.47-1.43-3.75-1.39,1.21-2.85,4.24,1.07-.36-2.34,2.31-.51c.07.27.15.49.2.72.21,1,.42,2,.6,3a.84.84,0,0,0,.65.73c.6.18,1.17.42,1.92.69-.1-.7-.17-1.28-.26-1.85s-.19-1.24-.28-1.86-.19-1.18-.29-1.86l2.88-.25c.2.93.41,1.82.6,2.72.27,1.23.54,2.46.75,3.69a1.21,1.21,0,0,0,.92,1.08c4.6,1.61,9.2,3.26,13.79,4.9l2.78,1a1.34,1.34,0,0,0,.72.07l-3.9-5.68-6.58,1-.61-2.85,4.29-.66c-.64-.81-1.16-1.53-1.76-2.19-.13-.14-.5-.12-.75-.09-2,.25-4,.52-6,.78l-.91.08L441,146l-.2-1.28c2-.5,4-.68,6.11-1.18-.88-1.12-1.67-2.12-2.51-3.21l3.18-2.1,2.36,2.84c.62-1.74,1.2-3.34,1.81-5.05l3.07.74c-1,2.6-1.92,5.12-2.88,7.66l2,2.07,1.47-3.87,2.6.75c-.74,1.93-1.44,3.78-2.18,5.72l5.19,5.37a1.06,1.06,0,0,0,0-.9c-.73-4.47-1.48-8.94-2.22-13.41-.25-1.51-.51-3-.73-4.53a1,1,0,0,0-.78-.89c-1.6-.45-3.18-.94-4.78-1.42l-.92-.3.71-2.64,5.4,1.42c-.14-.93-.23-1.73-.4-2.52,0-.17-.32-.34-.52-.42-1.22-.47-2.46-.91-3.69-1.36l-.84-.33c.27-.85.54-1.67.84-2.6l3.73,1.43a22.65,22.65,0,0,0-.31-2.51c-.11-.77-.24-1.55-.37-2.39l3.24-.5.77,5,2.59-2.07,1.37,2.12c-1,.82-1.88,1.61-2.82,2.35a1.23,1.23,0,0,0-.56,1.45c.13.49.17,1,.27,1.65l4.82-2.63,1.43,2.24c-.19.15-.36.3-.56.43-1.54,1-3.08,2.07-4.63,3.08a.86.86,0,0,0-.48,1c.91,6,1.8,12.09,2.71,18.14a.57.57,0,0,0,.25.4l3.13-6.4L464,142.47l2.13-1.4,2.77,2.93,1.12-2.68-4.91-6,2.77-2.09,3.29,4.93c.51-1.25.81-2.43,1.27-3.65,1.28.31,2.5.71,3.8,1.09l-1.61,3.87,6.21-.73.56,2.37-7.93,1.59c-.22.77-.45,1.55-.7,2.44l4.11-.25c.18.84.24,1.7.37,2.61-.27.06-.5.13-.73.16-1.6.22-3.19.46-4.79.64a1.14,1.14,0,0,0-1.11.86c-.59,1.73-1.24,3.44-1.87,5.16-.08.21-.13.44-.25.84.33-.23.53-.34.72-.49q6.93-5.4,13.88-10.8a1.1,1.1,0,0,0,.46-1.18c-.25-1.75-.45-3.52-.66-5.28,0-.26,0-.53-.05-.79l3.07-.48.73,4.71a3.66,3.66,0,0,0,1.64-.91c.11-.09.08-.41.06-.61-.14-.92-.29-1.83-.44-2.75l-.13-.84,3.18-.49.33,2.13c1.24-.62,2.25-1.41,3.44-2.08.69.9,1.39,1.79,2.14,2.76l-3.58,2.54,2,1.06-.67,1.84a10.56,10.56,0,0,1-1.65-.59,2.32,2.32,0,0,0-2.89.35,14.43,14.43,0,0,1-1.47,1l4.7,2.38-1,2-1.59-.56c-1.18-.43-2.37-.84-3.54-1.31a1.15,1.15,0,0,0-1.26.19q-6.41,4.89-12.85,9.74a11.21,11.21,0,0,0-1.66,1.46,5.46,5.46,0,0,0,.7,0c1.73-.2,3.47-.44,5.2-.61a1,1,0,0,0,1-.79c.47-1.22,1-2.42,1.49-3.63.1-.25.22-.5.35-.79l3,1-1.47,3.47,2.7-.42c.38-.06.41-.4.51-.67l1.76-5.19c.09-.26.19-.51.31-.83l2.94,1.47c-.53,1.55-1,3.06-1.58,4.69,1.15,0,2.18-.29,3.3-.33a12.23,12.23,0,0,1,.39,2.51Z" transform="translate(0 -66.54)"/><path class="cls-1" d="M178.84,129.7l.36-1.82c.9.1,1.7.46,2.61.59a10.47,10.47,0,0,0-.51-1.75c-.17-.56-.36-1.11-.56-1.72l2-.91c.07.2.14.36.19.54.36,1.25.73,2.51,1,3.77a.69.69,0,0,0,.64.6,8.24,8.24,0,0,0,1.56.23l-.78-2.13,1.93-.71c.07.18.15.33.2.48.31.92.63,1.83.93,2.75.08.22.16.4.43.46l4.81,1.15.06-.11a1.83,1.83,0,0,0-.21-.26l-9.9-8.61a.67.67,0,0,0-.71-.16c-1.08.3-2.16.57-3.24.86l-.59.13-.45-1.7,3.2-1c-.43-.36-.81-.63-1.13-1a1.4,1.4,0,0,0-1.53-.39,11.54,11.54,0,0,1-1.35.22l-.36-1.46,1.32-.53-2-1.88,1.53-1.51,2.44,1.8.38-1.6,1.62.28c0,.19,0,.36-.06.51q-.18,1-.39,2.07a.57.57,0,0,0,.22.64c.34.27.64.58,1.05,1,.12-.48.23-.87.32-1.26s.21-.84.31-1.27l.3-1.27,1.92.6c-.11.65-.22,1.28-.33,1.91-.15.86-.3,1.72-.49,2.56a.84.84,0,0,0,.31.93q3.8,3.38,7.57,6.79l1.52,1.36a.91.91,0,0,0,.45.23c-.33-1.54-.67-3.07-1-4.67l-4.5-1.07.36-2,2.93.7c-.2-.69-.35-1.29-.56-1.86,0-.13-.29-.22-.46-.26-1.35-.37-2.71-.72-4.07-1.08l-.6-.19.21-.89.21-.87c1.42.2,2.76.62,4.23.85-.26-1-.5-1.8-.76-2.72l2.59-.52c.26.81.5,1.58.77,2.44l2.5-2.76,1.77,1.28-3.86,4.17.74,1.85,2-2.1,1.47,1.17-2.9,3.1c.63,1.59,1.27,3.18,1.92,4.81a.77.77,0,0,0,.26-.57l2.1-9.2c.24-1,.46-2.07.72-3.1a.66.66,0,0,0-.27-.77c-.91-.71-1.8-1.45-2.69-2.17l-.52-.44,1.15-1.51,3.1,2.34c.15-.64.31-1.18.4-1.73,0-.12-.11-.31-.22-.41-.66-.62-1.34-1.23-2-1.84-.14-.12-.27-.26-.46-.43l1.22-1.45,2,1.89a16.64,16.64,0,0,0,.46-1.69c.13-.52.25-1.05.39-1.63l2.21.53-.81,3.4,2.21-.65.32,1.72c-.84.27-1.63.54-2.43.77-.43.12-.69.31-.74.78a11,11,0,0,1-.26,1.13l3.79-.42.33,1.81-.47.14-3.79.75a.62.62,0,0,0-.57.52c-1,4.12-2,8.24-3,12.36a.41.41,0,0,0,.06.32l3.69-3.28c-.38-1.35-.76-2.7-1.15-4.11l1.74-.34,1,2.61,1.42-1.43c-.52-1.71-1-3.41-1.58-5.15l2.34-.62c.26,1.33.52,2.62.81,4,.66-.66,1.16-1.34,1.78-2,.74.54,1.42,1.12,2.15,1.71l-2,2.06,4.18,1.16-.26,1.67-5.51-1.06-1.1,1.38,2.71.92c-.1.59-.29,1.16-.45,1.77-.19,0-.35,0-.51-.08-1.09-.28-2.17-.55-3.25-.85a.78.78,0,0,0-.94.26c-.83,1-1.7,1.88-2.55,2.82-.11.12-.2.25-.38.47l.58-.12,11.76-3.29a.75.75,0,0,0,.61-.63c.3-1.2.64-2.38,1-3.57.05-.18.11-.35.17-.53l2.1.51-.77,3.22a2.62,2.62,0,0,0,1.29-.16c.1,0,.16-.24.2-.38.15-.62.29-1.25.44-1.88,0-.18.09-.36.14-.57l2.17.52-.35,1.45c1-.07,1.82-.31,2.76-.42l.65,2.33-3,.69,1,1.19-.91,1a7.35,7.35,0,0,1-.91-.81,1.61,1.61,0,0,0-2-.54,9.39,9.39,0,0,1-1.2.24l2.4,2.77-1.16,1-.87-.78c-.65-.59-1.3-1.16-1.93-1.77a.81.81,0,0,0-.86-.21c-3.6,1-7.21,1.92-10.81,2.88a7.65,7.65,0,0,0-1.46.5,3.61,3.61,0,0,0,.46.17c1.17.33,2.34.63,3.5,1a.72.72,0,0,0,.84-.25c.62-.66,1.28-1.3,1.92-1.94.13-.14.27-.26.43-.42l1.66,1.47L211,135.4l1.84.44c.26.06.37-.14.5-.3.84-.95,1.67-1.91,2.5-2.87l.41-.45,1.51,1.72-2.25,2.6c.74.31,1.48.39,2.2.66a8,8,0,0,1-.4,1.71Z" transform="translate(0 -66.54)"/><path class="cls-1" d="M27.64,148.65l-1.05-2.86c1.35-.62,2.78-.8,4.16-1.38a16.55,16.55,0,0,0-2.2-2c-.71-.65-1.45-1.26-2.25-1.95l2.08-3c.26.22.5.39.72.59,1.57,1.46,3.15,2.9,4.68,4.39a1.11,1.11,0,0,0,1.4.3,13.25,13.25,0,0,0,2.39-1l-2.92-2.32,2.11-2.63c.26.19.49.33.69.5q1.83,1.51,3.64,3.05a1,1,0,0,0,1,.29c2.56-.84,5.14-1.65,7.71-2.48v-.21a3.2,3.2,0,0,0-.52-.18l-21.18-3.66a1.12,1.12,0,0,0-1.13.38c-1.25,1.34-2.54,2.65-3.81,4-.21.22-.43.42-.71.69l-2.09-2L24,133c-.92-.14-1.68-.19-2.4-.38a2.32,2.32,0,0,0-2.48.75,18.75,18.75,0,0,1-1.71,1.46l-1.73-1.74,1.39-1.87-4.45-.9c.28-1.14.56-2.24.85-3.41l4.95.45-.82-2.57,2.51-1c.13.28.26.51.35.76.41,1.07.83,2.14,1.2,3.23a.94.94,0,0,0,.86.7c.7.1,1.39.27,2.27.44-.23-.77-.41-1.4-.61-2s-.43-1.36-.65-2-.41-1.29-.66-2l3.2-.78c.39,1,.79,2,1.16,2.94.51,1.34,1,2.66,1.5,4a1.36,1.36,0,0,0,1.21,1c5.46,1,10.92,2,16.37,3.07l3.3.61a1.4,1.4,0,0,0,.82-.05L45,128l-7.23,2.31c-.4-1.06-.77-2-1.18-3.08l4.7-1.51c-.86-.8-1.58-1.51-2.36-2.14-.17-.14-.59,0-.86,0-2.21.63-4.41,1.29-6.62,1.94l-1,.25L30,124.36,29.58,123c2.16-.93,4.39-1.48,6.65-2.41-1.19-1.11-2.24-2.1-3.39-3.16l3.21-2.93,3.15,2.77c.39-2.06.75-4,1.14-6l3.58.29c-.64,3.1-1.25,6.1-1.88,9.12l2.62,2c.33-1.61.64-3.07,1-4.61l3.05.39c-.48,2.29-.94,4.5-1.43,6.81L54,130.32a1.24,1.24,0,0,0-.13-1Q51.47,122,49,114.63c-.55-1.65-1.11-3.3-1.63-5a1.08,1.08,0,0,0-1-.86c-1.87-.22-3.75-.49-5.62-.75l-1.09-.17c.11-1,.21-2,.33-3.09l6.32.63c-.32-1-.57-1.9-.9-2.75-.07-.19-.41-.34-.66-.39-1.45-.31-2.92-.58-4.38-.87l-1-.22c.16-1,.31-2,.48-3.07l4.45.94a27,27,0,0,0-.79-2.76c-.26-.85-.54-1.69-.84-2.62l3.55-1.14L48,98l2.54-2.79,1.91,2.14c-.95,1.1-1.82,2.15-2.75,3.14a1.41,1.41,0,0,0-.37,1.73,16.8,16.8,0,0,1,.59,1.81l4.95-3.82c.68.77,1.32,1.48,2,2.27-.19.2-.36.41-.55.59-1.55,1.43-3.1,2.86-4.66,4.27a1,1,0,0,0-.37,1.21q3.15,9.93,6.26,19.89a.69.69,0,0,0,.36.41c.79-2.56,1.57-5.12,2.38-7.75l-5.11-4.77,2.15-2,3.64,2.81.77-3.22-6.58-5.88,2.75-2.84,4.56,5c.36-1.5.48-2.87.79-4.33,1.48.12,2.93.35,4.46.56-.38,1.54-.73,3-1.13,4.63l6.85-1.92c.35.86.69,1.67,1,2.56l-8.63,3.19c-.11.91-.22,1.82-.35,2.86l4.57-1c.36.91.57,1.86.88,2.87-.3.11-.54.23-.8.31-1.75.53-3.5,1.08-5.26,1.56a1.31,1.31,0,0,0-1.1,1.17c-.35,2-.78,4.08-1.18,6.12-.05.26-.07.52-.13,1,.33-.31.54-.48.71-.67q6.84-7.3,13.69-14.6a1.23,1.23,0,0,0,.3-1.4c-.59-1.93-1.12-3.88-1.67-5.82-.08-.29-.13-.59-.2-.89l3.37-1.08,1.66,5.17A4.36,4.36,0,0,0,82,109.16c.1-.11,0-.47,0-.69-.32-1-.65-2-1-3-.1-.29-.19-.58-.3-.92l3.49-1.12.75,2.34c1.28-.92,2.27-2,3.49-3l2.89,2.72L87.72,109l2.39.84c-.14.72-.27,1.41-.43,2.18a11.09,11.09,0,0,1-2-.36,2.63,2.63,0,0,0-3.19.9,15.59,15.59,0,0,1-1.47,1.35l5.7,1.85c-.25.82-.48,1.6-.73,2.44l-1.89-.35c-1.4-.28-2.81-.52-4.2-.84a1.29,1.29,0,0,0-1.39.44c-4.22,4.41-8.47,8.81-12.7,13.21a11.37,11.37,0,0,0-1.61,1.94c.26-.05.52-.08.78-.15,1.91-.53,3.81-1.1,5.74-1.61a1.2,1.2,0,0,0,1-1.06c.3-1.45.68-2.9,1-4.34l.26-1,3.58.65c-.35,1.39-.68,2.73-1,4.16l3-.95c.41-.14.39-.52.45-.85q.54-3.06,1.06-6.14c0-.3.12-.6.2-1l3.56,1.14c-.31,1.83-.62,3.62-.94,5.55,1.3-.2,2.4-.72,3.65-.95a13.05,13.05,0,0,1,.88,2.74Z" transform="translate(0 -66.54)"/><g class="cls-2"><path class="cls-1" d="M84,91.93l-.76-.65c.44-.53.83-1,1.26-1.52a.66.66,0,0,0,.11-.81,19,19,0,0,0-1-2,4.74,4.74,0,0,0-.15.5c-.41,2.17-.81,4.34-1.24,6.5a.82.82,0,0,0,.34.94c.57.41,1.11.87,1.69,1.34l-.54,1L81.88,96a3.56,3.56,0,0,0-.33,1.35c0,.13.16.31.29.41.44.36.91.68,1.4,1l-.72.7-1.21-.78L81,99.84l-1.17-.22L80,98.49l-1.37.09-.14-.94,1.76-.3.29-1.52-2.33.27-.25-.91c.81-.26,1.56-.52,2.33-.75a.69.69,0,0,0,.55-.61c.39-2.35.8-4.7,1.21-7.06a2.2,2.2,0,0,0,0-.3,6.67,6.67,0,0,0-1,1c-.32.32-.64.66-1,1l.68,2.39-1,.26c-.1-.36-.17-.71-.29-1-.06-.14-.2-.33-.33-.36a.69.69,0,0,0-.45.21A.89.89,0,0,0,78.4,91c.33.8.59,1.64.92,2.54l-1.25.36-.72-2.13-1,1.07-1.16-.93,1.06-1.11c-.84-.32-1.69-.31-2.52-.59l.2-1.06a3.23,3.23,0,0,1,.44,0c.71.1,1.42.16,2.11.31A.94.94,0,0,0,77.54,89l.26-.35-1.72-.32.11-1a3,3,0,0,1,1.24.06c.5,0,1.06.26,1.48.1s.64-.69.94-1.06l.81-1c-.29,0-.44,0-.57.09-2.12.69-4.24,1.38-6.36,2a.77.77,0,0,0-.61.64c-.12.59-.3,1.16-.46,1.73-.06.22-.14.43-.23.68l-1.12-.28.37-2-.56.1a.67.67,0,0,0-.62.69,8.07,8.07,0,0,1-.19,1l-1.09-.15.07-1-1.67.41-.35-1.14,1.53-.67-.45-.72.54-.61c.63.42,1.21,1,2.13.53l-1.24-1.5.66-.56,1.93,1.51L80,83.85v-.17c-.84-.18-1.68-.38-2.53-.52-.14,0-.36.16-.49.3-.41.45-.81.93-1.24,1.43l-1-.9.91-1.09-1.29-.24L72.65,85l-1-1.06L73,82.4l-1.29-.24a6.62,6.62,0,0,1,.2-1.81l1.57.3-.74-2.06L73.9,78l.39,1.12c.1.28.19.57.28.85.33,1,.33,1,1.5,1l-.47-1.21,1.09-.47c.22.54.45,1,.62,1.54a.89.89,0,0,0,.82.68,23,23,0,0,0,2.41.31c-.1-.1-.2-.22-.31-.31C78.36,80,76.48,78.5,74.62,77a.89.89,0,0,0-.94-.15c-.62.22-1.26.39-1.93.6l-.33-1,1.76-.68a1.7,1.7,0,0,0-2.29-.6l-.25-.8.71-.43-.58-.5c-.19-.16-.38-.32-.62-.54l.82-.9,1.5,1,.23-.89.93.06-.16,1.07c-.1.79,0,.88.8,1.27l.41-2.17,1.13.33a18.72,18.72,0,0,1-.28,2,1.37,1.37,0,0,0,.61,1.57c1.61,1.25,3.17,2.56,4.76,3.85.17.14.35.26.52.38l.14-.08c-.22-.8-.43-1.61-.68-2.41,0-.12-.27-.22-.43-.26-.51-.12-1-.2-1.56-.3l-.7-.17.15-1.13,1.73.32c-.14-.41-.22-.69-.31-1s-.33-.29-.56-.34l-2.56-.48.21-1.09,2.48.34-.5-1.58L80.29,72l.56,1.38,1.4-1.64,1.07.67-.9,1.07-.71.84c-.64.76-.64.78,0,1.68l1.06-1.2.86.62L82,77.34l1.27,2.79c.09-.26.16-.38.19-.52.41-2.28.8-4.57,1.23-6.85a.85.85,0,0,0-.41-1c-.56-.35-1.07-.78-1.68-1.23l.62-.9,1.87,1.24.14-.46a.8.8,0,0,0-.34-1,14.85,14.85,0,0,1-1.21-1l.65-.88,1.23,1,.48-1.93,1.25.23-.38,2,1.3-.39.25,1a9.25,9.25,0,0,1-1.06.39A1,1,0,0,0,86.59,71a18.94,18.94,0,0,0,2.18-.22l.24,1-2.76.72-1.48,7.78a4,4,0,0,0,.41-.28c.43-.42.84-.86,1.29-1.25a.77.77,0,0,0,.26-1c-.24-.57-.4-1.17-.62-1.82l1-.25.7,1.5.81-.88-1.07-3,1.34-.41.6,2.34,1-1.22,1.28.91-1.12,1.3,2.47.57-.09,1-.56,0-2.11-.3c-.73-.1-.82,0-1.11.78l1.52.5-.25,1c-.7-.14-1.36-.23-2-.39a.83.83,0,0,0-1,.36c-.42.57-.89,1.1-1.44,1.77a4.4,4.4,0,0,0,.5-.09c2.18-.72,4.36-1.46,6.54-2.17a.74.74,0,0,0,.58-.66c.15-.73.35-1.46.54-2.23l1.22.23L95.1,78.4l.86-.15.32-1.68,1.22.24,0,.78c.51.08,1-.21,1.54-.21l.45,1.29-1.7.49.54.71-.43.56a1.93,1.93,0,0,1-.41-.26c-.6-.71-1.27-.53-2-.19l1.44,1.52-.63.65c-.56-.47-1.11-.9-1.65-1.36a.64.64,0,0,0-.68-.15l-6.83,2.17-.32.12a4.21,4.21,0,0,0,1.3.36,3.11,3.11,0,0,0,1.4.21c.4-.13.68-.64,1-1L91,82l1,.77-.92,1.06c.7.44,1.1.39,1.57-.2L94,81.86l.91,1L93.7,84.44l1.27.34-.29,1.53-1.32-.19.63,2-1.25.68c-.23-.77-.42-1.48-.63-2.18s0-.71-1-.84a2.42,2.42,0,0,0-.4,0c.08.23.14.42.21.61s.13.34.23.59l-1.22.54c-.23-.62-.45-1.17-.63-1.74a.71.71,0,0,0-.62-.54A15.6,15.6,0,0,0,86.48,85a3,3,0,0,0,.3.32c1.81,1.51,3.64,3,5.45,4.53a.73.73,0,0,0,.87.13c.57-.24,1.16-.43,1.79-.66l.47.81-1.82.84c.62,1,1.43.54,2.22.35l.39.8-1,.44,1.4,1.16-.81,1.08-1.42-.9-.23.73L93,94.38l.18-1.69-.74-.54-.39,2.06L90.88,94c.09-.65.13-1.31.27-1.95a1.15,1.15,0,0,0-.46-1.29C89.07,89.39,87.5,88,85.9,86.59a1.43,1.43,0,0,0-.61-.34l.83,2.54,2.5.61-.1,1.09-1.71-.19c.06.27.12.46.16.65a.62.62,0,0,0,.56.52c.63.11,1.26.25,1.89.39l.78.19L90,93.15l-2.43-.46.5,1.57-1.44.49L86,93.3l-1.48,1.79-1-.64,2.09-2.59-.49-1.19Z" transform="translate(0 -66.54)"/></g><g class="cls-2"><path class="cls-1" d="M180.52,103.53l-.5-.28c.19-.35.36-.68.55-1a.38.38,0,0,0,0-.47,7.54,7.54,0,0,0-.78-1,2.58,2.58,0,0,0,0,.29c0,1.26,0,2.53,0,3.79a.45.45,0,0,0,.29.49c.36.18.72.38,1.09.58l-.2.59-1.16-.46a2.18,2.18,0,0,0,0,.8c0,.07.12.16.21.2.28.15.58.29.9.44l-.33.47-.76-.31-.06.67H179l-.05-.65-.77.19-.17-.51,1-.36v-.89l-1.29.41-.23-.49c.42-.24.82-.46,1.23-.67a.38.38,0,0,0,.24-.4c0-1.37,0-2.74-.07-4.1a.68.68,0,0,0-.05-.17,4.25,4.25,0,0,0-.46.64c-.15.22-.29.44-.44.68l.63,1.28-.53.25c-.1-.19-.18-.38-.28-.56s-.15-.17-.22-.16a.36.36,0,0,0-.23.16.51.51,0,0,0,0,.62c.28.42.51.86.79,1.33l-.66.33-.63-1.12-.48.72-.75-.4.48-.74c-.51-.09-1,0-1.48-.06V103l.24,0c.41,0,.82-.06,1.22,0a.53.53,0,0,0,.58-.36,1.45,1.45,0,0,1,.11-.23h-1l0-.59a1.77,1.77,0,0,1,.71-.1,2.07,2.07,0,0,0,.84-.1c.2-.13.28-.46.41-.7s.21-.39.35-.66a3.07,3.07,0,0,0-.31.11l-3.36,1.84a.42.42,0,0,0-.28.42c0,.34,0,.68-.07,1,0,.13,0,.26-.06.41l-.66,0v-1.16l-.31.12a.37.37,0,0,0-.27.45,6,6,0,0,1,0,.6l-.63,0-.07-.56-.89.41-.32-.61.79-.54-.33-.36.23-.39c.41.16.8.43,1.26.07l-.86-.71.32-.39,1.24.64,4-2.13,0-.09c-.49,0-1,0-1.48,0-.08,0-.18.13-.24.22-.19.3-.36.61-.54.94l-.65-.41.4-.71h-.75l-.7,1.51-.67-.49.6-1h-.76a4,4,0,0,1-.08-1h.92l-.64-1.08.58-.47c.12.22.23.4.34.59s.16.3.25.45c.28.51.29.51.94.38l-.39-.63.56-.38c.18.28.37.53.51.8a.5.5,0,0,0,.54.29,11,11,0,0,0,1.39-.08l-.21-.14c-1.21-.63-2.43-1.26-3.63-1.9a.5.5,0,0,0-.55,0c-.32.18-.66.35-1,.54l-.28-.5.91-.57a1,1,0,0,0-1.35-.1l-.23-.42.36-.31-.38-.22-.41-.24.37-.6.94.38,0-.52.53-.07c0,.24,0,.43,0,.62,0,.46.07.5.58.63V93.51l.68.06a11.81,11.81,0,0,1,.06,1.18.76.76,0,0,0,.5.81c1.05.53,2.07,1.11,3.1,1.66l.33.16.07-.06c-.21-.43-.41-.86-.64-1.29,0-.06-.17-.09-.27-.09-.3,0-.6,0-.91,0l-.41,0,0-.65h1l-.28-.52c-.08-.14-.22-.13-.35-.13h-1.49V94L176,93.9l-.45-.83.79-.36.46.71.61-1.07.68.26-.4.7c-.1.18-.2.37-.31.55-.28.49-.27.5.18.94L178,94l.55.25-.7,1.26,1,1.44c0-.16,0-.24,0-.32,0-1.33,0-2.66,0-4a.49.49,0,0,0-.34-.54c-.35-.14-.69-.33-1.07-.51l.25-.58,1.18.5c0-.12,0-.19,0-.27a.46.46,0,0,0-.31-.56,7.74,7.74,0,0,1-.78-.43l.27-.56.81.44L179,89h.74v1.16l.69-.35.24.51a5.7,5.7,0,0,1-.55.33.56.56,0,0,0-.35.78c.42,0,.77-.29,1.2-.35l.25.54-1.48.7v4.54a1.83,1.83,0,0,0,.2-.21c.2-.28.38-.57.59-.84a.44.44,0,0,0,0-.6c-.19-.29-.35-.61-.54-1l.53-.25.55.77.36-.58-.92-1.58.7-.37.59,1.25.45-.79.81.37-.49.85L184,94l0,.54a2,2,0,0,1-.31,0c-.41,0-.82,0-1.23.06s-.46.07-.54.56l.91.11,0,.6c-.41,0-.79,0-1.16,0a.49.49,0,0,0-.53.31c-.17.36-.38.71-.62,1.15l.28-.1c1.15-.64,2.29-1.29,3.44-1.92a.43.43,0,0,0,.26-.43c0-.44,0-.87.06-1.32h.72v1.13l.47-.18v-1h.71l.06.44c.3,0,.52-.22.85-.28l.39.68-.9.46.37.34-.18.36a.89.89,0,0,1-.26-.11c-.41-.33-.77-.15-1.16.12l1,.7-.28.43c-.37-.2-.73-.39-1.07-.59a.38.38,0,0,0-.41,0c-1.2.66-2.4,1.3-3.61,1.95l-.17.1a2.8,2.8,0,0,0,.77.07c.28,0,.6.08.81,0s.32-.43.47-.66l.24-.37.64.33-.4.7c.44.17.66.09.86-.29s.37-.71.58-1.11l.62.44-.52,1,.75.06v.89l-.76,0,.56,1.06-.63.51-.58-1.16c-.21-.41-.11-.4-.66-.37l-.23,0c.07.13.13.23.19.32l.19.31-.63.44c-.19-.33-.37-.62-.54-.92a.39.39,0,0,0-.41-.23,7.76,7.76,0,0,0-1.26.08c.07,0,.13.11.2.15,1.19.65,2.38,1.3,3.56,2a.44.44,0,0,0,.5,0c.29-.2.61-.37.94-.57l.35.41-.94.66c.45.47.86.16,1.29,0l.3.4-.51.36.91.5-.34.7-.9-.36-.05.44h-.63l-.07-1-.48-.23V104h-.69a10.68,10.68,0,0,1,0-1.13.67.67,0,0,0-.4-.68c-1.05-.59-2.09-1.21-3.14-1.83a.81.81,0,0,0-.38-.12l.74,1.34,1.47.07.06.63-1,.08.16.35a.34.34,0,0,0,.37.22l1.11,0,.45,0v.64H182.6l.45.83-.76.43-.51-.75-.64,1.16-.62-.25.91-1.68-.41-.62Z" transform="translate(0 -66.54)"/></g><g class="cls-2"><path class="cls-1" d="M237.23,105.68l-.38-.76c.52-.27,1-.53,1.48-.77a.55.55,0,0,0,.35-.59,15.74,15.74,0,0,0-.11-1.91,4.19,4.19,0,0,0-.28.34c-1,1.55-2.06,3.11-3.1,4.65a.68.68,0,0,0-.05.84c.31.51.58,1,.88,1.6l-.73.56-1.06-1.51a2.92,2.92,0,0,0-.69,1c-.06.09,0,.29.08.41.23.42.49.83.75,1.28l-.79.31-.68-1-.62.76-.83-.55.46-.84-1.09-.38.21-.78,1.47.35.72-1.09-1.91-.55.11-.8c.72.06,1.39.11,2.06.19a.58.58,0,0,0,.63-.29c1.08-1.71,2.17-3.4,3.26-5.1a2.08,2.08,0,0,0,.08-.24,5.47,5.47,0,0,0-1.1.41l-1.1.47-.26,2.09-.86-.13c0-.32.1-.61.11-.91a.49.49,0,0,0-.13-.39.56.56,0,0,0-.42,0,.74.74,0,0,0-.51.75c0,.73-.07,1.47-.12,2.27l-1.09-.13.14-1.89-1.16.49-.6-1.1,1.19-.52c-.55-.52-1.22-.8-1.77-1.29l.51-.76c.1,0,.23.09.34.15.52.31,1,.59,1.54.93a.8.8,0,0,0,1,0l.31-.19-1.23-.82.42-.76a2.48,2.48,0,0,1,1,.46c.38.2.74.54,1.12.56s.72-.33,1.08-.52l1-.53a4,4,0,0,0-.48-.12l-5.62-.49a.65.65,0,0,0-.69.29c-.28.42-.61.81-.92,1.2-.12.15-.25.28-.4.45l-.78-.59.94-1.42-.47-.11a.56.56,0,0,0-.71.33,7,7,0,0,1-.48.74l-.79-.48.36-.74-1.42-.23.1-1,1.41,0-.11-.71.61-.29c.36.53.62,1.18,1.49,1.11l-.48-1.57.7-.23,1,1.81,6.67.67.05-.13c-.6-.41-1.18-.84-1.8-1.23-.1-.06-.33,0-.48.07-.47.22-.93.46-1.43.71l-.46-1,1.07-.55-.92-.61-2.1,1.27-.41-1.14,1.56-.77-.93-.61a5.25,5.25,0,0,1,.76-1.34l1.12.75.1-1.85,1.09-.1c0,.36,0,.68-.06,1l-.06.76c-.07.86-.07.87.84,1.23l0-1.09h1c0,.49,0,1,0,1.4a.74.74,0,0,0,.43.8,17.72,17.72,0,0,0,1.76,1,1.73,1.73,0,0,0-.14-.34c-1-1.77-1.95-3.53-2.9-5.31a.74.74,0,0,0-.68-.42c-.56,0-1.11-.11-1.7-.17l.06-.85,1.58,0c-.14-.9-.76-1.17-1.57-1.22l.06-.7.69-.1L233,87c-.1-.19-.19-.38-.31-.62l.94-.44.85,1.25.47-.62.7.35-.47.78c-.34.58-.33.67.2,1.25l1-1.55.78.62a16.93,16.93,0,0,1-.89,1.5,1.13,1.13,0,0,0,0,1.41c.84,1.5,1.63,3,2.44,4.56A4.62,4.62,0,0,0,239,96l.13,0c.09-.7.2-1.4.27-2.1,0-.11-.14-.26-.26-.34-.36-.27-.74-.5-1.1-.76-.16-.1-.31-.22-.5-.36l.49-.83,1.24.82.07-.85c0-.24-.15-.34-.31-.45l-1.84-1.22.52-.77,1.82,1.07.13-1.39,1.26.2,0,1.25,1.63-.81.61.86-1.05.54-.83.42c-.75.38-.75.4-.55,1.31l1.22-.58.47.76-1.89,1,.07,2.59a2.22,2.22,0,0,0,.32-.34c1.07-1.64,2.13-3.29,3.21-4.92a.73.73,0,0,0,0-.94c-.32-.46-.58-1-.9-1.51l.78-.5,1,1.58.26-.3a.68.68,0,0,0,.08-.94c-.23-.36-.39-.75-.61-1.17l.79-.47.63,1.19,1-1.34.9.59-.95,1.43,1.14.13-.12.82a7.24,7.24,0,0,1-.95,0,.83.83,0,0,0-1.06.68c.52.32,1.17.27,1.76.55l-.14.86-2.38-.35-3.71,5.57a1.68,1.68,0,0,0,.41-.09c.47-.18.93-.39,1.41-.54a.67.67,0,0,0,.54-.71c0-.51.07-1,.12-1.61L245,94l.05,1.39L246,95l.16-2.7,1.17.12-.3,2,1.2-.61.69,1.13-1.3.64,1.74,1.25-.39.71-.42-.21c-.51-.31-1-.63-1.54-.93s-.63-.29-1.12.24l1,.89-.53.7c-.5-.33-1-.62-1.42-1a.7.7,0,0,0-.89,0c-.52.3-1.06.56-1.7.9.22,0,.32.09.41.1l5.8.46a.64.64,0,0,0,.67-.32c.36-.52.75-1,1.15-1.56l.88.58-.92,1.38L251,99l.8-1.2.88.59-.29.6c.38.22.83.15,1.27.33l-.07,1.16-1.49-.17.19.72-.52.29a1.53,1.53,0,0,1-.23-.33c-.23-.75-.82-.83-1.52-.81l.62,1.65-.7.29c-.29-.54-.57-1.06-.84-1.59a.52.52,0,0,0-.48-.34l-6-.56h-.29a3.81,3.81,0,0,0,.9.71c.33.23.66.59,1,.62s.74-.28,1.11-.44l.59-.26.53.93-1.07.53c.4.57.73.66,1.29.36l1.63-.9.39,1.05-1.49.85.89.69-.73,1.09-1-.58-.17,1.75-1.19.12c.08-.67.16-1.29.23-1.9s.19-.57-.51-1a2.44,2.44,0,0,0-.31-.14c0,.21,0,.38,0,.55s0,.31,0,.53l-1.13,0c0-.57,0-1.07.08-1.57a.58.58,0,0,0-.31-.62,12.54,12.54,0,0,0-1.61-.93,3.42,3.42,0,0,0,.13.34l2.75,5.32a.62.62,0,0,0,.64.39c.52,0,1,0,1.61.08l.1.78-1.7,0c.18.94.93.89,1.61,1l0,.74-.92,0,.71,1.36-1,.58-.81-1.17-.43.49-.77-.51.7-1.25-.39-.67-1,1.48-.85-.56c.29-.48.53-1,.86-1.43a1,1,0,0,0,.06-1.16c-.81-1.59-1.57-3.2-2.35-4.8a1.32,1.32,0,0,0-.37-.47l-.19,2.25,1.74,1.29-.43.82-1.27-.71c0,.23-.06.4-.09.56a.52.52,0,0,0,.27.58c.45.3.9.62,1.34.93l.54.41-.52.78-1.74-1.16-.13,1.39-1.28-.09V107.4l-1.73.9-.55-.82,2.48-1.32v-1.09Z" transform="translate(0 -66.54)"/></g><g class="cls-2"><path class="cls-1" d="M340.79,126.09l-1.2-.69c.46-.84.86-1.64,1.32-2.41a.92.92,0,0,0-.05-1.13,22.28,22.28,0,0,0-1.91-2.52c0,.24-.06.48-.06.72,0,3.07,0,6.15,0,9.22a1.14,1.14,0,0,0,.71,1.2c.89.42,1.75.91,2.67,1.4l-.49,1.44-2.83-1.11a4.91,4.91,0,0,0-.1,1.93c0,.18.29.39.5.5.7.36,1.42.69,2.2,1.07l-.81,1.14-1.85-.75-.15,1.62h-1.66l-.12-1.58-1.85.47-.43-1.25,2.34-.87v-2.16l-3.13,1-.57-1.2c1-.56,2-1.11,3-1.63a.94.94,0,0,0,.6-1c-.07-3.33-.12-6.66-.18-10a2.91,2.91,0,0,0-.11-.4,9.21,9.21,0,0,0-1.13,1.57c-.36.52-.7,1.07-1.08,1.65l1.55,3.1-1.31.62c-.23-.47-.42-.93-.67-1.36a.82.82,0,0,0-.55-.41.84.84,0,0,0-.55.41,1.21,1.21,0,0,0,0,1.5c.66,1,1.24,2.09,1.92,3.23l-1.62.82-1.54-2.73-1.16,1.74-1.83-1,1.17-1.81c-1.23-.22-2.41,0-3.61-.15v-1.51a5,5,0,0,1,.6-.1c1-.06,2-.16,3-.13a1.31,1.31,0,0,0,1.4-.89c.06-.14.13-.27.26-.54H329l-.11-1.44a4.32,4.32,0,0,1,1.72-.24,5.19,5.19,0,0,0,2.05-.25c.49-.31.69-1.11,1-1.7s.5-1,.84-1.61a6.4,6.4,0,0,0-.76.27c-2.73,1.49-5.44,3-8.18,4.46a1.08,1.08,0,0,0-.67,1c0,.83-.11,1.66-.18,2.49,0,.31-.08.61-.13,1l-1.62-.09v-2.82l-.74.28a.92.92,0,0,0-.68,1.11,11.31,11.31,0,0,1,0,1.44l-1.53.08-.17-1.36-2.17,1-.78-1.48,1.93-1.31-.8-.87.57-1c1,.41,1.93,1.06,3.06.17l-2.1-1.73.77-.95,3,1.57,9.78-5.18-.05-.23c-1.19,0-2.39-.07-3.59,0-.2,0-.45.32-.59.54-.46.73-.87,1.48-1.33,2.28l-1.56-1,1-1.73h-1.83l-1.71,3.67-1.62-1.2,1.44-2.47h-1.83a8.53,8.53,0,0,1-.19-2.53h2.23l-1.55-2.63,1.4-1.14.82,1.43c.21.36.41.73.61,1.09.7,1.25.7,1.25,2.29.92l-.94-1.53,1.36-.92c.44.67.89,1.28,1.25,1.94a1.22,1.22,0,0,0,1.31.71,30.1,30.1,0,0,0,3.38-.19,4.11,4.11,0,0,0-.51-.34c-2.95-1.54-5.91-3.07-8.85-4.63a1.19,1.19,0,0,0-1.32,0c-.79.46-1.62.86-2.49,1.32l-.69-1.22,2.23-1.38c-1-1.11-2.13-.91-3.29-.23l-.55-1,.86-.77-.93-.54-1-.57.9-1.46,2.3.93.09-1.28,1.28-.15c0,.56,0,1,.07,1.5.06,1.11.15,1.21,1.41,1.53V101.7l1.64.14a28.17,28.17,0,0,1,.15,2.87,1.87,1.87,0,0,0,1.23,2c2.54,1.29,5,2.69,7.53,4,.26.15.54.27.81.4l.17-.15c-.51-1-1-2.11-1.55-3.13-.09-.16-.43-.23-.66-.24-.74,0-1.48,0-2.21,0-.32,0-.63,0-1,0l-.08-1.6h2.45c-.29-.53-.48-.89-.68-1.24s-.53-.33-.85-.33h-3.63v-1.53l3.48-.19-1.09-2,1.91-.88,1.13,1.74c.52-.9,1-1.72,1.49-2.61l1.64.63-1,1.7-.75,1.34c-.68,1.2-.68,1.23.44,2.3l1.14-1.92,1.34.62-1.71,3.07,2.47,3.49a5,5,0,0,0,.13-.76c0-3.23-.09-6.47-.09-9.7a1.2,1.2,0,0,0-.83-1.31c-.86-.34-1.67-.79-2.62-1.25l.62-1.4,2.87,1.22c0-.29.06-.48.08-.66a1.12,1.12,0,0,0-.75-1.36c-.64-.28-1.22-.67-1.9-1l.65-1.37,2,1.07c.05-1,.1-1.87.14-2.77h1.79V93.6l1.67-.87.59,1.25a12.26,12.26,0,0,1-1.34.81,1.39,1.39,0,0,0-.84,1.9c1,0,1.87-.7,2.93-.86l.6,1.32-3.6,1.7V109.9a5.16,5.16,0,0,0,.48-.5c.49-.68.92-1.39,1.44-2a1.08,1.08,0,0,0,.09-1.46c-.47-.72-.85-1.49-1.31-2.33l1.28-.6,1.34,1.88.88-1.41c-.73-1.26-1.46-2.52-2.25-3.86l1.73-.9,1.43,3L345,99.79l2,.92-1.19,2.07,3.53.13.12,1.33c-.29,0-.53.08-.77.09-1,0-2,.08-3,.14s-1.13.17-1.31,1.36l2.21.28c0,.52-.05,1-.08,1.45-1,0-1.92,0-2.83,0a1.15,1.15,0,0,0-1.27.76c-.43.88-.94,1.73-1.51,2.79a6.29,6.29,0,0,0,.66-.24c2.8-1.56,5.59-3.13,8.39-4.67a1.07,1.07,0,0,0,.63-1.06c0-1.05.1-2.1.15-3.2h1.74v2.75l1.14-.43v-2.37h1.73l.16,1.08c.72,0,1.27-.54,2.05-.69l1,1.65-2.2,1.12.92.83-.45.87a2.36,2.36,0,0,1-.62-.25c-1-.81-1.88-.38-2.83.28l2.36,1.71-.69,1c-.89-.49-1.76-.94-2.61-1.43a.89.89,0,0,0-1,0c-2.92,1.59-5.86,3.16-8.79,4.74l-.41.25a6.48,6.48,0,0,0,1.87.16,4.32,4.32,0,0,0,2-.09c.52-.28.77-1.05,1.13-1.61l.58-.9,1.57.8-1,1.7c1.06.42,1.6.24,2.09-.69s.91-1.75,1.42-2.71l1.5,1.06-1.26,2.55,1.84.13v2.17l-1.87.09,1.38,2.56-1.54,1.25c-.5-1-.95-1.91-1.42-2.82s-.25-1-1.61-.89c-.15,0-.3,0-.55.09l.45.78c.13.22.27.43.47.75l-1.52,1.06c-.48-.8-.93-1.5-1.32-2.22a1,1,0,0,0-1-.57,21.5,21.5,0,0,0-3.07.18,5.25,5.25,0,0,0,.49.37c2.89,1.6,5.78,3.18,8.65,4.79a1,1,0,0,0,1.23,0c.71-.48,1.47-.89,2.28-1.38l.86,1-2.29,1.61c1.11,1.14,2.1.38,3.14-.09l.74,1-1.26.86,2.22,1.23-.82,1.7-2.19-.88-.12,1.07h-1.53c-.06-.78-.12-1.53-.19-2.36l-1.15-.55v2.93h-1.68c-.05-.91-.17-1.83-.13-2.74a1.62,1.62,0,0,0-1-1.65c-2.57-1.44-5.09-3-7.64-4.45a1.93,1.93,0,0,0-.93-.3l1.8,3.26,3.58.18.14,1.52-2.39.19c.16.35.29.6.39.85a.85.85,0,0,0,.91.55c.89,0,1.79,0,2.69,0,.35,0,.69,0,1.11.06v1.56h-3.44l1.1,2-1.86,1-1.23-1.82-1.55,2.83-1.51-.63,2.2-4.08-1-1.51Z" transform="translate(0 -66.54)"/></g><g class="cls-2"><path class="cls-1" d="M470.82,110.72l-.85-.24c.16-.59.28-1.14.45-1.68a.58.58,0,0,0-.21-.69,13.93,13.93,0,0,0-1.55-1.26,3.5,3.5,0,0,0,.07.45c.46,1.89.94,3.78,1.39,5.68a.72.72,0,0,0,.62.63c.61.12,1.21.29,1.85.45l-.08,1-1.91-.25a3.15,3.15,0,0,0,.24,1.21c0,.11.24.19.38.23.49.12,1,.21,1.52.32l-.32.82-1.26-.17.16,1-1,.26-.31-1-1.07.57-.46-.71,1.31-.89-.33-1.33-1.77,1.09-.54-.65c.55-.51,1.07-1,1.6-1.46a.61.61,0,0,0,.22-.69c-.55-2-1.09-4.08-1.64-6.12a1.28,1.28,0,0,0-.12-.23,5.84,5.84,0,0,0-.46,1.13c-.14.38-.27.77-.41,1.19l1.42,1.67-.71.58a9.13,9.13,0,0,0-.62-.73.52.52,0,0,0-.4-.17.58.58,0,0,0-.28.33.79.79,0,0,0,.23.93c.56.52,1.08,1.09,1.67,1.7l-.87.75L465.39,113l-.45,1.25-1.28-.32.45-1.29c-.79.06-1.48.38-2.24.46l-.23-.93A2.3,2.3,0,0,1,462,112c.6-.19,1.2-.4,1.81-.54a.83.83,0,0,0,.73-.76c0-.09,0-.19.08-.37l-1.5.37-.29-.87a2.88,2.88,0,0,1,1-.41c.42-.15.94-.18,1.22-.46s.26-.79.37-1.2l.27-1.12a4.07,4.07,0,0,0-.43.28c-1.45,1.33-2.89,2.67-4.35,4a.69.69,0,0,0-.26.74c.12.51.19,1,.27,1.56,0,.2,0,.39.07.63l-1,.19-.43-1.74-.42.29a.58.58,0,0,0-.24.78,8.71,8.71,0,0,1,.23.89l-.94.28-.31-.81-1.18.94-.71-.79,1-1.1-.63-.41.21-.68c.66.1,1.35.36,1.91-.37l-1.56-.74.33-.7,2.11.5q2.61-2.34,5.23-4.67l-.07-.14c-.74.17-1.49.32-2.22.52-.12,0-.23.26-.28.42-.17.51-.31,1-.47,1.6l-1.11-.36.33-1.21-1.13.28-.49,2.52-1.17-.5.51-1.74-1.14.28a6,6,0,0,1-.5-1.53l1.38-.34-1.36-1.38.69-.91.73.75.54.58c.62.66.62.66,1.55.22l-.82-.8.7-.78c.37.35.74.66,1.06,1a.79.79,0,0,0,.92.24,19.24,19.24,0,0,0,2-.64c-.12,0-.24-.1-.37-.13-2.05-.5-4.1-1-6.14-1.5a.76.76,0,0,0-.81.23c-.42.4-.87.78-1.33,1.19L455,103l1.16-1.19a1.5,1.5,0,0,0-2.05.36l-.5-.54L454,101l-.65-.19-.7-.2.33-1,1.56.22-.14-.8.76-.29c.11.35.19.63.28.92.2.67.28.72,1.1.72l-.47-1.89,1-.16a17.23,17.23,0,0,1,.53,1.74,1.19,1.19,0,0,0,1.06,1c1.76.41,3.5.89,5.25,1.34a5,5,0,0,0,.56.11l.08-.11c-.47-.57-.94-1.14-1.43-1.69-.08-.09-.3-.08-.45,0l-1.36.33-.63.12-.29-1,1.5-.38-.6-.66c-.17-.18-.38-.12-.57-.07l-2.24.55-.23-.94,2.11-.65-1-1.08,1-.84,1,.91.52-1.84,1.11.14c-.12.43-.23.81-.33,1.19s-.18.63-.26.94c-.24.85-.23.86.62,1.35l.41-1.35.92.17-.59,2.15,2.06,1.78a3.77,3.77,0,0,0,0-.49c-.51-2-1-4-1.54-6a.75.75,0,0,0-.71-.68c-.58-.08-1.15-.23-1.8-.37l.17-1,1.95.31c0-.19,0-.31-.05-.42a.73.73,0,0,0-.67-.73c-.43-.07-.85-.22-1.33-.35l.19-.94,1.37.36-.33-1.73,1.1-.27.43,1.74.9-.79.55.68a7.7,7.7,0,0,1-.7.7.88.88,0,0,0-.23,1.3c.62-.18,1-.71,1.67-1l.57.71-1.95,1.6,1.68,6.8a3.48,3.48,0,0,0,.22-.38c.19-.49.35-1,.58-1.48a.69.69,0,0,0-.17-.91c-.4-.37-.75-.79-1.17-1.23l.7-.57,1.11,1,.33-1-2-2,.92-.81L469,95.25l.38-1.36,1.35.27-.42,1.45,2.2-.45.27.79a3.93,3.93,0,0,1-.46.18c-.6.18-1.21.35-1.81.54s-.66.27-.6,1l1.41-.17.17.9c-.61.16-1.17.32-1.75.43a.73.73,0,0,0-.66.65c-.13.62-.31,1.22-.51,2a2.72,2.72,0,0,0,.37-.25c1.49-1.38,3-2.78,4.46-4.15a.66.66,0,0,0,.22-.74c-.15-.65-.26-1.31-.39-2l1.07-.26.41,1.69.64-.44L475,93.86l1.07-.26.26.64c.44-.13.7-.53,1.16-.74l.84.87-1.19,1,.69.37-.13.6a1.78,1.78,0,0,1-.43-.06c-.74-.35-1.21,0-1.7.6l1.72.69-.27.75c-.62-.16-1.23-.31-1.82-.48a.56.56,0,0,0-.61.14l-4.68,4.26-.22.21a3.83,3.83,0,0,0,1.18-.19,2.77,2.77,0,0,0,1.2-.35c.27-.26.31-.77.45-1.17.07-.19.13-.38.22-.64l1.09.25-.35,1.2c.72.09,1-.1,1.18-.74s.3-1.22.46-1.89l1.09.43-.39,1.75,1.15-.19.33,1.33-1.13.34,1.24,1.37-.76,1-1.3-1.52c-.47-.53-.31-.55-1.13-.3l-.32.14.39.41.4.39-.77.89c-.42-.42-.8-.78-1.15-1.17a.62.62,0,0,0-.7-.2,13.27,13.27,0,0,0-1.86.58,2.28,2.28,0,0,0,.36.15l6.05,1.63a.65.65,0,0,0,.75-.21c.37-.4.77-.77,1.19-1.19l.68.48-1.16,1.34c.85.53,1.35-.09,1.92-.53l.6.49-.64.72,1.56.42-.25,1.17-1.48-.21.09.68-.95.24-.47-1.43-.8-.17.45,1.81-1,.26c-.17-.56-.38-1.1-.5-1.67a1,1,0,0,0-.85-.87c-1.8-.49-3.58-1-5.38-1.57a1.13,1.13,0,0,0-.62,0l1.61,1.74,2.23-.44.32.92-1.44.48.37.46a.53.53,0,0,0,.64.2c.55-.14,1.1-.26,1.66-.38l.7-.13.23,1L474,110l1,1.08-1,.93-1-.94-.52,2-1-.16.74-2.85-.84-.78Z" transform="translate(0 -66.54)"/></g></g></svg>