<svg xmlns="http://www.w3.org/2000/svg" viewBox="0 0 500 133.46"><defs><style>.cls-1{fill:#fff;}.cls-2{opacity:0.5;}</style></defs><title>snowflakes-top</title><g id="Layer_3" data-name="Layer 3"><path class="cls-1" d="M500.16,41.09S438.53,77.62,361,77.62,244.72,37.17,141.78,37.17.16,49.54.16,49.54V0h500Z" transform="translate(-0.16 0.04)"/><path class="cls-1" d="M190.05,33.54c.06,1.25.11,2.5.17,3.85-1.86.23-3.65-.11-5.54,0a20.83,20.83,0,0,0,1.86,3.29c.61,1.05,1.26,2.07,2,3.21l-3.66,2.8c-.23-.36-.45-.66-.63-1-1.33-2.36-2.68-4.71-4-7.09a1.39,1.39,0,0,0-1.57-.9,17.17,17.17,0,0,0-3.26.28L178.05,42l-3.56,2.35c-.24-.32-.46-.58-.64-.86q-1.6-2.54-3.2-5.08a1.2,1.2,0,0,0-1.09-.74c-3.41,0-6.82,0-10.24,0l-.07.26a3.57,3.57,0,0,0,.55.41q12,6.3,24.09,12.59a1.42,1.42,0,0,0,1.52,0c2-1.12,4.07-2.2,6.11-3.29l1.12-.56,1.74,3.22-6,3.58c1,.52,1.94.88,2.74,1.38a2.93,2.93,0,0,0,3.28.06,24.14,24.14,0,0,1,2.61-1.1c.49.94.94,1.83,1.42,2.76l-2.4,1.72,5,2.79-2.35,3.79-5.79-2.45v3.4l-3.39.21c-.05-.39-.12-.72-.13-1.06-.08-1.45-.17-2.9-.21-4.35a1.19,1.19,0,0,0-.76-1.18c-.8-.39-1.57-.85-2.56-1.4,0,1,0,1.84,0,2.68s0,1.8,0,2.71v2.71l-4.15-.29c-.09-1.36-.19-2.68-.26-4-.1-1.8-.23-3.6-.25-5.41a1.73,1.73,0,0,0-1.07-1.72q-9.27-5-18.53-10l-3.72-2a1.9,1.9,0,0,0-1-.25l4.29,8.92h9.58c.09,1.43.16,2.74.24,4.17h-6.24c.73,1.29,1.31,2.43,2,3.49.15.23.69.29,1.06.3,2.9.09,5.8.14,8.71.22.38,0,.77,0,1.3.08v3.75c-3,.28-5.84.08-8.93.33l2.86,5.12-5,2.28L164,66.91l-3.68,6.77L156.13,72l5.78-10.25-2.39-3.38c-1,1.8-2,3.45-2.94,5.17l-3.52-1.64c1.46-2.58,2.87-5.06,4.35-7.64-2-2.9-4.09-5.8-6.2-8.78a1.59,1.59,0,0,0-.24,1.28q.09,9.76.2,19.54c0,2.2.07,4.4.05,6.59a1.36,1.36,0,0,0,.9,1.44c2.18,1,4.33,2,6.49,3.08.38.18.76.38,1.25.63-.53,1.2-1.05,2.36-1.59,3.59l-7.38-3.21c0,1.36,0,2.52,0,3.67,0,.25.38.56.65.72,1.64.93,3.29,1.82,4.94,2.73l1.13.66-1.76,3.51-5-2.85a30.35,30.35,0,0,0-.11,3.63c0,1.13,0,2.25,0,3.48H146V86.69l-4.14,2.37c-.5-1.14-1-2.19-1.47-3.31,1.57-1,3-1.88,4.53-2.72a1.77,1.77,0,0,0,1.11-1.94,23.88,23.88,0,0,1,0-2.41l-7.44,2.69-1.55-3.5c.31-.18.6-.36.9-.5,2.42-1.12,4.83-2.25,7.26-3.35a1.28,1.28,0,0,0,.91-1.31q0-13.18.14-26.37a.87.87,0,0,0-.28-.63l-5.85,8.41c1.41,2.54,2.82,5.06,4.31,7.72l-3.35,1.53c-1.07-1.57-2.13-3.1-3.29-4.78l-2.18,3.57,5.66,9.62-4.4,2.36c-1.18-2.55-2.33-5-3.58-7.73-1,1.66-1.7,3.27-2.62,4.91-1.75-.73-3.4-1.56-5.16-2.39l3.15-5.15-9-.32c-.1-1.18-.18-2.29-.28-3.5L131,59.45c.49-1.05,1-2.1,1.53-3.31l-5.89-.55c-.08-1.24,0-2.47,0-3.79a10.82,10.82,0,0,1,1.08-.07c2.31,0,4.63.05,6.94.15a1.65,1.65,0,0,0,1.77-1c1.22-2.33,2.52-4.62,3.78-6.92.16-.29.29-.6.55-1.14-.53.25-.84.37-1.13.53q-11.06,6.15-22.11,12.29a1.58,1.58,0,0,0-.9,1.58c0,2.55-.15,5.1-.24,7.65,0,.38-.07.76-.1,1.14H111.9V59.17a5.51,5.51,0,0,0-2.53.94c-.18.1-.21.56-.21.85,0,1.34,0,2.67,0,4v1.23h-4.63v-3.1c-1.9.6-3.51,1.51-5.35,2.19L96.77,60.9l5.65-2.83-2.56-1.93,1.36-2.47a14.9,14.9,0,0,1,2.22,1.19,3.3,3.3,0,0,0,4.18.15,21.21,21.21,0,0,1,2.3-1.06l-6.16-4.42c.62-.89,1.2-1.74,1.83-2.66L107.73,48c1.58.87,3.18,1.71,4.73,2.63a1.65,1.65,0,0,0,1.84,0c6.79-3.69,13.6-7.34,20.4-11a15.82,15.82,0,0,0,2.69-1.72c-.34,0-.67-.11-1-.12-2.51-.09-5-.14-7.53-.28a1.5,1.5,0,0,0-1.58.9c-.93,1.64-1.94,3.23-2.92,4.84-.2.33-.42.66-.67,1l-4.06-2.16c1-1.54,1.87-3,2.85-4.61h-3.93c-.54,0-.67.47-.87.84l-3.65,7c-.17.34-.37.68-.61,1.11l-3.85-2.74,3.28-6.32c-1.65-.27-3.18-.07-4.77-.26a17.82,17.82,0,0,1,0-3.65Z" transform="translate(-0.16 0.04)"/><path class="cls-1" d="M64.53,33.18l.52,2.63c-1.25.36-2.52.31-3.8.63a15.4,15.4,0,0,0,1.63,2.06c.53.65,1.09,1.29,1.69,2l-2.22,2.32c-.2-.22-.38-.41-.54-.61-1.16-1.48-2.34-3-3.47-4.46a1,1,0,0,0-1.17-.45,12.23,12.23,0,0,0-2.21.54l2.21,2.42-2.19,2c-.2-.2-.37-.35-.53-.53-.92-1-1.83-2.09-2.74-3.14a.84.84,0,0,0-.83-.4c-2.34.38-4.69.74-7,1.1l0,.19a3.36,3.36,0,0,0,.42.22l17.89,6.08a1,1,0,0,0,1-.17c1.27-1,2.56-2,3.85-2.92.21-.16.43-.3.71-.5l1.54,2-3.73,3.09c.78.25,1.43.4,2,.66a2,2,0,0,0,2.26-.31,14.87,14.87,0,0,1,1.68-1l1.26,1.74-1.46,1.44,3.74,1.39L73.86,54,69.63,53,70,55.3l-2.31.5c-.08-.26-.16-.48-.21-.71-.2-1-.42-2-.6-3a.83.83,0,0,0-.65-.73c-.59-.18-1.17-.42-1.91-.69.09.7.17,1.27.25,1.85s.19,1.24.29,1.86.18,1.17.29,1.86l-2.88.24c-.21-.92-.42-1.82-.61-2.72-.26-1.22-.54-2.45-.75-3.68A1.2,1.2,0,0,0,60,49c-4.61-1.62-9.2-3.27-13.8-4.91l-2.77-1a1.35,1.35,0,0,0-.72-.07l3.89,5.67,6.59-1c.21,1,.4,1.87.6,2.84l-4.29.67c.65.81,1.17,1.53,1.76,2.19.13.14.51.12.76.09l6-.78.9-.08.2,1.3.2,1.27c-2,.51-4,.68-6.1,1.18l2.51,3.21-3.19,2.11-2.35-2.84c-.63,1.73-1.2,3.34-1.82,5l-3.07-.74,2.89-7.66-2-2.07-1.46,3.87-2.6-.76,2.17-5.71c-1.71-1.77-3.42-3.55-5.19-5.37a1.13,1.13,0,0,0,0,.9L41.29,59.8c.25,1.51.51,3,.73,4.52a1,1,0,0,0,.78.89c1.6.45,3.19,1,4.78,1.43.29.08.57.18.93.3l-.71,2.64-5.41-1.42c.14.93.24,1.73.4,2.51,0,.18.32.35.53.43,1.22.47,2.45.9,3.68,1.35l.85.34c-.28.85-.54,1.66-.84,2.6L43.28,74a22.17,22.17,0,0,0,.31,2.5c.1.78.23,1.55.36,2.4l-3.24.5-.77-5-2.59,2.07L36,74.34c1-.82,1.87-1.62,2.82-2.35a1.24,1.24,0,0,0,.56-1.45,14.79,14.79,0,0,1-.27-1.66l-4.82,2.64-1.44-2.24c.2-.15.37-.31.56-.43,1.54-1,3.08-2.07,4.64-3.08a.89.89,0,0,0,.48-1c-.92-6.05-1.81-12.1-2.71-18.14a.6.6,0,0,0-.25-.4c-1,2.11-2.07,4.23-3.13,6.4l3.78,4.85-2.14,1.4L31.3,56l-1.11,2.69,4.91,6-2.78,2.09L29,61.81c-.52,1.25-.82,2.43-1.28,3.65-1.27-.31-2.5-.71-3.8-1.1l1.62-3.87-6.21.74-.57-2.38,7.93-1.58c.23-.78.45-1.55.71-2.44l-4.11.25c-.19-.84-.25-1.7-.37-2.61.27-.06.5-.13.73-.16,1.6-.22,3.19-.46,4.79-.64a1.15,1.15,0,0,0,1.11-.86c.59-1.73,1.24-3.44,1.86-5.16.08-.22.14-.44.26-.84-.34.22-.54.34-.72.48Q24,50.71,17.1,56.09a1.11,1.11,0,0,0-.45,1.18c.25,1.76.44,3.52.65,5.28,0,.27,0,.54.05.8l-3.07.48-.73-4.72a3.78,3.78,0,0,0-1.64.92c-.11.09-.08.4-.05.61.13.91.29,1.83.44,2.74l.13.85-3.18.49-.33-2.13C7.68,63.2,6.67,64,5.48,64.66L3.34,61.91l3.58-2.55-2-1,.67-1.84a11.36,11.36,0,0,1,1.65.58,2.3,2.3,0,0,0,2.89-.34,13.19,13.19,0,0,1,1.46-1L6.94,53.36c.32-.68.63-1.33,1-2l1.59.57c1.18.43,2.37.84,3.53,1.3A1.13,1.13,0,0,0,14.29,53l12.85-9.73a10.86,10.86,0,0,0,1.67-1.47c-.24,0-.47,0-.7,0-1.74.2-3.47.43-5.21.61a1,1,0,0,0-1,.78c-.46,1.23-1,2.43-1.49,3.64-.1.25-.21.49-.34.79l-3-1,1.46-3.47-2.7.42c-.37.06-.41.4-.5.67l-1.77,5.19c-.08.26-.18.51-.3.83l-2.94-1.47,1.58-4.69c-1.16,0-2.19.29-3.3.32a12.76,12.76,0,0,1-.4-2.5Z" transform="translate(-0.16 0.04)"/><path class="cls-1" d="M321.31,70.26,321,72.08c-.9-.1-1.71-.46-2.61-.6a10.58,10.58,0,0,0,.51,1.76c.16.56.36,1.11.55,1.72l-2,.91a5.68,5.68,0,0,1-.18-.54c-.36-1.26-.73-2.51-1.06-3.77a.68.68,0,0,0-.64-.6,9.11,9.11,0,0,0-1.56-.24l.79,2.14-1.93.7c-.08-.18-.15-.32-.2-.47-.32-.92-.63-1.83-.94-2.75a.59.59,0,0,0-.43-.47c-1.6-.37-3.2-.76-4.8-1.14l-.07.11a1.38,1.38,0,0,0,.22.26c3.29,2.87,6.6,5.73,9.89,8.61a.69.69,0,0,0,.72.16c1.07-.3,2.15-.58,3.23-.86l.59-.14.46,1.71-3.21,1c.44.36.81.63,1.14,1a1.4,1.4,0,0,0,1.53.4,11.54,11.54,0,0,1,1.35-.22l.35,1.45-1.32.54,2.05,1.88-1.53,1.51-2.44-1.8L319,85.9l-1.61-.29c0-.18,0-.35.05-.51.13-.69.25-1.38.4-2.06a.57.57,0,0,0-.23-.64c-.33-.27-.64-.58-1-1-.13.47-.23.86-.33,1.25l-.3,1.27-.31,1.28-1.91-.6c.11-.65.21-1.28.32-1.91.16-.86.3-1.72.49-2.57a.84.84,0,0,0-.3-.93q-3.8-3.37-7.58-6.78l-1.52-1.36a.92.92,0,0,0-.44-.23c.33,1.53.66,3.07,1,4.66l4.5,1.08-.36,2-2.93-.71c.2.7.35,1.29.55,1.87.05.13.3.21.47.26,1.35.37,2.71.72,4.06,1.08l.6.19-.21.88-.21.88c-1.42-.21-2.75-.62-4.23-.85l.77,2.72-2.6.51c-.25-.8-.49-1.57-.77-2.44l-2.49,2.77-1.78-1.28,3.87-4.17-.75-1.85-1.95,2.1-1.47-1.17,2.9-3.1-1.93-4.82c-.23.17-.21.39-.26.58-.7,3.06-1.39,6.13-2.09,9.19-.24,1-.47,2.07-.72,3.1a.65.65,0,0,0,.26.78c.91.71,1.8,1.45,2.7,2.17l.52.44L301,89.24l-3.11-2.34c-.15.64-.3,1.18-.4,1.73,0,.12.11.3.23.41.66.62,1.34,1.22,2,1.84.14.12.27.25.45.43L299,92.76l-2-1.9a17.37,17.37,0,0,0-.46,1.69c-.14.53-.26,1.06-.39,1.64l-2.22-.53.81-3.4-2.21.65-.31-1.72c.84-.27,1.62-.54,2.42-.77a.87.87,0,0,0,.75-.78,9.42,9.42,0,0,1,.26-1.14l-3.79.43-.34-1.82c.17,0,.32-.1.48-.13,1.26-.25,2.52-.51,3.79-.75a.62.62,0,0,0,.57-.52q1.5-6.18,3-12.36a.38.38,0,0,0-.05-.33l-3.7,3.29,1.16,4.11-1.74.34-1-2.61-1.42,1.43c.52,1.71,1,3.4,1.57,5.15l-2.33.61c-.27-1.33-.53-2.62-.81-4-.66.67-1.17,1.35-1.79,2-.73-.53-1.41-1.11-2.15-1.7l2.06-2.06-4.19-1.16.27-1.68,5.51,1.07,1.09-1.38-2.7-.92c.1-.59.29-1.16.45-1.78.19,0,.35.05.51.09,1.08.28,2.17.55,3.24.85a.79.79,0,0,0,.94-.26c.83-1,1.7-1.88,2.56-2.82l.38-.48c-.28.06-.43.08-.59.13-3.92,1.09-7.84,2.2-11.76,3.28a.78.78,0,0,0-.6.64c-.31,1.2-.64,2.38-1,3.57-.05.17-.12.35-.18.52l-2.1-.5.77-3.22a2.62,2.62,0,0,0-1.29.16c-.09,0-.16.24-.19.37-.16.63-.3,1.26-.44,1.88-.05.18-.09.36-.14.58L277.51,76l.35-1.46c-1,.07-1.82.32-2.76.43l-.65-2.33,3-.69-1-1.19.92-1a7.35,7.35,0,0,1,.91.81,1.6,1.6,0,0,0,1.94.54,10.16,10.16,0,0,1,1.2-.24L279,68.07l1.15-1,.88.78c.64.59,1.3,1.16,1.92,1.77a.83.83,0,0,0,.87.21c3.6-1,7.2-1.92,10.81-2.88a7.56,7.56,0,0,0,1.45-.5,4.13,4.13,0,0,0-.45-.17c-1.17-.33-2.34-.63-3.51-1a.72.72,0,0,0-.84.25c-.62.66-1.27,1.3-1.91,1.94l-.43.42-1.67-1.47,1.86-1.85-1.85-.43c-.25-.06-.36.14-.5.29-.83,1-1.66,1.92-2.5,2.87-.12.15-.25.28-.41.46L282.38,66l2.25-2.6c-.74-.31-1.48-.39-2.21-.66a8.05,8.05,0,0,1,.41-1.71Z" transform="translate(-0.16 0.04)"/><path class="cls-1" d="M472.51,51.31c.34.93.69,1.86,1.06,2.86-1.35.62-2.78.8-4.17,1.38a17.26,17.26,0,0,0,2.21,2c.71.64,1.44,1.25,2.24,1.94-.69,1-1.36,2-2.07,3-.27-.22-.51-.39-.72-.59-1.57-1.46-3.15-2.9-4.69-4.4a1.11,1.11,0,0,0-1.4-.29,13.56,13.56,0,0,0-2.39,1l2.92,2.32-2.11,2.63c-.26-.19-.48-.33-.69-.5-1.21-1-2.43-2-3.63-3a1,1,0,0,0-1-.3c-2.57.84-5.14,1.66-7.71,2.48V62a3.39,3.39,0,0,0,.51.17q10.59,1.83,21.18,3.67a1.13,1.13,0,0,0,1.14-.39c1.25-1.33,2.53-2.64,3.81-4,.21-.22.43-.43.7-.69l2.09,2L476.17,67c.91.14,1.67.19,2.4.37a2.3,2.3,0,0,0,2.48-.74,17.3,17.3,0,0,1,1.7-1.46l1.74,1.74c-.47.62-.89,1.19-1.39,1.87l4.45.89c-.29,1.15-.56,2.24-.86,3.42l-4.95-.45.83,2.57-2.51,1c-.13-.28-.26-.51-.35-.76-.41-1.07-.83-2.15-1.21-3.23a1,1,0,0,0-.85-.71c-.7-.09-1.4-.26-2.28-.43l.61,2,.66,2c.2.64.41,1.29.65,2l-3.19.78c-.4-1-.79-2-1.17-3-.51-1.33-1-2.66-1.49-4a1.38,1.38,0,0,0-1.22-1c-5.46-1-10.91-2-16.37-3.07l-3.29-.62a1.49,1.49,0,0,0-.82.06L455.12,72l7.22-2.32c.41,1.07.78,2,1.18,3.09l-4.7,1.51c.87.8,1.58,1.51,2.36,2.14.17.14.59,0,.87,0,2.21-.63,4.41-1.29,6.61-1.94l1-.25.45,1.42.45,1.4c-2.16.93-4.38,1.48-6.65,2.41l3.39,3.16-3.2,2.93L461,82.72c-.4,2.06-.76,4-1.15,6l-3.58-.29c.64-3.09,1.26-6.09,1.88-9.11-.85-.64-1.66-1.26-2.62-2-.33,1.6-.63,3.07-.95,4.61l-3.06-.39c.49-2.3.95-4.5,1.43-6.81l-6.78-5.11a1.28,1.28,0,0,0,.12,1q2.43,7.34,4.88,14.67c.54,1.65,1.11,3.29,1.62,5a1.06,1.06,0,0,0,1,.86c1.88.23,3.75.5,5.63.76.33,0,.66.1,1.09.17-.11,1-.22,2-.33,3.09l-6.33-.64c.33,1,.57,1.91.9,2.76.07.19.42.34.66.39,1.46.3,2.92.58,4.39.87.3,0,.59.13,1,.22-.15,1-.31,2-.48,3.07l-4.44-1a24.07,24.07,0,0,0,.79,2.76c.26.86.54,1.7.84,2.63l-3.56,1.14L452.19,102l-2.54,2.79-1.91-2.15c1-1.09,1.82-2.14,2.75-3.13a1.41,1.41,0,0,0,.38-1.73,18.52,18.52,0,0,1-.6-1.82l-4.95,3.82-2-2.26c.19-.2.36-.41.56-.59,1.55-1.43,3.09-2.86,4.66-4.27a1,1,0,0,0,.36-1.21c-2.1-6.63-4.17-13.26-6.26-19.89a.65.65,0,0,0-.35-.41l-2.39,7.74c1.69,1.57,3.35,3.14,5.11,4.78l-2.14,2-3.64-2.8L438.44,86,445,91.88l-2.75,2.83-4.56-4.95c-.36,1.5-.49,2.87-.79,4.33-1.49-.13-2.93-.36-4.46-.56.37-1.55.73-3,1.13-4.64l-6.85,1.93c-.36-.86-.69-1.67-1.06-2.57l8.63-3.18c.12-.91.23-1.82.36-2.87l-4.57,1c-.36-.91-.58-1.87-.88-2.87.29-.11.54-.23.79-.31,1.76-.53,3.5-1.08,5.27-1.56a1.3,1.3,0,0,0,1.09-1.17c.36-2,.79-4.08,1.19-6.12.05-.26.07-.52.13-1-.34.31-.54.48-.72.67q-6.84,7.31-13.68,14.59a1.25,1.25,0,0,0-.31,1.41c.59,1.93,1.12,3.88,1.67,5.82.08.29.14.59.2.89l-3.36,1.07-1.66-5.16a4.36,4.36,0,0,0-1.68,1.31c-.11.12,0,.47,0,.7.31,1,.65,2,1,3l.29.92L416,96.54l-.75-2.34c-1.29.91-2.28,2-3.5,2.94l-2.89-2.71,3.57-3.5L410,90.1c.14-.72.28-1.41.43-2.19a13.69,13.69,0,0,1,2,.36,2.61,2.61,0,0,0,3.18-.89A15.8,15.8,0,0,1,417.09,86l-5.7-1.84c.24-.82.48-1.6.73-2.44l1.89.35c1.4.28,2.81.52,4.2.84a1.28,1.28,0,0,0,1.38-.44q6.35-6.61,12.71-13.21a12.86,12.86,0,0,0,1.61-1.94,6.71,6.71,0,0,0-.78.15c-1.91.53-3.82,1.1-5.74,1.6a1.18,1.18,0,0,0-1,1.06c-.31,1.46-.68,2.9-1,4.35-.07.3-.16.6-.25,1l-3.58-.65c.34-1.4.68-2.73,1-4.16-1.08.35-2,.64-2.95.95-.42.13-.4.52-.45.85-.36,2-.71,4.09-1.07,6.14-.05.3-.12.6-.19,1l-3.57-1.13c.32-1.83.62-3.62.95-5.55-1.3.2-2.41.72-3.65,1a13.9,13.9,0,0,1-.89-2.74Z" transform="translate(-0.16 0.04)"/><g class="cls-2"><path class="cls-1" d="M416.14,108l.76.65c-.43.53-.83,1-1.25,1.52a.65.65,0,0,0-.12.8,16,16,0,0,0,1,2,4.5,4.5,0,0,0,.14-.49c.42-2.17.82-4.34,1.25-6.5a.81.81,0,0,0-.34-.94c-.57-.41-1.11-.87-1.69-1.34l.53-1,1.85,1.16a3.76,3.76,0,0,0,.33-1.35c0-.13-.16-.31-.29-.42-.45-.35-.91-.67-1.41-1l.72-.7,1.21.77.32-1.11,1.17.22-.13,1.12,1.37-.08.14.94-1.77.3-.29,1.52,2.34-.28.24.92c-.8.26-1.56.52-2.33.75a.69.69,0,0,0-.55.6c-.39,2.36-.8,4.71-1.2,7.07a2.29,2.29,0,0,0,0,.3,6.58,6.58,0,0,0,1-1c.33-.32.64-.66,1-1l-.68-2.39,1-.26a10.52,10.52,0,0,0,.3,1,.61.61,0,0,0,.33.37.62.62,0,0,0,.44-.22.86.86,0,0,0,.21-1c-.33-.81-.6-1.64-.92-2.54l1.25-.36.72,2.13,1.05-1.07,1.16.93L424,109.21c.84.32,1.7.31,2.52.59l-.2,1.06a3.16,3.16,0,0,1-.43,0c-.71-.09-1.42-.15-2.12-.3a.91.91,0,0,0-1.1.44c-.06.09-.13.17-.26.34l1.72.33-.11,1a3.06,3.06,0,0,1-1.25-.06,3.59,3.59,0,0,0-1.47-.1c-.4.15-.64.69-.95,1.06l-.8,1c.29-.05.43-.05.57-.09l6.36-2.06a.78.78,0,0,0,.61-.64c.12-.58.3-1.15.46-1.73.06-.21.14-.42.22-.67l1.13.28-.38,2,.57-.1a.67.67,0,0,0,.62-.69,9.62,9.62,0,0,1,.18-1l1.09.15-.06,1,1.66-.41.35,1.14-1.53.67.45.72-.53.61c-.63-.42-1.22-1-2.14-.53l1.25,1.49-.67.57-1.92-1.51-7.59,2.34v.17c.84.18,1.68.37,2.52.51.15,0,.37-.15.49-.29.42-.45.81-.93,1.24-1.43l1,.9-.91,1.09,1.29.24,1.69-2.36,1,1.06-1.35,1.55,1.3.25a6.26,6.26,0,0,1-.21,1.81l-1.57-.3.74,2.06-1.13.61c-.15-.4-.27-.76-.4-1.11s-.18-.57-.28-.85c-.32-1-.33-1-1.49-1l.46,1.21-1.08.46c-.22-.53-.46-1-.62-1.53a.89.89,0,0,0-.83-.68,22.63,22.63,0,0,0-2.41-.31c.11.1.2.21.32.3,1.87,1.48,3.75,2.95,5.61,4.45a.88.88,0,0,0,.94.15c.62-.22,1.25-.4,1.93-.6l.32.95-1.75.68a1.69,1.69,0,0,0,2.28.6l.26.79-.72.43.59.5c.18.17.37.33.62.54l-.83.91-1.5-1-.23.89-.92-.07c.06-.4.11-.73.15-1.07.11-.78.06-.87-.79-1.26l-.41,2.16-1.14-.32c.09-.69.13-1.38.28-2a1.35,1.35,0,0,0-.6-1.56c-1.62-1.25-3.18-2.56-4.76-3.85-.17-.14-.35-.26-.53-.39l-.13.08c.22.81.42,1.62.67,2.42,0,.12.28.22.44.25.51.12,1,.21,1.55.31l.71.17-.15,1.13-1.73-.33.31,1c.09.26.33.29.55.34l2.56.48-.2,1.08-2.48-.33.5,1.57-1.47.37-.56-1.38-1.4,1.64-1.07-.66.9-1.07.71-.84c.64-.76.64-.78,0-1.68l-1.06,1.2-.86-.62,1.61-1.93-1.27-2.79a2.65,2.65,0,0,0-.19.52c-.41,2.28-.81,4.57-1.23,6.85a.85.85,0,0,0,.4,1c.56.35,1.08.78,1.68,1.23l-.62.9L415,129.12c-.07.2-.1.33-.15.46a.8.8,0,0,0,.35,1c.41.28.77.64,1.2,1l-.64.87-1.24-1-.47,1.93-1.26-.24.38-2-1.3.38-.24-.95a8.49,8.49,0,0,1,1.05-.39,1,1,0,0,0,.85-1.23,21.37,21.37,0,0,0-2.18.21l-.25-1,2.77-.72,1.47-7.79c-.17.13-.3.19-.41.29-.43.42-.83.86-1.28,1.25a.76.76,0,0,0-.26,1c.23.57.4,1.17.61,1.82l-1,.25-.69-1.5-.82.87c.35,1,.7,2,1.08,3l-1.34.4-.6-2.33-1,1.22-1.27-.91,1.12-1.3-2.47-.57.09-1a4.75,4.75,0,0,1,.56,0c.7.1,1.4.21,2.11.3s.82,0,1.11-.79l-1.52-.49.24-1c.7.14,1.36.23,2,.39a.81.81,0,0,0,1-.36c.43-.57.89-1.1,1.44-1.77a4.9,4.9,0,0,0-.5.09c-2.18.72-4.35,1.46-6.53,2.16a.78.78,0,0,0-.59.66c-.15.74-.35,1.47-.53,2.24l-1.22-.23.36-1.94-.86.15-.32,1.67-1.22-.23,0-.78c-.52-.08-1,.21-1.54.21l-.46-1.29,1.7-.5-.53-.7.43-.56a1.85,1.85,0,0,1,.4.26c.6.71,1.27.52,2,.18l-1.44-1.51.63-.65c.56.46,1.11.9,1.64,1.36a.65.65,0,0,0,.69.14l6.82-2.17.33-.11a4.36,4.36,0,0,0-1.3-.36,3.11,3.11,0,0,0-1.4-.21c-.41.13-.69.64-1,1l-.52.55-1-.77.92-1.06c-.7-.44-1.1-.39-1.57.2l-1.36,1.72-.92-1,1.23-1.62-1.28-.34.29-1.53,1.33.19-.63-2,1.25-.68c.22.77.42,1.48.63,2.18s0,.71,1,.84a2.42,2.42,0,0,0,.4,0c-.08-.24-.15-.42-.21-.61L409,113l1.21-.55c.23.63.45,1.18.63,1.75a.7.7,0,0,0,.63.53,13.94,13.94,0,0,0,2.19.28,3.06,3.06,0,0,0-.3-.32c-1.82-1.51-3.64-3-5.45-4.53a.72.72,0,0,0-.87-.13c-.57.24-1.16.43-1.8.66l-.47-.82,1.83-.83c-.63-1-1.43-.54-2.22-.36l-.39-.79,1-.44-1.4-1.16.8-1.09,1.43.91.23-.74,1.08.21-.19,1.69.74.54.39-2.06,1.19.22c-.09.65-.13,1.31-.28,2a1.14,1.14,0,0,0,.47,1.29c1.61,1.36,3.19,2.77,4.78,4.15a1.24,1.24,0,0,0,.62.34l-.83-2.54-2.5-.6.1-1.09,1.71.18c-.07-.27-.12-.45-.16-.65a.62.62,0,0,0-.57-.51c-.63-.11-1.26-.25-1.89-.39l-.77-.19.2-1.1,2.43.46c-.19-.59-.33-1.06-.5-1.57l1.44-.49.63,1.45,1.47-1.79,1,.64-2.1,2.58.5,1.2Z" transform="translate(-0.16 0.04)"/></g><g class="cls-2"><path class="cls-1" d="M319.64,96.43l.49.28c-.19.35-.35.67-.54,1a.39.39,0,0,0,0,.47,10.72,10.72,0,0,0,.78,1,2.85,2.85,0,0,0,0-.29c0-1.27,0-2.53,0-3.79a.46.46,0,0,0-.29-.49c-.37-.18-.72-.38-1.1-.58l.2-.59,1.16.46a2,2,0,0,0,.05-.8c0-.07-.13-.16-.21-.2l-.9-.44.33-.47.76.31.06-.67h.68l.05.65.76-.19.18.51-1,.36v.89l1.28-.41.24.49-1.23.67a.4.4,0,0,0-.25.4c0,1.37.05,2.73.08,4.1a.61.61,0,0,0,0,.17,3.7,3.7,0,0,0,.46-.65c.15-.21.29-.44.45-.68l-.64-1.27.54-.25a4.73,4.73,0,0,0,.28.55.31.31,0,0,0,.22.17.36.36,0,0,0,.23-.16.51.51,0,0,0,0-.62c-.27-.42-.51-.86-.79-1.33l.67-.34.63,1.13.48-.72.75.4-.48.74c.5.09,1,0,1.48.06v.62a1.64,1.64,0,0,1-.25,0c-.4,0-.81.07-1.22.06a.52.52,0,0,0-.57.36l-.11.22h1l.05.6a2.22,2.22,0,0,1-.71.1,1.89,1.89,0,0,0-.84.1c-.21.12-.29.45-.42.69l-.34.67.31-.11,3.36-1.84a.46.46,0,0,0,.28-.42c0-.34,0-.69.07-1,0-.12,0-.25.05-.4l.67,0v1.16l.3-.12a.38.38,0,0,0,.28-.45,6,6,0,0,1,0-.6l.63,0,.06.56.9-.41.32.61-.79.54.33.35-.24.4c-.4-.17-.79-.44-1.26-.07l.86.71-.31.39-1.25-.64-4,2.12,0,.1c.49,0,1,0,1.47,0,.09,0,.19-.13.25-.22.18-.3.35-.61.54-.94l.64.4-.4.71h.76l.7-1.5.66.49-.59,1h.75a3.22,3.22,0,0,1,.08,1h-.91l.63,1.08-.57.47c-.13-.21-.23-.4-.34-.58s-.17-.3-.25-.45c-.29-.52-.29-.52-.94-.38l.39.63-.56.38c-.18-.28-.37-.53-.52-.8a.5.5,0,0,0-.53-.29,10.9,10.9,0,0,0-1.39.08c.07,0,.13.1.21.14,1.21.63,2.42,1.25,3.63,1.9a.48.48,0,0,0,.54,0c.33-.19.67-.35,1-.54l.28.5-.92.57a1,1,0,0,0,1.35.09l.23.42-.35.32.38.22.4.24-.36.6-1-.39,0,.53-.53.06c0-.23,0-.42,0-.62,0-.45-.06-.49-.58-.62v1.26l-.67-.06a9.42,9.42,0,0,1-.06-1.18.77.77,0,0,0-.51-.81c-1-.53-2.06-1.11-3.09-1.66l-.34-.16-.06.06c.2.43.41.86.63,1.28,0,.07.18.1.27.1h.91l.42,0,0,.65h-1c.12.22.19.37.27.51s.22.14.35.14h1.49V106l-1.43.08.45.83-.78.36-.47-.72-.61,1.08-.67-.26.39-.7.31-.55c.28-.5.28-.51-.18-.94l-.47.78-.55-.25.7-1.26-1-1.44a2,2,0,0,0-.05.32c0,1.32,0,2.65,0,4a.51.51,0,0,0,.34.54c.36.14.69.32,1.08.51l-.25.58-1.18-.51c0,.13,0,.2,0,.28a.48.48,0,0,0,.31.56,7.74,7.74,0,0,1,.78.43l-.27.56-.8-.44-.06,1.14h-.73v-1.17l-.69.36-.24-.51a4,4,0,0,1,.55-.33.58.58,0,0,0,.35-.79,12.59,12.59,0,0,0-1.21.36l-.24-.54,1.47-.7v-4.54c-.08.09-.15.14-.2.21-.19.27-.37.57-.59.83a.45.45,0,0,0,0,.6c.19.3.34.62.54,1l-.53.25-.55-.78-.36.58.92,1.59-.71.37-.59-1.25-.44.79-.82-.37.49-.86-1.45,0-.05-.54a2,2,0,0,1,.32,0l1.22-.06c.42,0,.47-.07.54-.56l-.91-.11,0-.6c.4,0,.78,0,1.16,0a.47.47,0,0,0,.52-.31c.18-.37.38-.72.62-1.15l-.27.1-3.45,1.92a.44.44,0,0,0-.26.43c0,.43,0,.86-.06,1.32h-.71v-1.13l-.47.17v1h-.71l-.07-.45c-.29,0-.52.23-.84.29l-.39-.68.9-.46-.38-.34.19-.36a1.18,1.18,0,0,1,.25.1c.41.34.77.16,1.16-.11l-1-.7.29-.43,1.07.59a.38.38,0,0,0,.4,0c1.2-.66,2.41-1.3,3.61-2l.17-.1a2.75,2.75,0,0,0-.77-.07,1.67,1.67,0,0,0-.81,0c-.21.11-.32.43-.47.66l-.23.37-.65-.33.41-.7c-.44-.17-.66-.1-.86.28l-.59,1.12-.61-.44.52-1-.76-.06v-.89l.77,0-.57-1,.63-.51c.21.41.39.78.59,1.16s.1.39.66.36a1.31,1.31,0,0,0,.22,0l-.18-.32-.19-.3.62-.44c.2.33.38.61.54.91a.43.43,0,0,0,.41.24,9,9,0,0,0,1.26-.08,1.49,1.49,0,0,0-.2-.15l-3.55-2a.44.44,0,0,0-.51,0c-.29.2-.6.37-.93.57l-.35-.41.93-.67c-.45-.46-.86-.15-1.28,0l-.31-.4.52-.36-.91-.5.33-.7.9.36.05-.44h.63l.08,1,.47.23V96h.69c0,.38.07.75.06,1.13a.65.65,0,0,0,.4.68c1.05.59,2.09,1.21,3.13,1.82a.75.75,0,0,0,.39.13l-.74-1.34-1.47-.08-.06-.62,1-.08a3.32,3.32,0,0,1-.16-.35.35.35,0,0,0-.37-.23c-.37,0-.74,0-1.11,0l-.46,0v-.64h1.42l-.45-.83.76-.43.5.75L319,94.7l.62.26-.9,1.68.4.62Z" transform="translate(-0.16 0.04)"/></g><g class="cls-2"><path class="cls-1" d="M262.93,94.28l.37.75c-.51.27-1,.54-1.47.77a.57.57,0,0,0-.36.59,13.8,13.8,0,0,0,.12,1.91,3.1,3.1,0,0,0,.27-.34c1-1.54,2.06-3.1,3.11-4.64a.69.69,0,0,0,0-.84c-.3-.51-.57-1-.87-1.6l.73-.56,1.05,1.5a3,3,0,0,0,.7-.94c.05-.09,0-.29-.09-.42-.23-.42-.48-.82-.75-1.27l.79-.31.69,1,.61-.77.84.56-.47.84,1.09.38-.2.78-1.47-.35-.73,1.09,1.91.55-.11.8c-.71-.07-1.38-.11-2.06-.19a.57.57,0,0,0-.62.29c-1.08,1.7-2.18,3.4-3.26,5.1a.89.89,0,0,0-.08.24,6,6,0,0,0,1.09-.41l1.1-.47.26-2.09.87.13a7.33,7.33,0,0,0-.12.91.55.55,0,0,0,.14.39.56.56,0,0,0,.42,0,.74.74,0,0,0,.5-.75c0-.74.08-1.47.12-2.28l1.09.13-.14,1.9,1.17-.49.6,1.1-1.2.52c.55.52,1.22.8,1.77,1.28l-.51.76a1.89,1.89,0,0,1-.33-.15c-.52-.3-1.05-.58-1.55-.93a.78.78,0,0,0-1,0l-.32.19,1.23.81-.42.77a2.71,2.71,0,0,1-1-.46c-.37-.2-.74-.55-1.11-.56s-.73.33-1.09.52l-1,.53a4,4,0,0,0,.48.12l5.62.49a.63.63,0,0,0,.68-.3c.29-.41.61-.8.93-1.19.12-.15.25-.28.4-.45l.78.58-.95,1.43.47.11a.55.55,0,0,0,.71-.34c.12-.23.3-.45.48-.73l.8.48-.37.74,1.43.23-.1,1-1.41,0,.11.7-.61.3c-.36-.53-.62-1.18-1.49-1.11l.48,1.57-.71.22-1-1.8-6.67-.68-.05.14c.59.41,1.18.84,1.79,1.23a.7.7,0,0,0,.48-.07c.47-.22.93-.46,1.43-.71l.46,1-1.07.55.93.61,2.09-1.28.41,1.15-1.55.76.92.62a5.39,5.39,0,0,1-.75,1.34l-1.12-.75-.11,1.85-1.08.1c0-.36,0-.68.06-1l.06-.75c.07-.86.06-.87-.85-1.23l0,1.09h-1c0-.48,0-.94,0-1.39a.74.74,0,0,0-.42-.8,17.89,17.89,0,0,0-1.77-1c.05.11.08.23.14.34,1,1.77,1.95,3.53,2.91,5.3a.71.71,0,0,0,.68.43c.56,0,1.11.11,1.7.17l-.06.85-1.59-.06c.15.9.77,1.18,1.58,1.22l-.06.7-.7.11c.11.21.2.39.29.58s.19.38.3.62l-.94.44-.84-1.25-.48.62-.69-.35c.17-.3.32-.54.47-.79.34-.57.33-.66-.2-1.24l-1,1.55L263,112c.3-.51.55-1,.88-1.5a1.13,1.13,0,0,0,.05-1.41c-.85-1.5-1.63-3-2.44-4.57l-.28-.47-.13,0c-.1.7-.2,1.4-.27,2.1,0,.11.14.26.25.34.36.27.74.5,1.11.75l.5.37-.5.83-1.23-.82c0,.36-.06.61-.08.85s.16.34.32.45l1.83,1.22-.51.77-1.82-1.07-.13,1.39-1.26-.2v-1.26l-1.62.82-.62-.87,1.06-.53c.27-.15.55-.29.83-.43.74-.38.75-.39.54-1.3l-1.21.58-.47-.76,1.89-1-.08-2.6a3.37,3.37,0,0,0-.31.35c-1.07,1.64-2.13,3.29-3.21,4.92a.73.73,0,0,0,0,.94c.32.46.58,1,.91,1.5l-.78.5-1-1.58c-.12.14-.19.23-.27.31a.69.69,0,0,0-.08.94,11.58,11.58,0,0,1,.61,1.17l-.79.47L254,112l-1,1.35-.9-.6,1-1.43-1.14-.12.12-.83a7.18,7.18,0,0,1,.95.05.84.84,0,0,0,1.06-.68,17.48,17.48,0,0,0-1.77-.55l.14-.86,2.39.34,3.71-5.57a4.14,4.14,0,0,0-.42.09c-.47.18-.93.4-1.41.55a.65.65,0,0,0-.53.7c0,.52-.07,1-.12,1.62l-.85-.13,0-1.4-.92.42-.16,2.7-1.17-.13.3-2-1.2.61-.69-1.13,1.29-.64-1.73-1.25.38-.71a4.1,4.1,0,0,1,.42.21c.52.31,1,.63,1.55.93s.62.29,1.12-.25l-1-.88.52-.7c.5.33,1,.62,1.42,1a.71.71,0,0,0,.9,0c.51-.3,1.05-.56,1.7-.9a2.84,2.84,0,0,0-.42-.1l-5.8-.46a.64.64,0,0,0-.67.32c-.36.52-.75,1-1.15,1.56l-.87-.58.92-1.39-.72-.16-.8,1.19-.87-.58.28-.6c-.37-.23-.82-.15-1.26-.34l.07-1.15,1.48.17-.18-.72.52-.29a1.45,1.45,0,0,1,.22.33c.24.75.82.82,1.53.81l-.62-1.65.7-.3c.28.55.57,1.07.83,1.6a.56.56,0,0,0,.49.34l6,.55.29,0a3.72,3.72,0,0,0-.89-.71c-.33-.23-.67-.59-1-.62s-.75.27-1.12.43l-.59.26-.52-.92,1.06-.53c-.39-.57-.73-.66-1.28-.36l-1.63.89-.4-1,1.49-.86-.88-.68.73-1.09,1,.58.16-1.76,1.2-.11c-.09.67-.17,1.28-.23,1.9s-.2.57.51,1l.31.13c0-.21,0-.37,0-.54s0-.31,0-.53l1.12,0c0,.56,0,1.07-.08,1.56a.62.62,0,0,0,.31.63,13.26,13.26,0,0,0,1.61.93c0-.11-.07-.24-.12-.35-.92-1.77-1.85-3.54-2.76-5.32a.61.61,0,0,0-.63-.38c-.52,0-1,0-1.61-.08l-.1-.79,1.69,0c-.17-1-.93-.9-1.61-1l0-.74.92,0-.7-1.36,1-.58.81,1.17.42-.5.77.52-.7,1.25.4.67,1-1.48.85.56c-.28.48-.53,1-.85,1.43a1,1,0,0,0-.07,1.16c.81,1.58,1.58,3.2,2.36,4.8a1.3,1.3,0,0,0,.37.47l.19-2.25-1.75-1.29.44-.82,1.27.71a5.07,5.07,0,0,1,.09-.56.54.54,0,0,0-.27-.59c-.46-.29-.9-.61-1.35-.92l-.54-.41.52-.78,1.74,1.16.13-1.4,1.28.1v1.33l1.74-.91.55.83-2.48,1.31v1.1Z" transform="translate(-0.16 0.04)"/></g><g class="cls-2"><path class="cls-1" d="M159.36,73.87l1.21.69c-.46.84-.87,1.64-1.33,2.4a.92.92,0,0,0,.06,1.14,22.18,22.18,0,0,0,1.9,2.52,5.85,5.85,0,0,0,.07-.72c0-3.07,0-6.15,0-9.22a1.12,1.12,0,0,0-.7-1.2c-.89-.42-1.75-.91-2.67-1.4l.49-1.44,2.83,1.11a5.1,5.1,0,0,0,.1-1.93c0-.19-.3-.39-.5-.5-.7-.37-1.43-.69-2.21-1.07l.81-1.14,1.86.75.14-1.62h1.66l.12,1.58,1.85-.48.44,1.26-2.34.87v2.16l3.13-1,.57,1.2c-1,.56-2,1.11-3,1.62a1,1,0,0,0-.59,1c.07,3.33.12,6.66.18,10a2.2,2.2,0,0,0,.1.41,8.55,8.55,0,0,0,1.13-1.57c.36-.53.7-1.07,1.09-1.65l-1.56-3.11,1.31-.61c.23.47.42.93.68,1.36.11.18.36.41.54.4s.43-.22.56-.4a1.23,1.23,0,0,0,0-1.5c-.67-1-1.25-2.09-1.92-3.24l1.62-.82,1.53,2.73,1.16-1.73,1.83,1-1.16,1.81c1.23.21,2.4,0,3.6.15v1.51a5,5,0,0,1-.6.1c-1,.06-2,.15-3,.13a1.3,1.3,0,0,0-1.41.89c-.05.14-.13.27-.26.54h2.44l.12,1.44a4.35,4.35,0,0,1-1.72.24c-.7.07-1.52-.08-2,.25s-.7,1.11-1,1.7-.49,1-.84,1.61c.39-.14.59-.18.77-.27,2.72-1.49,5.44-3,8.17-4.47a1,1,0,0,0,.67-1c0-.83.11-1.66.19-2.49,0-.31.08-.62.13-1l1.61.09v2.83l.75-.28a.93.93,0,0,0,.67-1.11,13.75,13.75,0,0,1,0-1.45l1.53-.07.17,1.36,2.17-1,.78,1.48-1.92,1.31.8.87-.57,1c-1-.41-1.93-1.06-3.06-.17l2.09,1.73-.76,1-3-1.57L167,83.88l0,.24c1.2,0,2.4.07,3.6,0,.2,0,.45-.31.59-.53.45-.73.86-1.48,1.32-2.28l1.56,1-1,1.73H175l1.71-3.67,1.61,1.2-1.44,2.47h1.84a8.87,8.87,0,0,1,.19,2.53h-2.23l1.55,2.63-1.4,1.14c-.3-.52-.57-1-.83-1.43l-.6-1.09c-.7-1.25-.71-1.25-2.3-.92l.95,1.53-1.36.92c-.44-.67-.9-1.28-1.25-1.94a1.23,1.23,0,0,0-1.31-.71,30.1,30.1,0,0,0-3.38.19c.17.11.33.24.51.34,2.95,1.54,5.9,3.06,8.84,4.63a1.19,1.19,0,0,0,1.32,0c.8-.46,1.63-.87,2.49-1.32l.7,1.22-2.23,1.38c1,1.1,2.13.91,3.28.23l.56,1-.86.78.92.53,1,.58-.89,1.46-2.3-.93L180,98.07l-1.28.15c0-.56-.05-1-.07-1.5-.06-1.11-.15-1.22-1.41-1.53v3.07l-1.64-.14a25.56,25.56,0,0,1-.15-2.87,1.88,1.88,0,0,0-1.23-2c-2.54-1.3-5-2.69-7.53-4-.27-.14-.55-.26-.82-.39l-.16.15c.51,1,1,2.1,1.55,3.13.08.16.43.23.66.24.74,0,1.47,0,2.21,0,.31,0,.63,0,1,0l.09,1.59h-2.45c.29.54.48.9.68,1.25s.52.32.84.32h3.63v1.53l-3.48.19,1.1,2-1.92.89-1.13-1.74L167,101.08l-1.63-.63c.34-.61.65-1.16,1-1.71l.76-1.33c.68-1.21.67-1.23-.44-2.3L165.51,97l-1.34-.63,1.7-3.06-2.47-3.5a6.21,6.21,0,0,0-.12.77c0,3.23.08,6.47.09,9.7a1.19,1.19,0,0,0,.83,1.31c.86.34,1.67.79,2.62,1.24l-.62,1.4L163.32,103c0,.3,0,.49-.08.67a1.14,1.14,0,0,0,.75,1.36c.64.28,1.23.67,1.91,1.05l-.65,1.37-2-1.07c-.06,1-.1,1.87-.15,2.77h-1.78v-2.84l-1.68.88-.59-1.25a12.35,12.35,0,0,1,1.35-.81,1.39,1.39,0,0,0,.84-1.91c-1,0-1.87.71-2.93.87l-.6-1.32,3.6-1.7v-11a5.52,5.52,0,0,0-.49.5c-.48.68-.92,1.39-1.44,2a1.08,1.08,0,0,0-.09,1.46c.47.71.85,1.49,1.32,2.33l-1.28.6L158,95.11l-.89,1.41,2.25,3.86-1.72.9-1.44-3-1.09,1.94-2-.92,1.2-2.07L150.83,97l-.12-1.32c.29,0,.53-.08.77-.09,1,0,2-.08,3-.14s1.13-.17,1.32-1.36l-2.21-.28c0-.52.05-.95.07-1.45,1,0,1.92-.05,2.84,0a1.17,1.17,0,0,0,1.27-.76c.43-.89.93-1.74,1.51-2.79a5.42,5.42,0,0,0-.67.24c-2.79,1.56-5.58,3.13-8.39,4.67a1.07,1.07,0,0,0-.63,1c0,1-.09,2.1-.15,3.2h-1.73V95.29l-1.14.43v2.37H144.8L144.65,97c-.73,0-1.27.55-2.06.7l-1-1.66,2.2-1.11-.92-.83.44-.87a2.3,2.3,0,0,1,.63.25c1,.81,1.87.38,2.83-.28l-2.37-1.71.7-1c.89.48,1.76.94,2.61,1.43a.88.88,0,0,0,1,0l8.79-4.75.41-.24a6.1,6.1,0,0,0-1.87-.16,4.28,4.28,0,0,0-2,.09c-.52.28-.77,1-1.14,1.61l-.57.9-1.57-.8,1-1.7c-1.07-.42-1.61-.24-2.09.69l-1.42,2.71-1.51-1.07c.41-.81.8-1.6,1.27-2.54l-1.84-.13V84.34l1.87-.09c-.48-.88-.91-1.68-1.38-2.56l1.53-1.25c.51,1,1,1.91,1.43,2.82s.25,1,1.6.89c.16,0,.31-.05.55-.09l-.45-.78-.46-.75,1.52-1.07c.48.8.92,1.5,1.32,2.23a1,1,0,0,0,1,.57,21.44,21.44,0,0,0,3.07-.19,4.41,4.41,0,0,0-.49-.36c-2.88-1.6-5.77-3.18-8.65-4.8a1,1,0,0,0-1.22,0c-.72.48-1.48.89-2.29,1.37l-.85-1,2.28-1.61c-1.1-1.14-2.1-.38-3.13.09l-.74-1L144,76l-2.22-1.23.83-1.7,2.18.88.13-1.07h1.53c.06.78.12,1.53.18,2.36l1.16.55V72.83h1.68c.05.91.16,1.83.13,2.74a1.6,1.6,0,0,0,1,1.65c2.57,1.44,5.09,3,7.63,4.45a2,2,0,0,0,.94.3l-1.8-3.26-3.58-.18L153.56,77l2.39-.18c-.16-.35-.28-.6-.39-.85a.84.84,0,0,0-.9-.55c-.9,0-1.8,0-2.69,0l-1.12-.06V73.75h3.45l-1.1-2,1.85-1,1.24,1.82,1.55-2.83,1.5.63-2.2,4.08,1,1.51Z" transform="translate(-0.16 0.04)"/></g><g class="cls-2"><path class="cls-1" d="M29.34,89.23l.84.24c-.15.59-.28,1.15-.44,1.69a.58.58,0,0,0,.2.69,15,15,0,0,0,1.56,1.26,3.5,3.5,0,0,0-.07-.45C31,90.76,30.49,88.88,30,87a.7.7,0,0,0-.61-.63c-.62-.12-1.22-.3-1.86-.45l.08-1,1.91.25A3.14,3.14,0,0,0,29.32,84c0-.11-.24-.19-.38-.23-.49-.12-1-.21-1.52-.32l.32-.82,1.26.17-.16-1,1-.25.31.95,1.07-.57.46.71-1.31.89.33,1.33,1.78-1.09.53.65c-.55.51-1.06,1-1.59,1.46a.6.6,0,0,0-.22.69q.83,3.06,1.63,6.12a1,1,0,0,0,.13.23,5.09,5.09,0,0,0,.45-1.14c.15-.38.27-.76.42-1.18l-1.43-1.67.71-.58c.21.25.4.51.62.73a.53.53,0,0,0,.4.17c.12,0,.23-.2.28-.33a.78.78,0,0,0-.22-.93c-.56-.52-1.09-1.09-1.67-1.7l.87-.75L34.77,87l.45-1.25,1.27.32-.44,1.29c.79-.06,1.48-.38,2.24-.46l.23.93c-.11,0-.23.11-.35.15-.61.19-1.2.4-1.81.54a.82.82,0,0,0-.73.75l-.08.38,1.5-.37.29.86a2.8,2.8,0,0,1-1,.42c-.42.14-1,.18-1.22.46s-.26.79-.37,1.2-.16.66-.27,1.12c.21-.14.33-.2.43-.28,1.45-1.33,2.89-2.67,4.35-4a.69.69,0,0,0,.25-.74c-.11-.52-.18-1-.26-1.56a5.51,5.51,0,0,1-.07-.63l1-.19.44,1.74.41-.29a.58.58,0,0,0,.25-.78,7.13,7.13,0,0,1-.23-.89L42,85.4l.31.81,1.19-.94.7.78-1,1.11.62.41-.2.68c-.67-.1-1.35-.36-1.91.37l1.55.74-.33.7-2.1-.5-5.23,4.67.06.14c.75-.17,1.49-.32,2.22-.52.13,0,.23-.26.29-.42.16-.52.3-1,.46-1.6l1.11.36-.33,1.21,1.13-.28L41,90.6l1.18.49-.51,1.75,1.13-.28a5.65,5.65,0,0,1,.5,1.52l-1.37.34,1.35,1.39-.68.91L41.88,96l-.54-.58c-.62-.66-.62-.66-1.55-.22l.81.8-.69.77c-.38-.34-.75-.65-1.07-1a.78.78,0,0,0-.91-.24,20.06,20.06,0,0,0-2,.63,2.67,2.67,0,0,0,.36.14c2,.5,4.1,1,6.15,1.5a.76.76,0,0,0,.81-.23c.42-.4.86-.78,1.33-1.19l.61.65L44,98.18A1.49,1.49,0,0,0,46,97.83l.49.54-.41.61.65.19.7.2-.33,1-1.56-.23.15.81-.77.28c-.1-.34-.18-.63-.27-.91-.21-.67-.28-.72-1.1-.73l.46,1.89-1,.16a16.4,16.4,0,0,1-.52-1.74,1.2,1.2,0,0,0-1.06-1c-1.76-.41-3.5-.89-5.25-1.34-.19,0-.38-.08-.57-.12l-.07.12c.47.57.93,1.14,1.43,1.69.07.08.3.07.44,0,.46-.1.91-.22,1.36-.33l.63-.13.3,1-1.51.37.61.67c.17.18.37.12.57.07l2.23-.55.24.94-2.12.65,1,1.08-1,.83-1-.9-.52,1.84-1.1-.14c.12-.43.22-.81.33-1.2s.17-.62.26-.94c.23-.84.23-.85-.62-1.34l-.41,1.35-.92-.18.58-2.14-2.05-1.78a4,4,0,0,0,0,.49c.51,2,1,4,1.53,6a.76.76,0,0,0,.71.68c.58.08,1.15.23,1.8.37l-.16,1-2-.31c0,.19,0,.3.05.42a.71.71,0,0,0,.67.72c.44.08.86.23,1.34.36l-.2.94-1.37-.36.34,1.73-1.1.27-.43-1.75-.9.8-.55-.68a6.6,6.6,0,0,1,.7-.7A.88.88,0,0,0,35,107c-.62.18-1,.71-1.68,1l-.56-.71,2-1.6L33,98.9a2,2,0,0,0-.22.38c-.2.49-.36,1-.58,1.48a.68.68,0,0,0,.17.91c.39.36.75.78,1.16,1.23l-.7.56-1.11-.95-.33,1,2,2-.93.81-1.35-1.65-.37,1.35-1.36-.26.42-1.46-2.19.46-.28-.8c.18-.06.32-.13.46-.17.6-.18,1.21-.35,1.81-.54s.67-.27.6-1l-1.4.17-.17-.91c.61-.15,1.17-.32,1.74-.42a.73.73,0,0,0,.67-.66c.13-.61.31-1.21.5-2-.19.14-.29.18-.37.26l-4.45,4.15a.66.66,0,0,0-.23.74c.15.65.26,1.31.4,2l-1.07.27-.42-1.69-.64.44.37,1.46-1.07.26-.26-.64c-.44.13-.7.53-1.16.74l-.84-.87,1.18-1-.69-.37.14-.6a1.29,1.29,0,0,1,.42.06c.75.34,1.22-.05,1.7-.61l-1.71-.69.27-.75,1.82.49a.56.56,0,0,0,.6-.14l4.69-4.26.22-.21a3.83,3.83,0,0,0-1.18.19,2.69,2.69,0,0,0-1.2.35c-.28.25-.32.77-.46,1.17-.06.19-.13.38-.21.64l-1.09-.26.35-1.19c-.73-.1-1,.1-1.19.74s-.3,1.22-.46,1.89l-1.09-.43.39-1.76-1.15.2-.33-1.33L24,97.35,22.73,96l.75-1,1.31,1.52c.47.53.3.55,1.12.3.1,0,.18-.08.33-.14-.15-.16-.27-.29-.4-.41s-.23-.23-.4-.39l.78-.89c.41.42.79.78,1.15,1.17a.62.62,0,0,0,.7.2,13.7,13.7,0,0,0,1.86-.58,2.75,2.75,0,0,0-.36-.15c-2-.55-4-1.08-6.06-1.64a.66.66,0,0,0-.74.22c-.37.4-.77.77-1.2,1.19l-.68-.48,1.16-1.34c-.85-.53-1.35.09-1.91.53l-.61-.49.64-.72-1.55-.42.25-1.17,1.48.2-.09-.67.94-.24L21.68,92l.79.16L22,90.37l1-.26c.17.56.38,1.1.5,1.67a1,1,0,0,0,.85.87c1.79.49,3.58,1,5.37,1.57a1.26,1.26,0,0,0,.62,0l-1.6-1.73L26.57,93l-.33-.92,1.45-.48c-.15-.19-.27-.32-.37-.46a.54.54,0,0,0-.64-.21c-.55.15-1.11.27-1.66.39l-.7.13-.24-1,2.12-.52-1-1.09,1-.92,1,.93.52-2,1,.16-.73,2.85.84.78Z" transform="translate(-0.16 0.04)"/></g></g></svg>