<?xml version="1.0" encoding="utf-8"?>
<!-- Generator: Adobe Illustrator 24.2.3, SVG Export Plug-In . SVG Version: 6.00 Build 0)  -->
<svg version="1.1" id="Layer_1" xmlns="http://www.w3.org/2000/svg" xmlns:xlink="http://www.w3.org/1999/xlink" x="0px" y="0px"
	 viewBox="0 0 200 40" style="enable-background:new 0 0 200 40;" xml:space="preserve">
<style type="text/css">
	.st0{fill:#FFFFFF;}
	.st1{fill:#FF8882;}
	.st2{fill:#FFBD55;}
	.st3{fill:#352269;}
</style>
<g>
	<path class="st1" d="M21.2,0C17.8,0,15,2.8,15,6.2s2.8,6.2,6.2,6.2s6.2-2.8,6.2-6.2S24.7,0,21.2,0z M22.6,8.5
		c-1.3,0.7-2.8,0.3-3.6-1c-0.7-1.3-0.3-2.8,1-3.6c1.3-0.7,2.8-0.3,3.6,1C24.2,6.2,23.8,7.8,22.6,8.5z"/>
	<path class="st1" d="M36.3,1c2.9,0,5.2,2.3,5.2,5.2s-2.3,5.2-5.2,5.2c-2.9,0-5.2-2.3-5.2-5.2S33.4,1,36.3,1 M36.3,0
		c-3.4,0-6.2,2.8-6.2,6.2s2.8,6.2,6.2,6.2s6.2-2.8,6.2-6.2S39.7,0,36.3,0L36.3,0z"/>
	<path class="st2" d="M6.2,1c2.9,0,5.2,2.3,5.2,5.2s-2.3,5.2-5.2,5.2S1,9.1,1,6.2S3.3,1,6.2,1 M6.2,0C2.8,0,0,2.8,0,6.2
		s2.8,6.2,6.2,6.2s6.2-2.8,6.2-6.2S9.6,0,6.2,0L6.2,0z"/>
	<path class="st3" d="M21.2,27c2.9,0,5.2,2.3,5.2,5.2s-2.3,5.2-5.2,5.2S16,35.1,16,32.3S18.4,27,21.2,27 M21.2,26
		c-3.4,0-6.2,2.8-6.2,6.2s2.8,6.2,6.2,6.2s6.2-2.8,6.2-6.2S24.7,26,21.2,26L21.2,26z"/>
	<path class="st2" d="M13.7,13c-3.4,0-6.2,2.8-6.2,6.2s2.8,6.2,6.2,6.2s6.2-2.8,6.2-6.2S17.2,13,13.7,13z M15,21.5
		c-1.3,0.7-2.8,0.3-3.6-1c-0.7-1.3-0.3-2.8,1-3.6c1.3-0.7,2.8-0.3,3.6,1C16.7,19.2,16.2,20.8,15,21.5z"/>
	<path class="st3" d="M28.8,25.5c3.4,0,6.2-2.8,6.2-6.2S32.2,13,28.8,13s-6.2,2.8-6.2,6.2S25.3,25.5,28.8,25.5z M27.5,17
		c1.3-0.7,2.8-0.3,3.6,1c0.7,1.3,0.3,2.8-1,3.6c-1.3,0.7-2.8,0.3-3.6-1C25.8,19.3,26.2,17.7,27.5,17z"/>
	<circle class="st3" cx="21.2" cy="32.3" r="4.2"/>
	<circle class="st1" cx="36.3" cy="6.2" r="4.2"/>
	<circle class="st2" cx="6.2" cy="6.2" r="4.2"/>
	<g>
		<path class="st3" d="M47.2,24.1c-0.8-0.2-1.4-0.5-1.8-0.8l0.9-2.1c0.4,0.3,1,0.5,1.5,0.7c0.6,0.2,1.2,0.3,1.7,0.3
			c1.1,0,1.6-0.3,1.6-0.8c0-0.3-0.2-0.5-0.5-0.6c-0.3-0.1-0.8-0.3-1.5-0.4c-0.7-0.2-1.4-0.3-1.9-0.5c-0.5-0.2-0.9-0.5-1.3-0.9
			c-0.4-0.4-0.5-0.9-0.5-1.6c0-0.6,0.2-1.1,0.5-1.6c0.3-0.5,0.8-0.9,1.5-1.1c0.7-0.3,1.5-0.4,2.4-0.4c0.6,0,1.3,0.1,1.9,0.2
			c0.6,0.1,1.2,0.4,1.7,0.6l-0.9,2.1c-0.9-0.5-1.8-0.8-2.7-0.8c-0.6,0-1,0.1-1.2,0.2s-0.4,0.4-0.4,0.6c0,0.3,0.2,0.5,0.5,0.6
			c0.3,0.1,0.8,0.3,1.4,0.4c0.8,0.2,1.4,0.3,1.9,0.5c0.5,0.2,0.9,0.5,1.3,0.9c0.4,0.4,0.5,0.9,0.5,1.6c0,0.6-0.2,1.1-0.5,1.6
			c-0.3,0.5-0.8,0.9-1.5,1.1c-0.7,0.3-1.5,0.4-2.4,0.4C48.8,24.4,48,24.3,47.2,24.1z"/>
		<path class="st3" d="M57.4,23.7c-0.8-0.4-1.5-1.1-2-1.8c-0.5-0.8-0.7-1.7-0.7-2.6c0-1,0.2-1.9,0.7-2.6c0.5-0.8,1.1-1.4,2-1.8
			c0.8-0.4,1.8-0.7,2.8-0.7s2,0.2,2.8,0.7c0.8,0.4,1.5,1.1,2,1.8c0.5,0.8,0.7,1.7,0.7,2.6c0,1-0.2,1.9-0.7,2.6
			c-0.5,0.8-1.1,1.4-2,1.8s-1.8,0.7-2.8,0.7S58.2,24.2,57.4,23.7z M61.5,21.7c0.4-0.2,0.7-0.6,1-1c0.2-0.4,0.4-0.9,0.4-1.5
			c0-0.6-0.1-1-0.4-1.5c-0.2-0.4-0.6-0.8-1-1c-0.4-0.2-0.9-0.4-1.4-0.4c-0.5,0-0.9,0.1-1.4,0.4c-0.4,0.2-0.7,0.6-1,1
			c-0.2,0.4-0.4,0.9-0.4,1.5c0,0.6,0.1,1,0.4,1.5c0.2,0.4,0.6,0.8,1,1c0.4,0.2,0.9,0.4,1.4,0.4C60.7,22.1,61.1,22,61.5,21.7z"/>
		<path class="st3" d="M74,14.8c0.7,0.3,1.2,0.7,1.5,1.3c0.4,0.5,0.5,1.2,0.5,1.9c0,0.7-0.2,1.4-0.5,1.9c-0.4,0.5-0.9,1-1.5,1.3
			c-0.7,0.3-1.4,0.4-2.3,0.4h-1.7v2.6h-2.8v-9.8h4.5C72.6,14.3,73.3,14.5,74,14.8z M72.8,19c0.3-0.2,0.4-0.6,0.4-1.1
			c0-0.5-0.1-0.8-0.4-1.1c-0.3-0.3-0.7-0.4-1.3-0.4h-1.5v2.9h1.5C72.1,19.4,72.5,19.3,72.8,19z"/>
		<path class="st3" d="M81.7,21.6h-1.5v2.6h-2.8v-9.8h4.5c0.9,0,1.7,0.1,2.3,0.4c0.7,0.3,1.2,0.7,1.5,1.3c0.4,0.5,0.5,1.2,0.5,1.9
			c0,0.7-0.2,1.3-0.5,1.9c-0.3,0.5-0.8,0.9-1.4,1.2l2.1,3.1h-3L81.7,21.6z M83,16.9c-0.3-0.3-0.7-0.4-1.3-0.4h-1.5v2.9h1.5
			c0.6,0,1-0.1,1.3-0.4c0.3-0.2,0.4-0.6,0.4-1.1C83.4,17.5,83.3,17.2,83,16.9z"/>
		<path class="st3" d="M89.9,23.7c-0.8-0.4-1.5-1.1-2-1.8c-0.5-0.8-0.7-1.7-0.7-2.6c0-1,0.2-1.9,0.7-2.6c0.5-0.8,1.1-1.4,2-1.8
			c0.8-0.4,1.8-0.7,2.8-0.7s2,0.2,2.8,0.7c0.8,0.4,1.5,1.1,2,1.8c0.5,0.8,0.7,1.7,0.7,2.6c0,1-0.2,1.9-0.7,2.6
			c-0.5,0.8-1.1,1.4-2,1.8c-0.8,0.4-1.8,0.7-2.8,0.7S90.7,24.2,89.9,23.7z M94.1,21.7c0.4-0.2,0.7-0.6,1-1c0.2-0.4,0.4-0.9,0.4-1.5
			c0-0.6-0.1-1-0.4-1.5c-0.2-0.4-0.6-0.8-1-1c-0.4-0.2-0.9-0.4-1.4-0.4c-0.5,0-0.9,0.1-1.4,0.4c-0.4,0.2-0.7,0.6-1,1
			c-0.2,0.4-0.4,0.9-0.4,1.5c0,0.6,0.1,1,0.4,1.5c0.2,0.4,0.6,0.8,1,1c0.4,0.2,0.9,0.4,1.4,0.4C93.2,22.1,93.7,22,94.1,21.7z"/>
		<path class="st3" d="M109.1,14.3v9.8h-2.3l-4.3-5.2v5.2h-2.7v-9.8h2.3l4.3,5.2v-5.2H109.1z"/>
		<path class="st3" d="M111.1,14.3h2.8v9.8h-2.8V14.3z"/>
		<path class="st3" d="M129.2,20c0.3,0.4,0.5,0.9,0.5,1.5c0,0.9-0.3,1.5-1,2c-0.7,0.5-1.7,0.7-3,0.7h-5.3v-9.8h5
			c1.3,0,2.2,0.2,2.9,0.7c0.7,0.5,1,1.1,1,1.9c0,0.5-0.1,0.9-0.3,1.3c-0.2,0.4-0.6,0.7-1,0.9C128.4,19.2,128.8,19.6,129.2,20z
			 M123,16.4v1.9h1.9c0.9,0,1.4-0.3,1.4-1c0-0.6-0.5-0.9-1.4-0.9H123z M126.8,21.2c0-0.7-0.5-1-1.5-1H123v2h2.3
			C126.3,22.2,126.8,21.8,126.8,21.2z"/>
		<path class="st3" d="M133.2,23.7c-0.8-0.4-1.5-1.1-2-1.8c-0.5-0.8-0.7-1.7-0.7-2.6c0-1,0.2-1.9,0.7-2.6c0.5-0.8,1.1-1.4,2-1.8
			c0.8-0.4,1.8-0.7,2.8-0.7s2,0.2,2.8,0.7c0.8,0.4,1.5,1.1,2,1.8c0.5,0.8,0.7,1.7,0.7,2.6c0,1-0.2,1.9-0.7,2.6
			c-0.5,0.8-1.1,1.4-2,1.8s-1.8,0.7-2.8,0.7S134,24.2,133.2,23.7z M137.4,21.7c0.4-0.2,0.7-0.6,1-1c0.2-0.4,0.4-0.9,0.4-1.5
			c0-0.6-0.1-1-0.4-1.5c-0.2-0.4-0.6-0.8-1-1c-0.4-0.2-0.9-0.4-1.4-0.4c-0.5,0-0.9,0.1-1.4,0.4c-0.4,0.2-0.7,0.6-1,1
			c-0.2,0.4-0.4,0.9-0.4,1.5c0,0.6,0.1,1,0.4,1.5c0.2,0.4,0.6,0.8,1,1c0.4,0.2,0.9,0.4,1.4,0.4C136.5,22.1,137,22,137.4,21.7z"/>
		<path class="st3" d="M147.3,21.6h-1.5v2.6H143v-9.8h4.5c0.9,0,1.7,0.1,2.3,0.4c0.7,0.3,1.2,0.7,1.5,1.3c0.4,0.5,0.5,1.2,0.5,1.9
			c0,0.7-0.2,1.3-0.5,1.9c-0.3,0.5-0.8,0.9-1.4,1.2l2.1,3.1h-3L147.3,21.6z M148.6,16.9c-0.3-0.3-0.7-0.4-1.3-0.4h-1.5v2.9h1.5
			c0.6,0,1-0.1,1.3-0.4c0.3-0.2,0.4-0.6,0.4-1.1C149.1,17.5,148.9,17.2,148.6,16.9z"/>
		<path class="st3" d="M163.2,14.3l-4.2,9.8h-2.7l-4.2-9.8h3l2.7,6.4l2.7-6.4H163.2z"/>
		<path class="st3" d="M164,14.3h2.8v9.8H164V14.3z"/>
		<path class="st3" d="M168.9,14.3h4.7c1.1,0,2,0.2,2.9,0.6c0.8,0.4,1.5,1,1.9,1.7c0.5,0.7,0.7,1.6,0.7,2.6c0,1-0.2,1.9-0.7,2.6
			c-0.5,0.7-1.1,1.3-1.9,1.7c-0.8,0.4-1.8,0.6-2.9,0.6h-4.7V14.3z M173.4,22c0.8,0,1.5-0.2,2-0.7c0.5-0.5,0.8-1.1,0.8-2
			c0-0.8-0.3-1.5-0.8-2c-0.5-0.5-1.2-0.7-2-0.7h-1.8V22H173.4z"/>
		<path class="st3" d="M188.5,22v2.2h-7.9v-9.8h7.7v2.2h-5v1.7h4.4v2.1h-4.4V22H188.5z M184.9,11.4h2.7l-2.6,2.1H183L184.9,11.4z"/>
		<path class="st3" d="M194,20.6l-1,1.1v2.5h-2.8v-9.8h2.8v4.1l3.8-4.1h3.1l-4,4.4l4.2,5.5h-3.2L194,20.6z"/>
	</g>
</g>
</svg>
